<?xml version="1.0" encoding="UTF-8"?>
<svg width="94px" height="94px" viewBox="0 0 94 94" version="1.1" xmlns="http://www.w3.org/2000/svg" xmlns:xlink="http://www.w3.org/1999/xlink">
    <!-- Generator: Sketch 63.1 (92452) - https://sketch.com -->
    <title>اهدای عضو در سایر کشورها@2x</title>
    <desc>Created with Sketch.</desc>
    <g id="Page-1" stroke="none" stroke-width="1" fill="none" fill-rule="evenodd">
        <g id="اهدای-عضو-در-سایر-کشورها" fill-rule="nonzero">
            <g id="Group" transform="translate(5.000000, 5.000000)" fill="#6DD7FF">
                <path d="M75.2145355,10.9086863 L70.4982062,14.0440125 L62.6377186,12.4762575 L57.9213893,10.9085025 L51.6328887,12.4762575 L46.9165593,10.9085025 L50.0607175,4.63766625 L56.3490338,4.63766625 L62.5116796,1.56499875 C67.264494,3.9105675 71.5641943,7.07419125 75.2145355,10.9086863 Z" id="Path"></path>
                <path d="M39.0562561,4.63803375 L37.4840849,9.341115 L32.7677555,10.90887 L28.0514261,18.7472775 L20.1909386,23.4503587 L9.18629294,25.0181138 L9.18629294,29.721195 L12.3304511,32.8565212 L12.3304511,39.1273575 L7.61412173,35.9920312 L2.89779237,32.8563375 L0.162339761,24.6574125 C4.87092989,13.468875 13.8711125,4.623885 25.1587933,0.09169125 L29.6235974,3.07027875 L39.0562561,4.63803375 Z" id="Path"></path>
                <polygon id="Path" points="42.2004142 48.5333362 40.6284273 56.3717438 34.3399267 62.6423962 34.3399267 67.3454775 28.0516104 72.0485587 28.0516104 79.8869663 23.335281 78.3192112 20.1909386 70.4808038 20.1909386 54.8039887 12.3304511 53.2362337 9.18629294 46.9655812 9.18629294 42.2625 12.3304511 39.1271737 17.0467805 34.4240925 20.1909386 40.694745 31.1957686 40.694745 35.9120979 48.5333362"></polygon>
                <path d="M81.9745769,20.0484113 C90.5566564,35.3161987 89.5787482,54.1424887 79.4591398,68.4428325 L75.2145355,64.2101512 L75.2145355,57.9394987 L72.0703774,51.6686625 L68.9262192,45.39801 L68.9262192,39.1271737 L64.2098899,35.9918475 L57.9215735,37.5596025 L46.9169279,32.8565212 L45.3447567,21.8827875 L50.061086,17.1797062 L59.4937448,17.1797062 L62.6379029,21.8827875 L72.0705616,23.4505425 L81.5032204,20.3152162 L81.9745769,20.0484113 Z" id="Path"></path>
            </g>
            <path d="M56.7859585,17.6946761 L63.0480035,16.1251086 L67.7444914,17.6946761 L75.57191,19.2642435 L80.2683979,16.1252926 C82.8905043,18.8766347 85.152782,21.9511987 87,25.2753998 L86.530443,25.5421454 L77.1374672,28.6810963 L67.7444914,27.1115288 L64.6135606,22.4030105 L55.2205848,22.4030105 L50.5240969,27.1115288 L52.089654,38.097949 L63.0480035,42.8064674 L69.309865,41.2369 L74.0063529,44.3758509 L74.0063529,50.6537527 L77.1372837,56.9316546 L80.2682144,63.2097404 L80.2682144,69.4876422 L84.4949618,73.7252168 C70.0375959,94.2637021 41.7102231,99.1620697 21.2256824,84.6678539 C3.8284013,72.3581919 -2.69805627,49.5784923 5.53157773,29.8891775 L8.25552236,38.0975811 L12.9520103,41.236532 L17.6484982,44.375483 L14.5177509,47.5151697 L14.5177509,52.2236881 L17.6486816,58.5017739 L25.4761003,60.0713413 L25.4761003,75.7662799 L28.6070311,83.6137492 L33.303519,85.1833166 L33.303519,77.3358473 L39.565564,72.627329 L39.565564,67.9188106 L45.827609,61.6407248 L47.3931662,53.7932555 L41.1313046,53.7932555 L36.4348167,45.9457862 L25.4764673,45.9457862 L22.3455365,39.6677004 L17.6490486,44.3762188 L17.6490486,38.098133 L14.5181179,34.9591821 L14.5181179,30.2506637 L25.4764673,28.6810963 L33.303886,23.9725779 L38.0003739,16.1251086 L42.6968617,14.5555412 L44.2624189,9.84702283 L34.8694431,8.27745539 L30.4234223,5.29542442 C42.4619915,0.434769128 56.0004275,0.971387532 67.6193496,6.7708031 L61.4826298,9.84702283 L55.2207683,9.84702283 L52.0898375,16.1251086 L56.7859585,17.6946761 Z" id="Path" fill="#ADE5FF"></path>
            <path d="M47.0031624,94.0000007 C72.9561348,94.0031093 93.9968773,72.9644015 94,47.0062379 C94.0047718,21.0497269 72.9686192,0.00477569102 47.0172991,6.51398216e-07 C28.2116249,-0.00312041213 11.2152654,11.2095297 3.81258862,28.5008938 L3.2267415,28.6951747 L3.45384676,29.3766267 C-6.29203496,53.4186081 5.29272008,80.81019 29.3298934,90.5580211 C34.943818,92.8343024 40.9445742,94.0031093 47.0031624,94.0000007 Z M83.8797693,70.7006071 L81.4629434,68.2845832 L81.4629434,62.6665976 C81.4660645,62.4238383 81.41117,62.1840171 81.3063381,61.9662316 L75.1976288,49.7634469 L75.1976288,43.8665269 C75.1976288,43.3431805 74.936008,42.8545403 74.500524,42.563119 L69.8014463,39.4298351 C69.4333411,39.1839541 68.9774783,39.105544 68.5484201,39.2137022 L62.7936792,40.6518948 L53.1276607,36.5033189 L51.7978924,27.1848154 L55.4835336,23.5000897 L63.3951318,23.5000897 L66.0579731,27.5028631 C66.2992151,27.8631457 66.6766835,28.1075577 67.104273,28.1780717 L76.5024284,29.7448055 C76.754686,29.7870405 77.0130022,29.7666575 77.2542441,29.6853093 L85.9099472,26.799559 C93.1699718,40.7350793 92.3930038,57.4968536 83.8737108,70.7006071 L83.8797693,70.7006071 L83.8797693,70.7006071 Z M77.4154393,15.4379847 L74.8686291,17.1361978 L67.7683309,15.7152665 L63.1616008,14.1815862 C62.879601,14.0860984 62.5757537,14.0734279 62.2875117,14.1470637 L56.4637397,15.6025175 L53.9105038,14.7517583 L55.8026192,10.9667704 L61.1000284,10.9667704 C61.3427392,10.9667704 61.5825124,10.9103959 61.8002544,10.8022377 L67.2197533,8.09185436 C70.9527616,10.0407228 74.3861452,12.5145903 77.4154393,15.4379847 Z M29.8468929,6.63180979 L33.6061551,9.1385471 C33.7910339,9.26066125 33.999229,9.34384578 34.2186233,9.37983732 L41.8091164,10.6457846 L41.0683163,12.8625697 L37.1133433,14.1832389 C36.7593749,14.3007623 36.4586486,14.5420525 36.2658754,14.8615692 L31.7672818,22.3595619 L24.5417728,26.6961752 L13.8905911,28.2173686 C13.1183965,28.3269959 12.5450338,28.986596 12.543565,29.7668411 L12.543565,34.4668588 C12.543565,34.8820469 12.7080649,35.2814428 13.002549,35.5745168 L15.6762223,38.2487249 L15.6762223,40.9401943 L9.16011888,36.5942159 L6.79653511,29.5018626 C11.2934763,19.2246253 19.5357266,11.0466496 29.8468929,6.63180979 Z M25.3875884,57.9979807 L18.3076691,56.5801711 L15.6762223,51.3301807 L15.6762223,47.6485767 L21.5124787,41.8111529 L23.6724572,46.1336266 C23.9371991,46.6646855 24.4806361,46.9999944 25.0743778,46.9999944 L35.1521967,46.9999944 L39.3954116,54.0734338 C39.6788801,54.5449964 40.1879851,54.833296 40.7378478,54.833296 L45.0923204,54.833296 L43.9958995,60.3275148 L38.0656432,66.2589573 C37.7711591,66.5518476 37.6051905,66.9514271 37.6051905,67.3666153 L37.6051905,71.2832661 L31.9662973,75.5131902 C31.5715711,75.8092022 31.3396924,76.2730524 31.3396924,76.766467 L31.3396924,82.4252185 L29.3912137,81.779758 L26.6406146,74.8989468 L26.6406146,59.5331301 C26.6406146,58.7892437 26.1173729,58.1469049 25.3875884,57.9979807 Z M5.05790388,34.1908625 L6.35958238,38.0950264 C6.46918775,38.4255609 6.68546099,38.7090861 6.97517166,38.903367 L14.7834067,44.1094698 L13.002549,45.8923364 C12.7080649,46.1852268 12.543565,46.5848063 12.543565,46.9999944 L12.543565,51.7000121 C12.543565,51.9427714 12.5999282,52.1825925 12.7080649,52.4003781 L15.8407222,58.6671295 C16.0568118,59.0995789 16.4625536,59.4080778 16.937143,59.5020965 L23.5158519,60.8165223 L23.5158519,75.2001005 C23.5158519,75.3989721 23.5534885,75.5963747 23.6271096,75.7812904 L26.7597669,83.614592 C26.9305089,84.042267 27.2830086,84.3728015 27.7199613,84.518604 L32.419039,86.0853377 C32.5756444,86.1385905 32.7401442,86.1668696 32.9061128,86.1668696 C33.770655,86.1668696 34.4725333,85.4650346 34.4725333,84.6001358 L34.4725333,77.5502011 L40.1114265,73.320277 C40.5061527,73.024265 40.7380314,72.5604148 40.7380314,72.0670002 L40.7380314,68.0155648 L46.5445457,62.2078891 C46.7622876,61.9886345 46.9109984,61.7111691 46.9721351,61.407261 L48.5385556,53.5739594 C48.7076452,52.7248528 48.1579661,51.90072 47.3090293,51.7299438 C47.2087872,51.7095609 47.105424,51.7001957 47.0035296,51.7001957 L41.6244212,51.7001957 L37.3812064,44.6267564 C37.0977379,44.1551937 36.5886329,43.8668942 36.0387701,43.8668942 L26.0422831,43.8668942 L23.351352,38.4665105 C23.1257155,38.0153308 22.698126,37.7004049 22.2000367,37.6205257 C21.703416,37.5344031 21.1944946,37.6989358 20.8419949,38.0592185 L18.8088796,40.0848444 L18.8088796,37.5999591 C18.8088796,37.184771 18.6443797,36.785375 18.3498956,36.4923011 L15.6762223,33.8180929 L15.6762223,31.1249709 L25.2967096,29.7510489 C25.503436,29.7213008 25.7024514,29.6507868 25.8809044,29.5426285 L33.7126394,24.8426108 C33.9318502,24.7109479 34.1167289,24.5262158 34.2483655,24.3067776 L38.649838,16.9700124 L42.799053,15.5850726 C43.2674002,15.4315577 43.6355053,15.0633789 43.7889896,14.594938 L45.35541,9.89492033 C45.6263941,9.07390923 45.1815469,8.18734211 44.3592312,7.91630378 C44.2839579,7.89114643 44.205747,7.87241614 44.1273526,7.85827661 L35.0613179,6.3464483 L33.4682764,5.28433061 C43.3254158,2.07575828 54.0015662,2.47221611 63.5923113,6.40447548 L60.7306382,7.83330289 L54.8348975,7.83330289 C54.2380347,7.83018117 53.6914766,8.16549011 53.4252659,8.69967067 L50.2926086,14.9664221 C49.9072457,15.7404239 50.22064,16.6818964 50.9959556,17.0673364 C51.0616822,17.1002063 51.1307133,17.1284853 51.1995609,17.15199 L55.8986387,18.7187238 C56.1806384,18.8142115 56.4844858,18.826882 56.7727277,18.7532463 L62.5964997,17.2977925 L66.8632146,18.7187238 C66.9243512,18.7405758 66.9869567,18.757837 67.0512144,18.7688549 L74.8829494,20.3355886 C75.29016,20.4185895 75.7146284,20.3355886 76.0592335,20.1036635 L79.6242537,17.7254675 C81.3784904,19.6805793 82.9559264,21.7879207 84.3358158,24.021967 L76.6292916,26.5913222 L68.2853305,25.2001391 L65.5284892,21.0642337 C65.2387786,20.6303153 64.7546423,20.3701111 64.2330529,20.3669894 L54.8348975,20.3669894 C54.4197924,20.3669894 54.0204763,20.5315222 53.727461,20.8260652 L49.0283832,25.5260828 C48.6790046,25.8755313 48.5146884,26.3672933 48.5851883,26.8561171 L50.1516088,37.8227026 C50.2300032,38.3647793 50.5870927,38.8269768 51.0914243,39.0399879 L62.0558166,43.7400056 C62.3706796,43.8762593 62.7198746,43.9045384 63.0519954,43.8198848 L68.6453575,42.4208055 L72.064788,44.7049829 L72.064788,50.133462 C72.0616669,50.3762212 72.1165613,50.6160424 72.2213933,50.833828 L78.3301025,63.0366127 L78.3301025,68.9335327 C78.3301025,69.3487208 78.4946024,69.7481167 78.7890865,70.0411907 L82.0658648,73.320277 C67.5333312,92.6952942 40.0501063,96.6181885 20.6789638,82.0825643 C5.9099617,70.9997409 -0.335157593,51.8518744 5.05790388,34.1908625 Z" id="Shape" fill="#000000"></path>
        </g>
    </g>
</svg>