<?xml version="1.0" encoding="UTF-8"?>
<svg width="92px" height="106px" viewBox="0 0 92 106" version="1.1" xmlns="http://www.w3.org/2000/svg" xmlns:xlink="http://www.w3.org/1999/xlink">
    <!-- Generator: Sketch 63.1 (92452) - https://sketch.com -->
    <title>اهدای عضو و مذهب@2x</title>
    <desc>Created with Sketch.</desc>
    <g id="Page-1" stroke="none" stroke-width="1" fill="none" fill-rule="evenodd">
        <g id="اهدای-عضو-و-مذهب" fill-rule="nonzero">
            <g id="Group" transform="translate(2.000000, 2.000000)">
                <path d="M30.1228807,92.6591866 L10.4572627,74.3404433 L8.43375867,72.4554925 C6.44659633,70.6043497 3.33325767,70.7126182 1.48004033,72.6973337 C-0.373177,74.6820492 -0.264775,77.7915542 1.72238733,79.6424896 L24.5752733,100.930736 C26.5624357,102.781878 29.6757743,102.673403 31.5289917,100.688687 C33.382209,98.7039716 33.273807,95.5944665 31.2866447,93.7435311 L30.1228807,92.6591866 Z" id="Path" fill="#6DD7FF"></path>
                <path d="M20.7450693,67.6271728 L10.4572627,74.3404433 L30.1228807,92.6591866 C51.4830587,80.7139747 41.0596457,59.9749529 41.9663183,49.8006157 C42.1598637,47.6284007 43.6060543,34.456353 43.799392,32.2839306 C44.001244,30.0173436 42.3168597,27.9963312 40.0559927,27.7932759 C39.4257243,27.7366527 38.867101,27.8399434 38.369947,28.0641546 L43.4233077,6.35922 C44.8433323,-0.263204507 37.1935153,-1.983471 35.322854,3.38411721 C34.078723,7.07395816 27.243167,23.6740943 23.1110157,35.1026455 C20.1388903,43.3231715 19.741624,45.8091992 20.139721,54.4663252 L20.7450693,67.6271728 Z" id="Path" fill="#ADE5FF"></path>
                <path d="M46.0787413,49.8006157 C46.9852063,59.9749529 36.5617933,80.7139747 57.9219713,92.659394 L77.5875893,74.3404433 L67.299575,67.6271728 L67.9047157,54.4665326 C68.3030203,45.8094066 67.905754,43.3233789 64.9336287,35.1028529 C60.801685,23.6743017 53.9659213,7.07395816 52.7217903,3.38432462 C50.851129,-1.983471 43.201312,-0.262997096 44.6213367,6.35942741 L49.674905,28.0641546 C49.177751,27.8401508 48.61892,27.7366527 47.9888593,27.7932759 C45.7279923,27.9963312 44.043608,30.0173436 44.24546,32.2839306 C44.4390053,34.4561455 45.885196,47.6284007 46.0787413,49.8006157 L46.0787413,49.8006157 Z" id="Path" fill="#ADE5FF"></path>
                <path d="M77.5875893,74.3404433 L57.9219713,92.659394 L56.7579997,93.7435311 C54.7708373,95.5946739 54.6624353,98.704179 56.5156527,100.688687 C58.3690777,102.673403 61.4824163,102.781671 63.469371,100.930736 L86.322257,79.6426971 C88.3094193,77.7915542 88.4178213,74.6820492 86.564604,72.6975411 C84.711179,70.7128256 81.598048,70.6045571 79.6108857,72.4556999 L77.5875893,74.3404433 Z" id="Path" fill="#6DD7FF"></path>
            </g>
            <path d="M90.1207555,73.0190859 C87.4856593,70.2062174 83.0435092,70.0525925 80.2185579,72.6758108 L79.3838612,73.4509749 L71.4405182,68.2840423 L71.9921999,56.3282125 C72.3999827,47.4883602 71.9659987,44.666796 68.8954627,36.200654 C66.5190517,29.6484054 63.277376,21.4613556 60.6728478,14.8828127 C58.8086087,10.1744775 57.198688,6.10817861 56.6821492,4.58103905 C56.6798618,4.57441372 56.6777824,4.56799542 56.675287,4.56116305 C55.3169814,0.675197447 51.7488298,-0.561876689 48.9265818,0.225088799 C47.8531627,0.524264051 46.8161342,1.1451821 46.0003607,2.05823598 C45.1845871,1.1451821 44.1477665,0.524264051 43.0741395,0.225088799 C40.2514756,-0.561462606 36.6837399,0.674990406 35.3252264,4.56095601 C35.322939,4.56758134 35.3206516,4.57399963 35.3183641,4.58083201 C34.9047588,5.80362027 33.7749863,8.68998856 32.6156853,11.6264609 C32.1956337,12.6908623 32.72153,13.8925323 33.7903743,14.3107565 C34.8600504,14.7298089 36.0663472,14.2051653 36.4863988,13.141385 C37.8449124,9.69973091 38.8361927,7.15249692 39.2562443,5.91293829 C39.7998161,4.37068469 41.0009143,3.94749146 41.9528927,4.21271187 C42.9450048,4.48931958 43.8370947,5.56655753 43.3704631,7.76099247 L38.5136679,28.5558464 C37.4735202,29.3100993 36.4612373,30.5587678 35.6248771,32.5556849 C33.2166503,38.306061 31.1916687,44.4390501 30.0691742,49.3811354 C29.8158955,50.4966761 30.5187542,51.6049703 31.6387533,51.8573541 C32.7587524,52.1095309 33.8723052,51.409937 34.1255838,50.2946034 C35.1975473,45.5742598 37.1430934,39.6897207 39.4633589,34.1494919 C40.5507104,31.5533961 41.4887565,31.6380761 41.8418494,31.6693394 C42.9705822,31.7703758 43.8065266,32.7741139 43.7052567,33.906632 C43.6100173,34.9726897 43.1937087,38.8576201 42.7909166,42.6148057 C42.3677457,46.5618486 41.9680728,50.2900485 41.8697142,51.3921314 C41.6274567,54.1018931 42.1057333,57.3899223 42.6120827,60.8709144 C44.0797681,70.9617126 45.894516,83.446741 32.3640702,91.7892791 L15.7485323,76.3601178 L23.828496,71.1039502 C24.4446411,70.7029105 24.8021009,70.0076644 24.7684136,69.275565 L24.1622499,56.1383553 C23.7787968,47.8285297 24.1256514,45.5771583 27.0163137,37.6072953 C27.7665842,35.5383276 28.639335,33.206624 29.6842655,30.4788497 C30.0935039,29.4105145 29.5553388,28.2140205 28.4823355,27.8065625 C27.4093323,27.3991044 26.2078183,27.9351354 25.7983719,29.0032635 C24.7447077,31.7542265 23.863639,34.1084976 23.1046347,36.200861 C20.0340988,44.667003 19.6001148,47.4885673 20.0078976,56.3284196 L20.5593713,68.2842494 L12.6160283,73.451389 L11.7815396,72.6764319 C8.95638037,70.0525925 4.5144382,70.2066315 1.87913399,73.019707 C-0.755546377,75.8325755 -0.600834286,80.2554002 2.22432495,82.8788256 L25.10799,104.128757 C26.4561062,105.380738 28.1718716,106 29.8843099,106 C31.7606099,106 33.632543,105.256099 35.0101876,103.785482 C36.2865624,102.422941 36.9536543,100.646937 36.8885671,98.7848039 C36.8365805,97.3017642 36.3239927,95.9063032 35.4264963,94.7574288 C40.5900123,91.3836844 44.0808078,87.215935 45.9997368,82.126022 C47.9186658,87.2161421 51.4092534,91.3836844 56.5727694,94.7574288 C55.6754809,95.9063032 55.1626852,97.3017642 55.1109065,98.7848039 C55.0458193,100.646937 55.7129113,102.422941 56.989286,103.785689 C58.3671386,105.256513 60.2386558,106 62.1151638,106 C63.8273941,106 65.5435754,105.380531 66.8914837,104.128757 L89.7751487,82.8788256 L89.7751487,82.8786185 C92.6009318,80.2547791 92.7556439,75.8321614 90.1207555,73.0190859 Z M31.969388,100.960605 C30.8984643,102.104096 29.093074,102.166209 27.9452101,101.100151 L5.06154507,79.8500126 C3.91347322,78.784162 3.85067342,76.9866259 4.92138922,75.8435487 C5.48118082,75.2456123 6.2418486,74.9435385 7.00459585,74.9435385 C7.70038437,74.9435385 8.39783645,75.1953012 8.94556716,75.7040026 L31.8292322,96.9541412 C32.3854887,97.4705032 32.7063499,98.1717535 32.7327591,98.9282838 C32.7591683,99.6852283 32.4882142,100.406976 31.969388,100.960605 L31.969388,100.960605 Z M42.9920007,27.6639108 L46.0003607,14.7836398 L49.0087206,27.6639108 C47.844221,27.918365 46.8125991,28.4966325 46.0003607,29.2908444 C45.1883301,28.4966325 44.1565003,27.918365 42.9920007,27.6639108 Z M46.0003607,51.9306469 C46.0517234,52.6217521 46.0469406,53.3757979 46.0003607,54.1874014 C45.9539886,53.3757979 45.9489979,52.6217521 46.0003607,51.9306469 Z M49.3884307,60.8707073 C49.8947801,57.3897153 50.3730567,54.1016861 50.1307992,51.3919244 C50.0322326,50.2898414 49.6325597,46.5616416 49.2095968,42.6143917 C48.8068047,38.857413 48.3904961,34.9724826 48.2952567,33.9062179 C48.1939868,32.7736998 49.0299312,31.7701687 50.158664,31.6689253 C50.5123808,31.6378691 51.4500109,31.552982 52.5371545,34.1490778 C54.8574199,39.6895136 56.8029661,45.5740527 57.8749295,50.2941893 C58.1282082,51.4095229 59.241553,52.1089098 60.3617601,51.85694 C61.4819671,51.6045562 62.1846178,50.496262 61.9313392,49.3807213 C60.8088447,44.438636 58.7838631,38.305854 56.3754284,32.5552708 C55.5390681,30.5579396 54.5269932,29.3094782 53.4866375,28.5552253 L48.6300503,7.76099247 C48.1636266,5.56655753 49.0555086,4.48931958 50.0476206,4.21271187 C50.9995991,3.94749146 52.2011131,4.37109877 52.744477,5.91355941 C53.2978222,7.54691135 54.845567,11.4556515 56.8037979,16.4012565 C59.3985525,22.9547474 62.6277515,31.1107409 64.9837838,37.6068812 C67.8744461,45.5767443 68.2210927,47.8281157 67.8376396,56.1379412 L67.231476,69.2751509 C67.1977887,70.0072504 67.5552485,70.7027034 68.1713935,71.1035361 L76.2513572,76.3597037 L59.6360273,91.788865 C46.1059974,83.4465339 47.9207453,70.9612985 49.3884307,60.8707073 L49.3884307,60.8707073 Z M86.9391763,79.8500126 L64.0555112,101.100358 C62.9074394,102.166209 61.102257,102.103682 60.0313333,100.960812 C59.5125071,100.406976 59.241553,99.6852283 59.2679622,98.9284909 C59.2943714,98.1717535 59.6152326,97.4707103 60.1714891,96.9543483 L83.0551542,75.7040026 C83.6028849,75.1953012 84.300337,74.9435385 84.9961255,74.9435385 C85.7586648,74.9435385 86.5193326,75.2460264 87.0791242,75.8435487 C88.1500479,76.9866259 88.0872481,78.784162 86.9391763,79.8500126 L86.9391763,79.8500126 Z" id="Shape" fill="#000000"></path>
            <path d="M30.2123138,22.8376738 C30.4690167,22.9478237 30.7361157,23 30.9988164,23 C31.7745231,23 32.5124442,22.5458065 32.8373213,21.787951 L32.8379211,21.7865516 C33.2727567,20.7718129 32.8025345,19.5971469 31.7875182,19.1623446 C30.7727019,18.7267426 29.5969464,19.1981283 29.1621108,20.212867 C28.7272752,21.2276057 29.1972975,22.4026715 30.2123138,22.8376738 L30.2123138,22.8376738 Z" id="Path" fill="#000000"></path>
        </g>
    </g>
</svg>