<?xml version="1.0" encoding="UTF-8"?>
<svg width="90px" height="90px" viewBox="0 0 90 90" version="1.1" xmlns="http://www.w3.org/2000/svg" xmlns:xlink="http://www.w3.org/1999/xlink">
    <!-- Generator: Sketch 63.1 (92452) - https://sketch.com -->
    <title>تاریخچه‌ی اهدا و پیوند@2x</title>
    <desc>Created with Sketch.</desc>
    <g id="Page-1" stroke="none" stroke-width="1" fill="none" fill-rule="evenodd">
        <g id="تاریخچه‌ی-اهدا-و-پیوند" fill-rule="nonzero">
            <path d="M45.5,2 C39.8034727,2 34.3625191,3.09551249 29.3760718,5.08691402 L27.616068,2.05664054 L20.623023,14.2454268 L34.6747332,14.2067454 L32.9775867,11.2856088 C36.8830268,9.85577835 41.0992997,9.07317073 45.5,9.07317073 C65.6177829,9.07317073 81.9268293,25.3822171 81.9268293,45.5 C81.9268293,65.6177829 65.6177829,81.9268293 45.5,81.9268293 C25.3822171,81.9268293 9.07317073,65.6177829 9.07317073,45.5 L2,45.5 C2,69.5246046 21.4753954,89 45.5,89 C69.5246046,89 89,69.5246046 89,45.5 C89,21.4753954 69.5246046,2 45.5,2 Z" id="Path" fill="#6DD7FF"></path>
            <path d="M74,44.8684211 C74,36.0298623 70.1155768,28.1113794 63.9836098,22.7685548 C60.2689675,20.9943205 56.1202884,20 51.742268,20 C35.8684358,20 23,33.0427374 23,49.1315789 C23,57.9701377 26.8844232,65.8886206 33.0163902,71.2314452 C36.7310325,73.0056795 40.8797116,74 45.257732,74 C61.1315642,74 74,60.9572626 74,44.8684211 Z" id="Path" fill="#ADE5FF"></path>
            <path d="M76.8198394,13.1801606 C68.3205414,4.68086238 57.0197296,0 45,0 C39.7512817,0 34.6261597,0.891952559 29.7420502,2.65388484 L28.7416076,0.931091309 C28.427124,0.390014648 27.8482818,0.0563048438 27.2220611,0.0563048438 C27.2206879,0.0563048438 27.2186279,0.0563048438 27.2172547,0.0563048438 C26.5896606,0.0583648242 26.0101318,0.394821211 25.6977081,0.939331055 L18.746109,13.055191 C18.4336854,13.6003876 18.4357452,14.2705536 18.7509155,14.8130035 C19.0653993,15.3547668 19.6449279,15.68779 20.270462,15.68779 L20.2752686,15.68779 L34.2436982,15.6500244 C34.8719787,15.6479644 35.4515077,15.3115082 35.7639312,14.7669982 C36.076355,14.2224884 36.074295,13.5523223 35.7591248,13.0091857 L35.15831,11.9750977 C38.340912,11.0268403 41.6429902,10.546875 45,10.546875 C63.9974213,10.546875 79.453125,26.0025787 79.453125,45 C79.453125,63.9974213 63.9974213,79.453125 45,79.453125 C26.0025787,79.453125 10.546875,63.9974213 10.546875,45 C10.546875,44.0290832 9.75997934,43.2421875 8.7890625,43.2421875 L1.7578125,43.2421875 C0.786895664,43.2421875 0,44.0290832 0,45 C0,57.0197296 4.68086238,68.3205414 13.1801606,76.8198394 C21.6794586,85.3191376 32.9802704,90 45,90 C57.0197296,90 68.3205414,85.3191376 76.8198394,76.8198394 C85.3191376,68.3205414 90,57.0197296 90,45 C90,32.9802704 85.3191376,21.6794586 76.8198394,13.1801606 Z M45,86.484375 C22.71492,86.484375 4.47692871,68.8197326 3.55270395,46.7578125 L7.07107535,46.7578125 C7.50022893,56.2397003 11.3962554,65.0926209 18.1521606,71.8478394 C25.3234863,79.019165 34.8582459,82.96875 45,82.96875 C55.1417541,82.96875 64.6765137,79.019165 71.8478394,71.8478394 C79.019165,64.6765137 82.96875,55.1417541 82.96875,45 C82.96875,34.8582459 79.019165,25.3234863 71.8478394,18.1521606 C64.6765137,10.980835 55.1417541,7.03125 45,7.03125 C40.5196381,7.03125 36.1278534,7.80715934 31.9475556,9.3376923 C31.4593506,9.51622014 31.0755157,9.90211482 30.8990479,10.3910064 C30.7218934,10.879898 30.7706451,11.4216613 31.032257,11.8714141 L31.1894989,12.1426392 L23.3102417,12.1639252 L27.2309875,5.32974234 L27.4520874,5.70945744 C27.8894805,6.46339412 28.8143921,6.78268441 29.6232606,6.45858773 C34.5142364,4.50576773 39.6874238,3.515625 45,3.515625 C67.8749084,3.515625 86.484375,22.1250916 86.484375,45 C86.484375,67.8749084 67.8749084,86.484375 45,86.484375 Z" id="Shape" fill="#000000"></path>
            <path d="M67.4029742,23.5817465 C66.6242377,22.8046582 65.3663987,22.8069942 64.5861016,23.5833037 C63.8050242,24.3588346 63.8058045,25.6233548 64.5814197,26.4035577 C64.5837607,26.4058935 64.5946847,26.4167946 64.5962454,26.4183518 C64.9856137,26.8061173 65.493587,27 66.002341,27 C66.5126552,27 67.0229694,26.8053387 67.4138984,26.4167946 C68.1949758,25.6412637 68.1941956,24.3767435 67.4185801,23.595762 C67.4162392,23.5942048 67.4053151,23.5833037 67.4029742,23.5817465 Z" id="Path" fill="#000000"></path>
            <path d="M60.7619779,21.2295097 C61.2406318,20.3838316 60.9324287,19.3162915 60.0732172,18.8444922 C54.3022378,15.6767946 47.4974218,14.4045115 40.9117568,15.2597761 C34.1083323,16.1444854 27.9407938,19.1423627 23.0770305,23.9302012 C17.2232606,29.6910831 14,37.3508032 14,45.4980719 C14,53.6453406 17.2232606,61.3050607 23.0770305,67.0659425 C28.9301045,72.8275092 36.7124042,76 44.9900547,76 C53.2677053,76 61.050005,72.8275092 66.903079,67.0659425 C76.9735945,57.1547332 78.9014287,41.8448798 71.5908258,29.8362521 C71.0857346,29.0056388 69.9913705,28.7365282 69.1474648,29.2336637 C68.3035591,29.7314839 68.0294462,30.8079259 68.5352331,31.6385391 C75.0047132,42.2653222 73.2974216,55.8146587 64.3845805,64.587113 C59.2042656,69.6858325 52.3166592,72.4940312 44.9900547,72.4940312 C37.6634503,72.4940312 30.7758438,69.6858325 25.595529,64.587113 C20.415214,59.4883937 17.5620753,52.7092744 17.5620753,45.4980719 C17.5620753,38.2868693 20.415214,31.50775 25.595529,26.4090307 C34.2266042,17.913904 47.6908312,16.0629991 58.3387927,21.9067368 C59.1980042,22.3778514 60.2826282,22.0745029 60.7619779,21.2295097 L60.7619779,21.2295097 Z" id="Path" fill="#000000"></path>
            <path d="M47,24.1818182 L47,22.8181818 C47,21.8139204 46.1039064,21 45,21 C43.8953126,21 43,21.8139204 43,22.8181818 L43,24.1818182 C43,25.1860796 43.8953126,26 45,26 C46.1039064,26 47,25.1860796 47,24.1818182 Z" id="Path" fill="#000000"></path>
            <path d="M43,66.8181818 L43,68.1818182 C43,69.1860796 43.8960936,70 45,70 C46.1046874,70 47,69.1860796 47,68.1818182 L47,66.8181818 C47,65.8139204 46.1046874,65 45,65 C43.8960936,65 43,65.8139204 43,66.8181818 L43,66.8181818 Z" id="Path" fill="#000000"></path>
            <path d="M65,45 C65,46.1039064 65.8139204,47 66.8181818,47 L68.1818182,47 C69.1860796,47 70,46.1039064 70,45 C70,43.8953126 69.1860796,43 68.1818182,43 L66.8181818,43 C65.8139204,43 65,43.8953126 65,45 Z" id="Path" fill="#000000"></path>
            <path d="M22.8181818,43 C21.8139204,43 21,43.8960936 21,45 C21,46.1046874 21.8139204,47 22.8181818,47 L24.1818182,47 C25.1860796,47 26,46.1046874 26,45 C26,43.8960936 25.1860796,43 24.1818182,43 L22.8181818,43 Z" id="Path" fill="#000000"></path>
            <path d="M56,45.2635758 C56,44.3044726 55.2130577,43.5271516 54.2420833,43.5271516 L46.1803872,43.5271516 L33.0008187,30.508718 C32.3148192,29.8304273 31.2017009,29.8304273 30.5150147,30.508718 C29.8283284,31.1863305 29.8283284,32.2858397 30.5150147,32.9641304 L44.2095978,46.4912819 C44.5392072,46.8168614 44.9862398,47 45.4524998,47 L54.2420833,47 C55.2130577,47 56,46.2226789 56,45.2635758 Z" id="Path" fill="#000000"></path>
        </g>
    </g>
</svg>