<?xml version="1.0" encoding="UTF-8"?>
<svg width="86px" height="86px" viewBox="0 0 86 86" version="1.1" xmlns="http://www.w3.org/2000/svg" xmlns:xlink="http://www.w3.org/1999/xlink">
    <!-- Generator: Sketch 63.1 (92452) - https://sketch.com -->
    <title>تخصیص عضو@2x</title>
    <desc>Created with Sketch.</desc>
    <g id="Page-1" stroke="none" stroke-width="1" fill="none" fill-rule="evenodd">
        <g id="تخصیص-عضو">
            <circle id="Oval" fill="#6DD7FF" cx="44.5" cy="42.5" r="35.5"></circle>
            <polygon id="Path" fill="#000000" fill-rule="nonzero" points="86 20 81.1436104 15.1436104 77.2682115 19.0190093 75.3062301 17.0570279 81.1436104 11.2196476 83.2249202 13.3009574 83.2249202 2.77507978 72.6990426 2.77507978 74.7803524 4.85638962 68.9429721 10.6937699 66.9809907 8.73178854 70.8563896 4.85638962 66 0 86 0"></polygon>
            <polygon id="Path" fill="#000000" fill-rule="nonzero" points="86 20 81.1436104 15.1436104 77.2682115 19.0190093 75.3062301 17.0570279 81.1436104 11.2196476 83.2249202 13.3009574 83.2249202 2.77507978 72.6990426 2.77507978 74.7803524 4.85638962 68.9429721 10.6937699 66.9809907 8.73178854 70.8563896 4.85638962 66 0 86 0"></polygon>
            <polygon id="Path" fill="#000000" fill-rule="nonzero" points="0 20 0 0 20 0 15.1436104 4.85638962 19.0190093 8.73178854 17.0570279 10.6937699 11.2196476 4.85638962 13.3009574 2.77507978 2.77507978 2.77507978 2.77507978 13.3009574 4.85638962 11.2196476 10.6937699 17.0570279 8.73178854 19.0190093 4.85638962 15.1436104"></polygon>
            <polygon id="Path" fill="#000000" fill-rule="nonzero" points="20 86 0 86 0 66 4.85638962 70.8563896 8.73178854 66.9809907 10.6937699 68.9429721 4.85638962 74.7803524 2.77507978 72.6990426 2.77507978 83.2249202 13.3009574 83.2249202 11.2196476 81.1436104 17.0570279 75.3062301 19.0190093 77.2682115 15.1436104 81.1436104"></polygon>
            <polygon id="Path" fill="#000000" fill-rule="nonzero" points="86 86 66 86 70.8563896 81.1436104 66.9809907 77.2682115 68.9429721 75.3062301 74.7803524 81.1436104 72.6990426 83.2249202 83.2249202 83.2249202 83.2249202 72.6990426 81.1436104 74.7803524 75.3062301 68.9429721 77.2682115 66.9809907 81.1436104 70.8563896 86 66"></polygon>
            <path d="M43,0 C19.2889677,0 0,19.2889677 0,43 C0,66.7110323 19.2889677,86 43,86 C66.7110323,86 86,66.7110323 86,43 C86,19.2889677 66.7110323,0 43,0 Z M70.7419355,44.3870968 C70.7419355,46.6855161 68.8790645,48.5483871 66.5806452,48.5483871 L65.1935484,48.5483871 L65.1935484,67.9677419 C65.1935484,69.5004839 63.9520968,70.7419355 62.4193548,70.7419355 C60.8866129,70.7419355 59.6451613,69.5004839 59.6451613,67.9677419 C59.6451613,69.5004839 58.4037097,70.7419355 56.8709677,70.7419355 C55.3382258,70.7419355 54.0967742,69.5004839 54.0967742,67.9677419 L54.0967742,47.1612903 C54.0967742,49.4597097 52.2339032,51.3225806 49.9354839,51.3225806 L48.5483871,51.3225806 L48.5483871,70.7419355 C48.5483871,72.2746774 47.3069355,73.516129 45.7741935,73.516129 C44.2414516,73.516129 43,72.2746774 43,70.7419355 C43,72.2746774 41.7585484,73.516129 40.2258065,73.516129 C38.6930645,73.516129 37.4516129,72.2746774 37.4516129,70.7419355 L37.4516129,51.3225806 L36.0645161,51.3225806 C33.7660968,51.3225806 31.9032258,49.4597097 31.9032258,47.1612903 L31.9032258,67.9677419 C31.9032258,69.5004839 30.6617742,70.7419355 29.1290323,70.7419355 C27.5962903,70.7419355 26.3548387,69.5004839 26.3548387,67.9677419 C26.3548387,69.5004839 25.1133871,70.7419355 23.5806452,70.7419355 C22.0479032,70.7419355 20.8064516,69.5004839 20.8064516,67.9677419 L20.8064516,48.5483871 L19.4193548,48.5483871 C17.1209355,48.5483871 15.2580645,46.6855161 15.2580645,44.3870968 L15.2580645,37.4516129 C15.2580645,31.3234194 20.2266452,26.3548387 26.3548387,26.3548387 C22.5250645,26.3548387 19.4193548,23.249129 19.4193548,19.4193548 C19.4193548,15.5895806 22.5250645,12.483871 26.3548387,12.483871 C30.1846129,12.483871 33.2903226,15.5895806 33.2903226,19.4193548 C33.2903226,23.249129 30.1846129,26.3548387 26.3548387,26.3548387 C30.3912903,26.3548387 33.9145161,28.5173226 35.8564516,31.7409355 C37.7872903,30.113871 40.277129,29.1290323 43,29.1290323 C39.1702258,29.1290323 36.0645161,26.0233226 36.0645161,22.1935484 C36.0645161,18.3637742 39.1702258,15.2580645 43,15.2580645 C46.8297742,15.2580645 49.9354839,18.3637742 49.9354839,22.1935484 C49.9354839,26.0233226 46.8297742,29.1290323 43,29.1290323 C45.722871,29.1290323 48.2127097,30.113871 50.1435484,31.7409355 C52.0854839,28.5173226 55.6087097,26.3548387 59.6451613,26.3548387 C55.8153871,26.3548387 52.7096774,23.249129 52.7096774,19.4193548 C52.7096774,15.5895806 55.8153871,12.483871 59.6451613,12.483871 C63.4749355,12.483871 66.5806452,15.5895806 66.5806452,19.4193548 C66.5806452,23.249129 63.4749355,26.3548387 59.6451613,26.3548387 C65.7733548,26.3548387 70.7419355,31.3234194 70.7419355,37.4516129 L70.7419355,44.3870968 Z" id="Shape" fill="#ADE5FF" fill-rule="nonzero"></path>
            <path d="M64.5787619,25.9829565 C66.5659524,24.4566957 67.8571429,22.053913 67.8571429,19.3478261 C67.8571429,14.744 64.141,11 59.5714286,11 C55.0018571,11 51.2857143,14.744 51.2857143,19.3478261 C51.2857143,22.0553043 52.5769048,24.458087 54.5654762,25.9843478 C52.7080952,26.808 51.0661429,28.0810435 49.7887619,29.7408696 C49.2253333,29.3693913 48.6301429,29.0424348 48.0087143,28.7655652 C49.9945238,27.2393043 51.2857143,24.8365217 51.2857143,22.1304348 C51.2857143,17.5266087 47.5695714,13.7826087 43,13.7826087 C38.4304286,13.7826087 34.7142857,17.5266087 34.7142857,22.1304348 C34.7142857,24.8365217 36.0054762,27.2393043 37.9926667,28.7655652 C37.3712381,29.0424348 36.7760476,29.3693913 36.212619,29.7408696 C34.9338571,28.0810435 33.2919048,26.808 31.4359048,25.9843478 C33.4230952,24.458087 34.7142857,22.0553043 34.7142857,19.3478261 C34.7142857,14.744 30.9981429,11 26.4285714,11 C21.859,11 18.1428571,14.744 18.1428571,19.3478261 C18.1428571,22.053913 19.4340476,24.4566957 21.4212381,25.9829565 C17.0560476,27.928 14,32.325913 14,37.4347826 L14,44.3913043 C14,47.4605217 16.4774286,49.9565217 19.5238095,49.9565217 L19.5238095,68.0434783 C19.5238095,70.3446957 21.3825714,72.2173913 23.6666667,72.2173913 C24.731381,72.2173913 25.6939048,71.7986087 26.4285714,71.1321739 C27.1632381,71.8 28.1257619,72.2173913 29.1904762,72.2173913 C31.4745714,72.2173913 33.3333333,70.3446957 33.3333333,68.0434783 L33.3333333,51.9655652 C34.1494762,52.4441739 35.084381,52.7391304 36.0952381,52.7391304 L36.0952381,70.826087 C36.0952381,73.1273043 37.954,75 40.2380952,75 C41.3028095,75 42.2653333,74.5812174 43,73.9147826 C43.7346667,74.5826087 44.6971905,75 45.7619048,75 C48.046,75 49.9047619,73.1273043 49.9047619,70.826087 L49.9047619,52.7391304 C50.915619,52.7391304 51.8505238,52.4441739 52.6666667,51.9655652 L52.6666667,68.0434783 C52.6666667,70.3446957 54.5254286,72.2173913 56.8095238,72.2173913 C57.8742381,72.2173913 58.8367619,71.7986087 59.5714286,71.1321739 C60.3060952,71.8 61.268619,72.2173913 62.3333333,72.2173913 C64.6174286,72.2173913 66.4761905,70.3446957 66.4761905,68.0434783 L66.4761905,49.9565217 C69.5225714,49.9565217 72,47.4605217 72,44.3913043 L72,37.4347826 C72,32.325913 68.9439524,27.928 64.5787619,25.9829565 L64.5787619,25.9829565 Z M54.047619,19.3478261 C54.047619,16.2786087 56.5250476,13.7826087 59.5714286,13.7826087 C62.6178095,13.7826087 65.0952381,16.2786087 65.0952381,19.3478261 C65.0952381,22.4170435 62.6178095,24.9130435 59.5714286,24.9130435 C56.5250476,24.9130435 54.047619,22.4170435 54.047619,19.3478261 L54.047619,19.3478261 Z M37.4761905,22.1304348 C37.4761905,19.0612174 39.953619,16.5652174 43,16.5652174 C46.046381,16.5652174 48.5238095,19.0612174 48.5238095,22.1304348 C48.5238095,25.1996522 46.046381,27.6956522 43,27.6956522 C39.953619,27.6956522 37.4761905,25.1996522 37.4761905,22.1304348 Z M20.9047619,19.3478261 C20.9047619,16.2786087 23.3821905,13.7826087 26.4285714,13.7826087 C29.4749524,13.7826087 31.952381,16.2786087 31.952381,19.3478261 C31.952381,22.4170435 29.4749524,24.9130435 26.4285714,24.9130435 C23.3821905,24.9130435 20.9047619,22.4170435 20.9047619,19.3478261 Z M30.5714286,68.0434783 C30.5714286,68.8114783 29.9527619,69.4347826 29.1904762,69.4347826 C28.4281905,69.4347826 27.8095238,68.8114783 27.8095238,68.0434783 L27.8095238,44.3913043 L25.047619,44.3913043 L25.047619,68.0434783 C25.047619,68.8114783 24.4289524,69.4347826 23.6666667,69.4347826 C22.904381,69.4347826 22.2857143,68.8114783 22.2857143,68.0434783 L22.2857143,33.2608696 L19.5238095,33.2608696 L19.5238095,47.173913 C18.000619,47.173913 16.7619048,45.925913 16.7619048,44.3913043 L16.7619048,37.4347826 C16.7619048,32.0657391 21.0994762,27.6956522 26.4285714,27.6956522 C29.4735714,27.6956522 32.2575714,29.1106087 34.0804286,31.5161739 C31.9137143,33.7714783 30.5714286,36.837913 30.5714286,40.2173913 L30.5714286,47.173913 L30.5714286,68.0434783 Z M49.9047619,49.9565217 L49.9047619,36.0434783 L47.1428571,36.0434783 L47.1428571,70.826087 C47.1428571,71.594087 46.5241905,72.2173913 45.7619048,72.2173913 C44.999619,72.2173913 44.3809524,71.594087 44.3809524,70.826087 L44.3809524,47.173913 L41.6190476,47.173913 L41.6190476,70.826087 C41.6190476,71.594087 41.000381,72.2173913 40.2380952,72.2173913 C39.4758095,72.2173913 38.8571429,71.594087 38.8571429,70.826087 L38.8571429,36.0434783 L36.0952381,36.0434783 L36.0952381,49.9565217 C34.5720476,49.9565217 33.3333333,48.7085217 33.3333333,47.173913 L33.3333333,40.2173913 C33.3333333,34.8483478 37.6709048,30.4782609 43,30.4782609 C48.3290952,30.4782609 52.6666667,34.8483478 52.6666667,40.2173913 L52.6666667,47.173913 C52.6666667,48.7085217 51.4279524,49.9565217 49.9047619,49.9565217 Z M69.2380952,44.3913043 C69.2380952,45.925913 67.999381,47.173913 66.4761905,47.173913 L66.4761905,33.2608696 L63.7142857,33.2608696 L63.7142857,68.0434783 C63.7142857,68.8114783 63.095619,69.4347826 62.3333333,69.4347826 C61.5710476,69.4347826 60.952381,68.8114783 60.952381,68.0434783 L60.952381,44.3913043 L58.1904762,44.3913043 L58.1904762,68.0434783 C58.1904762,68.8114783 57.5718095,69.4347826 56.8095238,69.4347826 C56.0472381,69.4347826 55.4285714,68.8114783 55.4285714,68.0434783 L55.4285714,47.173913 L55.4285714,40.2173913 C55.4285714,36.837913 54.0862857,33.7714783 51.9195714,31.5161739 C53.7424286,29.1106087 56.5264286,27.6956522 59.5714286,27.6956522 C64.9005238,27.6956522 69.2380952,32.0657391 69.2380952,37.4347826 L69.2380952,44.3913043 Z" id="Shape" fill="#000000" fill-rule="nonzero"></path>
        </g>
    </g>
</svg>