<?xml version="1.0" encoding="UTF-8"?>
<svg width="93px" height="93px" viewBox="0 0 93 93" version="1.1" xmlns="http://www.w3.org/2000/svg" xmlns:xlink="http://www.w3.org/1999/xlink">
    <!-- Generator: Sketch 63.1 (92452) - https://sketch.com -->
    <title>فرایند مرگ مغزی@2x</title>
    <desc>Created with Sketch.</desc>
    <g id="Page-1" stroke="none" stroke-width="1" fill="none" fill-rule="evenodd">
        <g id="فرایند-مرگ-مغزی" fill-rule="nonzero">
            <g id="Group" transform="translate(1.800000, 1.800000)" fill="#ADE5FF">
                <path d="M32.80932,0 C25.3422,0 19.28898,6.05646 19.28898,13.52754 C19.28898,13.58802 19.29276,13.6476 19.29348,13.70808 C19.29204,13.70808 5.76864,19.76436 5.76864,27.23544 C5.76864,29.94264 6.56658,32.46192 7.93548,34.57674 C3.25602,36.70398 0,41.41764 0,46.8954 C0,52.11432 2.95578,56.63988 7.28208,58.89582 C6.3171,60.75756 5.76882,62.87022 5.76882,65.1123 C5.76882,70.39494 8.79714,74.96712 13.20984,77.19426 C14.589,83.63754 22.03128,88.56 31.00662,88.56 C36.1998,88.56 40.9905,86.82192 44.28,84.18492 L44.16642,6.19326 C41.75838,2.46798 37.57356,0 32.80932,0 Z" id="Path"></path>
                <path d="M88.56,46.8954 C88.56,41.41764 85.30398,36.70398 80.62452,34.57674 C81.99342,32.46192 82.79136,29.94264 82.79136,27.23544 C82.79136,19.76436 69.27102,13.5882 69.27102,13.52754 C69.27102,6.05646 63.2178,0 55.75068,0 C50.91174,0 46.5552,2.36952 44.16642,6.19326 C44.12952,6.13404 44.2431,84.21498 44.28,84.18492 C47.57472,86.8743 52.30152,88.56 57.55338,88.56 C66.52872,88.56 73.971,83.63754 75.35034,77.19426 C79.76304,74.96712 82.79136,70.39494 82.79136,65.1123 C82.79136,62.87022 82.2429,60.75756 81.27792,58.89582 C85.60422,56.6397 88.56,52.11432 88.56,46.8954 Z M57.2661,13.91166 C59.75514,13.91166 61.77294,15.93054 61.77294,18.42084 C61.77294,20.91114 59.75514,22.93002 57.2661,22.93002 C54.77706,22.93002 52.75926,20.91114 52.75926,18.42084 C52.75926,15.93054 54.77706,13.91166 57.2661,13.91166 Z M51.49746,40.85334 C51.49746,38.36304 53.51526,36.34416 56.0043,36.34416 C58.49334,36.34416 60.51114,38.36304 60.51114,40.85334 C60.51114,43.34364 58.49334,45.36252 56.0043,45.36252 C53.51526,45.36252 51.49746,43.34364 51.49746,40.85334 Z M58.70826,76.38516 C56.21922,76.38516 54.20142,74.36628 54.20142,71.87598 C54.20142,69.38568 56.21922,67.3668 58.70826,67.3668 C61.1973,67.3668 63.2151,69.38568 63.2151,71.87598 C63.2151,74.36646 61.1973,76.38516 58.70826,76.38516 Z M68.80338,60.87402 C66.31434,60.87402 64.29654,58.85514 64.29654,56.36484 C64.29654,53.87454 66.31434,51.85566 68.80338,51.85566 C71.29242,51.85566 73.31022,53.87454 73.31022,56.36484 C73.31022,58.85532 71.29242,60.87402 68.80338,60.87402 Z" id="Shape"></path>
            </g>
            <g id="Group" transform="translate(53.280000, 15.660000)" fill="#6DD7FF">
                <ellipse id="Oval" cx="5.7852" cy="4.5612" rx="4.5072" ry="4.509"></ellipse>
                <ellipse id="Oval" cx="17.3232" cy="42.5052" rx="4.5072" ry="4.509"></ellipse>
                <ellipse id="Oval" cx="4.5234" cy="26.9928" rx="4.5072" ry="4.509"></ellipse>
                <ellipse id="Oval" cx="7.2288" cy="58.0158" rx="4.5072" ry="4.509"></ellipse>
            </g>
            <path d="M92.16,48.69522 C92.16,43.35444 89.35992,38.42406 84.88818,35.65584 C85.87566,33.59808 86.39136,31.34214 86.39136,29.03544 C86.39136,22.39884 78.19668,17.02098 72.83088,14.2119 C72.25794,6.27894 65.6235,0 57.55068,0 C52.9848,0 48.80808,1.8441 45.95256,5.0292 C43.07184,1.84446 38.98404,0 34.60932,0 C29.29842,0 24.27318,2.84886 21.51576,7.38324 C20.2428,9.47664 19.48302,11.86992 19.323,14.31486 C19.3221,14.32908 19.32012,14.34312 19.31922,14.35734 C18.99576,14.52204 18.60354,14.72832 18.12456,14.98698 C16.92018,15.63714 15.1011,16.68978 13.275,18.01206 C8.29422,21.61836 5.76864,25.32708 5.76864,29.03544 C5.76864,31.34214 6.28416,33.59808 7.27164,35.65584 C2.80008,38.42406 0,43.35444 0,48.69522 C0,53.85654 2.56194,58.59378 6.78582,61.42338 C6.11748,63.16938 5.76864,65.03868 5.76864,66.9123 C5.76864,72.44982 8.69364,77.4675 13.45734,80.20188 C15.45948,87.17994 23.42898,92.16 32.80662,92.16 C37.65852,92.16 42.40818,90.73602 46.06992,88.22502 C49.70898,90.7686 54.36666,92.16 59.35338,92.16 C68.73102,92.16 76.7007,87.17994 78.70266,80.20188 C83.46654,77.46768 86.39136,72.44982 86.39136,66.9123 C86.39136,65.03886 86.04252,63.16956 85.37418,61.42338 C89.59806,58.59378 92.16,53.85672 92.16,48.69522 Z M16.76988,78.61752 C16.65594,78.08508 16.30692,77.63274 15.82092,77.3874 C12.9123,75.91932 10.81044,73.37952 9.88884,70.38108 C11.39328,71.13078 13.014,71.5122 14.70438,71.5122 C14.70438,71.5122 14.7096,71.5122 14.70978,71.5122 C17.15886,71.5122 19.67256,70.61472 21.56184,69.06096 C22.3056,68.44932 22.41594,67.26366 21.81114,66.52656 C21.20346,65.78604 20.01546,65.673 19.278,66.27762 C17.973,67.34682 16.3926,67.91202 14.706,67.91202 C12.68766,67.91202 10.80288,67.08348 9.43938,65.62224 C9.59472,64.19214 10.00944,62.8182 10.6803,61.52382 C11.13696,60.64272 10.79424,59.5584 9.9144,59.09958 C6.01938,57.06882 3.6,53.082 3.6,48.69522 C3.6,44.10738 6.30072,39.91518 10.48032,38.01528 C10.95696,37.79856 11.31588,37.3851 11.46294,36.88254 C11.61,36.37998 11.53098,35.83818 11.24658,35.39862 C10.01808,33.5007 9.36864,31.3002 9.36864,29.03544 C9.36864,24.768 15.49206,20.50848 19.57986,18.27774 C20.31966,22.02066 22.44348,25.41528 25.57098,27.7047 C26.3313,28.26126 27.51714,28.0935 28.08684,27.31554 C28.674,26.51328 28.49976,25.38702 27.6975,24.79986 C23.15736,21.47634 21.6063,15.10974 24.129,10.08252 C26.09946,6.1551 30.21264,3.6 34.60932,3.6 C38.42946,3.6 41.96502,5.43942 44.16732,8.54586 L44.1675,8.72748 C44.1603,9.91422 44.15706,12.54744 44.16102,18.4986 L34.14762,18.4986 C33.4197,18.4986 32.76342,18.93708 32.48478,19.60956 C32.20614,20.28204 32.36004,21.05622 32.87448,21.57102 C35.6877,24.38568 35.6877,28.96524 32.87466,31.7799 C30.14568,34.5105 25.39458,34.50222 22.6737,31.7799 C21.97098,31.07682 20.8314,31.07646 20.12814,31.77936 C19.42506,32.48208 19.4247,33.62184 20.1276,34.32492 C20.40552,34.60302 20.69712,34.86258 20.99862,35.10612 L16.4412,39.78648 C13.9914,42.2469 13.99428,46.24254 16.44984,48.69936 C18.85752,51.10848 22.97304,51.09768 25.36992,48.69954 C26.07264,47.99628 26.07228,46.8567 25.3692,46.15398 C24.66576,45.45126 23.52654,45.45144 22.82382,46.15434 C21.83256,47.14596 20.02068,47.17962 18.9963,46.1547 C17.94042,45.09828 17.94042,43.37928 18.9963,42.32268 C19.0017,42.3171 19.00728,42.31152 19.01268,42.30594 C19.01268,42.30594 24.26472,36.91224 24.26526,36.91152 C24.32646,36.8487 26.14824,37.37448 26.3772,37.40418 C29.6883,37.83258 33.06276,36.68418 35.42076,34.32492 C38.71962,31.02426 39.43692,26.10378 37.57284,22.0986 L44.16408,22.0986 C44.16822,26.70228 44.1756,32.79258 44.18694,40.85334 L39.78,40.85334 L39.78,40.39848 C39.78,39.40434 38.97414,38.59848 37.98,38.59848 C36.98586,38.59848 36.18,39.40434 36.18,40.39848 L36.18,44.90766 C36.18,45.9018 36.98586,46.70766 37.98,46.70766 C38.97414,46.70766 39.78,45.9018 39.78,44.90766 L39.78,44.45352 L44.19198,44.45352 C44.19324,45.30474 44.20512,53.3196 44.20998,56.36502 L39.17178,56.36502 C38.86722,55.52514 38.38032,54.73728 37.7082,54.0648 C36.51696,52.87284 34.93314,52.21656 33.24834,52.21656 C31.56354,52.21656 29.97954,52.87284 28.7883,54.0648 C28.08558,54.76806 28.08594,55.90764 28.78902,56.61054 C29.49228,57.31308 30.63168,57.3129 31.33458,56.61 C33.7248,54.2196 37.6425,57.96018 35.16192,60.44184 C34.4592,61.14492 34.45938,62.28468 35.16246,62.9874 C35.84052,63.6651 37.01232,63.68292 37.70802,62.98686 C38.5695,62.12484 39.12804,61.07328 39.38562,59.9652 L44.21574,59.9652 C44.22276,64.11114 44.22978,68.03586 44.2368,71.52084 L30.11472,71.52084 C29.63718,71.52084 29.17926,71.71056 28.84158,72.04842 C26.38314,74.50812 26.38314,78.51024 28.8414,80.97012 C31.23036,83.3607 35.38566,83.34738 37.7613,80.9703 C38.46402,80.26704 38.46384,79.12746 37.76076,78.42474 C37.0575,77.72202 35.91828,77.7222 35.21556,78.42492 C34.20342,79.43724 32.3937,79.43166 31.38786,78.42528 C30.4938,77.53068 30.35664,76.16106 30.97692,75.12084 L44.24436,75.12084 C44.25102,78.19488 44.26938,84.52566 44.27226,85.09662 C41.1777,87.30558 37.05156,88.56 32.80662,88.56 C24.87744,88.56 17.98308,84.28572 16.76988,78.61752 Z M82.24578,59.09976 C81.36594,59.55858 81.02322,60.6429 81.47988,61.524 C82.35,63.20322 82.79136,65.01618 82.79136,66.91248 C82.79136,71.36496 80.31906,75.37878 76.33926,77.38758 C75.85308,77.63292 75.50424,78.08526 75.3903,78.6177 C74.17692,84.28572 67.28256,88.56 59.35338,88.56 C55.05192,88.56 50.92218,87.30612 47.87874,85.0986 L47.86416,75.12066 L54.37026,75.12066 C55.0251,77.90544 57.52764,79.98534 60.50826,79.98534 C63.98586,79.98534 66.8151,77.15502 66.8151,73.67616 C66.8151,70.1973 63.98586,67.36698 60.50826,67.36698 C57.7872,67.36698 55.46322,69.10002 54.58086,71.52066 L47.85894,71.52066 L47.8422,59.96502 L64.5597,59.96502 C65.33622,62.56944 67.7511,64.4742 70.60356,64.4742 C74.08116,64.4742 76.9104,61.64388 76.9104,58.16502 C76.9104,54.68616 74.08116,51.85584 70.60356,51.85584 C67.7511,51.85584 65.33622,53.7606 64.5597,56.36502 L47.8368,56.36502 L47.81952,44.45352 L51.76026,44.45352 C52.53678,47.05794 54.95166,48.9627 57.80412,48.9627 C61.28172,48.9627 64.11096,46.13238 64.11096,42.65352 C64.11096,39.17466 61.28172,36.34434 57.80412,36.34434 C54.95166,36.34434 52.53678,38.2491 51.76026,40.85352 L47.8143,40.85352 L47.78694,22.09878 L53.04456,22.09878 C53.84538,24.66342 56.2419,26.5302 59.0661,26.5302 C62.5437,26.5302 65.37294,23.69988 65.37294,20.22102 C65.37294,16.74216 62.5437,13.91184 59.0661,13.91184 C56.18538,13.91184 53.75142,15.85458 53.0001,18.49878 L47.78172,18.49878 L47.76714,8.53002 C49.90356,5.4333 53.52228,3.6 57.55068,3.6 C64.01322,3.6 69.27102,8.86104 69.27102,15.32754 C69.27102,16.4385 70.14546,16.88148 70.51878,17.07066 C78.20334,20.96316 82.79118,25.43598 82.79136,29.03544 C82.79154,33.5178 79.85502,38.7936 74.9412,38.95218 C74.4606,38.96658 74.0142,39.16818 73.6848,39.51918 C73.3554,39.86838 73.1826,40.32738 73.1988,40.80798 C73.2132,41.27778 73.4076,41.71698 73.746,42.04458 C74.0826,42.37218 74.5272,42.55218 74.997,42.55218 L75.0024,42.55218 C75.0186,42.55218 75.03642,42.55218 75.05262,42.55038 C78.06168,42.21126 80.9856,41.07546 82.97928,38.71044 C86.4099,40.82688 88.56,44.60292 88.56,48.69522 C88.56,53.082 86.14062,57.06882 82.24578,59.09976 Z M60.50826,70.96698 C62.00082,70.96698 63.2151,72.18234 63.2151,73.67616 C63.2151,75.16998 62.00082,76.38534 60.50826,76.38534 C59.0157,76.38534 57.80142,75.16998 57.80142,73.67616 C57.80142,72.18234 59.0157,70.96698 60.50826,70.96698 Z M67.89672,58.16484 C67.89672,56.67102 69.111,55.45566 70.60356,55.45566 C72.09612,55.45566 73.3104,56.67102 73.3104,58.16484 C73.3104,59.65866 72.09612,60.87402 70.60356,60.87402 C69.111,60.87402 67.89672,59.65884 67.89672,58.16484 Z M55.09746,42.65334 C55.09746,41.15952 56.31174,39.94416 57.8043,39.94416 C59.29686,39.94416 60.51114,41.15952 60.51114,42.65334 C60.51114,44.14716 59.29686,45.36252 57.8043,45.36252 C56.31174,45.36252 55.09746,44.14716 55.09746,42.65334 Z M56.35926,20.22084 C56.35926,18.72702 57.57354,17.51166 59.0661,17.51166 C60.55866,17.51166 61.77294,18.72702 61.77294,20.22084 C61.77294,21.71466 60.55866,22.93002 59.0661,22.93002 C57.57354,22.93002 56.35926,21.71466 56.35926,20.22084 Z" id="Shape" fill="#000000"></path>
            <path d="M23.8392,59.6754 C23.3388,59.6322 22.842,59.8014 22.4712,60.1398 C22.1364,60.4458 21.9312,60.8634 21.8934,61.3152 C21.852,61.7958 21.9996,62.262 22.311,62.6292 C22.6206,62.9964 23.0544,63.2214 23.5332,63.2628 C23.5854,63.2664 23.6358,63.2682 23.688,63.2682 C24.138,63.2682 24.5682,63.1008 24.9012,62.7966 C25.236,62.4906 25.4412,62.073 25.4808,61.6212 C25.4808,61.6194 25.4808,61.6194 25.479,61.6194 C25.5618,60.6312 24.8274,59.7582 23.8392,59.6754 Z" id="Path" fill="#000000"></path>
            <path d="M69.7086,36.9324 C69.372,36.6066 68.9274,36.4284 68.4594,36.4284 C67.9662,36.4284 67.5054,36.6228 67.1634,36.9774 C66.8304,37.323 66.6504,37.7784 66.6594,38.259 C66.6666,38.7396 66.861,39.1878 67.2066,39.5208 C67.2066,39.5208 67.2066,39.5226 67.2084,39.5226 C67.545,39.8484 67.9896,40.0284 68.4576,40.0284 C68.9508,40.0284 69.4116,39.8322 69.7536,39.4776 C70.4412,38.7648 70.4232,37.6254 69.7104,36.9342 C69.7104,36.9342 69.7104,36.9342 69.7086,36.9324 Z" id="Path" fill="#000000"></path>
        </g>
    </g>
</svg>