<?xml version="1.0" encoding="UTF-8"?>
<svg width="112px" height="103px" viewBox="0 0 112 103" version="1.1" xmlns="http://www.w3.org/2000/svg" xmlns:xlink="http://www.w3.org/1999/xlink">
    <!-- Generator: Sketch 63.1 (92452) - https://sketch.com -->
    <title>مروری بر اهدای عضو@2x</title>
    <desc>Created with Sketch.</desc>
    <g id="Page-1" stroke="none" stroke-width="1" fill="none" fill-rule="evenodd">
        <g id="مروری-بر-اهدای-عضو" fill-rule="nonzero">
            <path d="M79.2220625,0 C70.7365312,0 62.3564375,3.28465465 56.0021875,8.95645502 C49.6455312,3.28531232 41.264125,0 32.7816562,0 C14.399,0 0,14.4302948 0,32.8515886 C0,55.2842694 15.7187188,69.1125712 39.5119375,90.0442154 C41.5592187,91.8453716 43.672125,93.7046225 45.8465,95.6309563 C45.8591875,95.6421368 45.8720937,95.6533173 45.885,95.6647171 L53.1129375,101.922507 C53.9426562,102.641128 54.97275,103 56.0030625,103 C57.0331563,103 58.06325,102.640909 58.8931875,101.922507 L66.121125,95.6647171 C66.1340313,95.6535366 66.1471563,95.6423561 66.1600625,95.6307371 C80.444,82.9704684 91.1520313,73.2800467 98.879375,63.8531339 C107.830625,52.9326382 112,43.081305 112,32.8515886 C112,14.4302948 97.6020937,0 79.2220625,0 Z" id="Path" fill="#ADE5FF"></path>
            <path d="M79.2219345,0 C70.7363701,0 62.3562436,3.28464765 56.0019688,8.95643596 C56.0010938,8.95577828 56,8.95533983 56,8.95468216 L56,103 C56.0010938,103 56.00175,103 56.0028438,103 C57.0329415,103 58.0630393,102.64091 58.8929801,101.922509 L66.1209458,95.6647327 C66.1338521,95.6535522 66.1469771,95.6423717 66.1598834,95.6307528 C80.4438767,82.970511 91.1519498,73.2801099 98.8793237,63.8532172 C107.830609,52.9325255 112,43.0812133 112,32.8515187 C112,14.4302641 97.6020375,0 79.2219345,0 Z" id="Path" fill="#6DD7FF"></path>
            <polygon id="Path" fill="#FFFFFF" points="63.3332608 41.6667392 63.3332608 27 48.6667392 27 48.6667392 41.6667392 34 41.6667392 34 56.3332608 48.6667392 56.3332608 48.6667392 71 63.3332608 71 63.3332608 56.3332608 78 56.3332608 78 41.6667392"></polygon>
        </g>
    </g>
</svg>