<svg xmlns="http://www.w3.org/2000/svg" width="35" height="25" viewBox="0 0 35 25">
    <g fill="#118FF8">
        <path d="M23.814 8.177l-8.362 7.353-.032.03c-.27.27-.42.628-.42 1.011 0 .788.64 1.429 1.429 1.429.379 0 .738-.148 1.042-.452l7.352-8.363c.248-.282.234-.71-.032-.976-.267-.266-.692-.28-.977-.032z" transform="translate(1 1)"/>
        <path stroke="#008CFB" d="M16.5 0C7.401 0 0 7.738 0 17.25c0 1.784.265 3.55.784 5.25.092.298.356.5.655.5h30.122c.299 0 .564-.202.655-.5.52-1.7.784-3.466.784-5.25C33 7.738 25.599 0 16.5 0zm13.063 17.969h2.014c-.053 1.215-.208 2.422-.527 3.593H1.95c-.319-1.171-.474-2.378-.527-3.593h2.014c.38 0 .688-.322.688-.719 0-.397-.308-.719-.688-.719H1.41c.102-2.353.688-4.573 1.672-6.55l1.761 1.063c.11.066.227.097.344.097.236 0 .469-.129.595-.36.19-.344.078-.783-.251-.982L3.774 8.74c1.18-1.924 2.745-3.56 4.585-4.794l1.015 1.838c.126.23.358.36.595.36.116 0 .235-.032.343-.097.33-.198.442-.638.251-.982L9.547 3.223c1.891-1.03 4.015-1.643 6.265-1.75v2.12c0 .398.308.72.688.72.38 0 .687-.322.687-.72v-2.12c2.251.107 4.375.72 6.266 1.75l-1.017 1.841c-.19.344-.077.784.252.982.108.065.226.096.343.096.237 0 .469-.129.595-.359l1.015-1.838c1.84 1.234 3.404 2.87 4.585 4.793L27.47 9.8c-.329.199-.442.638-.251.982.126.231.359.36.595.36.117 0 .235-.031.344-.097l1.76-1.063c.985 1.977 1.571 4.197 1.673 6.55h-2.028c-.38 0-.687.322-.687.719 0 .397.308.719.688.719z" transform="translate(1 1)"/>
    </g>
</svg>
