<svg xmlns="http://www.w3.org/2000/svg" width="46" height="59" viewBox="0 0 46 59">
    <g fill="#FFF" fill-rule="evenodd">
        <path d="M23.98 20.503v38.098h1.486V20.885c1.39-2.854 4.403-4.076 6.727-4.143 5.408-.156 6.395-1.555 7.657-2.576 3.75-3.894.234-6.43 5.337-10.408.566-.603.85-1.136.75-1.929-.075-.597-.502-1.653-1.955-1.762-13.65-1.024-20.375 9.921-19.987 20.436h-.014zM21.977 27.685v31.098h-1.485V28.067c-1.39-2.854-4.403-4.076-6.728-4.143-5.407-.156-6.395-1.555-7.657-2.576-3.75-3.894-.233-6.43-5.336-10.408-.567-.603-.852-1.136-.751-1.929.075-.597.502-1.653 1.956-1.762 13.65-1.024 20.375 9.921 19.987 20.436h.014z"/>
    </g>
</svg>
