<svg xmlns="http://www.w3.org/2000/svg" width="27" height="27" viewBox="0 0 27 27">
    <g fill="#118FF8">
        <path d="M13.846 24.75H3.462c-.637 0-1.154-.504-1.154-1.125V3.375c0-.621.517-1.125 1.154-1.125h10.384c.638 0 1.154-.503 1.154-1.125S14.484 0 13.846 0H3.462C1.553 0 0 1.514 0 3.375v20.25C0 25.485 1.553 27 3.462 27h10.384c.638 0 1.154-.503 1.154-1.125s-.516-1.125-1.154-1.125z"/>
        <path d="M26.666 12.186L19.86 5.33c-.438-.443-1.148-.438-1.582.011-.435.45-.43 1.173.01 1.616l4.865 4.901H10.119C9.5 11.857 9 12.367 9 13c0 .632.5 1.143 1.12 1.143h13.033l-4.864 4.9c-.441.444-.445 1.167-.011 1.616.219.227.508.341.797.341.284 0 .568-.11.785-.33l6.806-6.856c.213-.215.334-.508.334-.814 0-.306-.12-.598-.334-.814z"/>
    </g>
</svg>
