<svg xmlns="http://www.w3.org/2000/svg" width="28" height="28" viewBox="0 0 28 28">
    <g fill="#008CFB">
        <path d="M9.739 0H3.26C1.463 0 0 1.463 0 3.261V9.74C0 11.537 1.463 13 3.261 13H9.74C11.537 13 13 11.537 13 9.739V3.26C13 1.463 11.537 0 9.739 0zm1.058 9.739c0 .583-.475 1.058-1.058 1.058H3.26c-.583 0-1.058-.475-1.058-1.058V3.26c0-.583.475-1.058 1.058-1.058H9.74c.583 0 1.058.475 1.058 1.058V9.74zM24.695 0h-6.39C16.483 0 15 1.483 15 3.305v6.39C15 11.517 16.483 13 18.305 13h6.39C26.517 13 28 11.517 28 9.695v-6.39C28 1.483 26.517 0 24.695 0zm1.102 9.695c0 .607-.495 1.102-1.102 1.102h-6.39c-.607 0-1.102-.495-1.102-1.102v-6.39c0-.607.495-1.102 1.102-1.102h6.39c.607 0 1.102.495 1.102 1.102v6.39zM9.739 15H3.26C1.463 15 0 16.463 0 18.261v6.478C0 26.537 1.463 28 3.261 28H9.74C11.537 28 13 26.537 13 24.739V18.26C13 16.463 11.537 15 9.739 15zm1.058 9.739c0 .583-.475 1.058-1.058 1.058H3.26c-.583 0-1.058-.475-1.058-1.058V18.26c0-.583.475-1.058 1.058-1.058H9.74c.583 0 1.058.475 1.058 1.058v6.478zM24.695 15h-6.39C16.483 15 15 16.483 15 18.305v6.39C15 26.517 16.483 28 18.305 28h6.39C26.517 28 28 26.517 28 24.695v-6.39C28 16.483 26.517 15 24.695 15zm1.102 9.695c0 .607-.495 1.102-1.102 1.102h-6.39c-.607 0-1.102-.495-1.102-1.102v-6.39c0-.607.495-1.102 1.102-1.102h6.39c.607 0 1.102.495 1.102 1.102v6.39z"/>
    </g>
</svg>
