<svg xmlns="http://www.w3.org/2000/svg" width="30" height="30" viewBox="0 0 30 30">
    <path fill="#6DD400" d="M25.705 1.169c-1.56-1.559-4.09-1.559-5.65 0L18.64 2.591 3.583 17.642l-.032.032c-.008.008-.008.016-.016.016-.016.024-.04.048-.056.072 0 .008-.008.008-.008.016l-.04.064c-.008.008-.008.016-.016.024l-.024.064c0 .008-.008.008-.008.016L.043 27.993c-.098.286-.024.603.191.815.152.15.356.233.568.232.087-.002.173-.015.256-.04l10.038-3.35c.007 0 .007 0 .016-.007.025-.007.05-.018.071-.032.007 0 .012-.004.017-.008.023-.016.055-.032.08-.048.023-.016.047-.04.071-.056.008-.008.016-.008.016-.016.008-.008.024-.016.032-.032L27.871 8.978c1.559-1.561 1.559-4.09 0-5.651l-2.166-2.158zM10.84 23.773L5.277 18.21 19.2 4.286l5.562 5.563L10.84 23.773zm-6.346-4.085l4.86 4.86-7.297 2.43 2.437-7.29zm22.25-11.83l-.847.856-5.563-5.563.856-.855c.936-.935 2.452-.935 3.388 0l2.174 2.174c.929.94.925 2.453-.008 3.389z"/>
</svg>
