<svg xmlns="http://www.w3.org/2000/svg" width="23" height="28" viewBox="0 0 23 28">
    <g fill="#E02020">
        <path d="M15.5 10c-.276 0-.5.3-.5.67v12.66c0 .37.224.67.5.67s.5-.3.5-.67V10.67c0-.37-.224-.67-.5-.67zM7.5 10c-.276 0-.5.3-.5.67v12.66c0 .37.224.67.5.67s.5-.3.5-.67V10.67c0-.37-.224-.67-.5-.67z"/>
        <path d="M1.884 8.336v16.156c0 .955.354 1.852.972 2.495.616.645 1.473 1.011 2.37 1.013h12.548c.897-.002 1.754-.368 2.37-1.013.618-.643.972-1.54.972-2.495V8.336c1.23-.323 2.027-1.498 1.863-2.745-.165-1.248-1.24-2.18-2.513-2.181h-3.395v-.82c.004-.689-.272-1.35-.765-1.838-.494-.486-1.164-.757-1.861-.752h-5.89c-.697-.005-1.367.266-1.86.752-.494.487-.77 1.149-.766 1.838v.82H2.534C1.26 3.41.186 4.343.02 5.59c-.164 1.248.633 2.423 1.863 2.746zm15.89 18.353H5.226c-1.134 0-2.016-.964-2.016-2.197V8.394h16.58v16.098c0 1.233-.882 2.197-2.016 2.197zM7.256 2.59c-.005-.341.13-.67.376-.91.245-.242.578-.374.923-.368h5.89c.345-.006.678.126.923.367s.38.57.376.911v.82H7.256v-.82zM2.534 4.721h17.932c.66 0 1.194.529 1.194 1.18 0 .653-.534 1.181-1.194 1.181H2.534c-.66 0-1.194-.528-1.194-1.18 0-.652.534-1.18 1.194-1.18z"/>
        <path d="M11.5 10c-.276 0-.5.3-.5.67v12.66c0 .37.224.67.5.67s.5-.3.5-.67V10.67c0-.37-.224-.67-.5-.67z"/>
    </g>
</svg>
