<svg xmlns="http://www.w3.org/2000/svg" width="20" height="21" viewBox="0 0 20 21">
    <g fill="#1D87F0" fill-rule="nonzero">
        <path d="M17.965 2.214a1.82 1.82 0 0 0-.126-.001h-1.573V.86C16.266.32 15.75 0 15.209 0h-1.45c-.542 0-.935.32-.935.86v1.353h-5.9V.86C6.923.32 6.53 0 5.988 0H4.54C3.998 0 3.48.32 3.48.86v1.353H1.908A1.82 1.82 0 0 0 .039 4.106v14.21c0 1.082.787 2.09 1.869 2.09H17.84c1.081 0 1.868-1.008 1.868-2.09V4.106a1.82 1.82 0 0 0-1.743-1.892zM13.758.984h1.525v2.704h-1.525V.983zm-9.22 0H5.94v2.704H4.539V.983zm14.187 17.332c0 .541-.345 1.107-.885 1.107H1.908c-.541 0-.885-.566-.885-1.107V7.867h17.702v10.45zm0-14.21v2.778H1.023V4.106a.836.836 0 0 1 .885-.91H3.48v.541c0 .541.517.934 1.058.934h1.45a.91.91 0 0 0 .934-.934v-.54h5.901v.54a.91.91 0 0 0 .934.934h1.45c.542 0 1.058-.393 1.058-.934v-.54h1.574a.836.836 0 0 1 .885.909z"/>
        <path d="M7.145 14.58l-.443 2.458a.492.492 0 0 0 .713.516L9.628 16.4l2.213 1.155.22.05a.467.467 0 0 0 .296-.099.492.492 0 0 0 .197-.467l-.443-2.459 1.795-1.72a.54.54 0 0 0 .123-.517.516.516 0 0 0-.394-.32l-2.458-.368-1.107-2.238a.491.491 0 0 0-.885 0L8.08 11.654l-2.459.368a.516.516 0 0 0-.393.32.54.54 0 0 0 .123.516l1.795 1.721zm1.352-1.992a.442.442 0 0 0 .344-.27l.787-1.574.787 1.574c.059.144.19.247.344.27l1.745.246-1.254 1.204a.516.516 0 0 0-.147.443l.295 1.746-1.549-.836-.221-.05-.222.05-1.548.836.295-1.746a.516.516 0 0 0-.148-.443l-1.254-1.204 1.746-.246z"/>
    </g>
</svg>
