<svg xmlns="http://www.w3.org/2000/svg" width="24" height="24" viewBox="0 0 24 24">
    <path fill="#8CA0B3" stroke="#FFF" d="M21.551 1H2.434C1.644 1 1 1.643 1 2.434V21.55c0 .79.643 1.434 1.434 1.434H21.55c.79 0 1.434-.643 1.434-1.434V2.434c0-.79-.643-1.434-1.434-1.434zM11.375 13.287l-5.876 5.875h4.582c.264 0 .478.214.478.478 0 .263-.214.477-.478.477H4.346c-.063 0-.125-.012-.183-.036-.117-.049-.21-.141-.259-.259-.024-.058-.036-.12-.036-.182v-5.736c0-.264.214-.478.478-.478.263 0 .477.214.477.478v4.582l5.875-5.875c.187-.186.49-.186.676 0 .186.186.187.488.001.676zm8.742-3.206c0 .264-.214.478-.477.478-.264 0-.478-.214-.478-.478V5.499l-5.875 5.875c-.094.094-.216.14-.339.14-.122 0-.244-.046-.338-.139-.186-.186-.186-.49 0-.676l5.876-5.876h-4.582c-.264 0-.478-.214-.478-.477 0-.264.214-.478.478-.478h5.736c.062 0 .124.012.182.036.117.049.21.141.26.259.023.058.035.12.035.183v5.735z"/>
</svg>
