<svg xmlns="http://www.w3.org/2000/svg" width="20" height="18" viewBox="0 0 20 18">
    <path fill="#DF4D60" fill-rule="nonzero" d="M18.413 1.762a5.35 5.35 0 0 0-4-1.762c-1.154 0-2.212.37-3.143 1.097-.47.368-.895.818-1.27 1.342a6.468 6.468 0 0 0-1.27-1.342C7.798.37 6.74 0 5.586 0a5.35 5.35 0 0 0-4 1.762C.563 2.884 0 4.418 0 6.08c0 1.711.63 3.278 1.984 4.93 1.21 1.477 2.95 2.977 4.965 4.714.688.593 1.468 1.266 2.278 1.982a1.165 1.165 0 0 0 1.546 0c.81-.716 1.59-1.389 2.278-1.982 2.015-1.737 3.755-3.237 4.966-4.715C19.37 9.358 20 7.791 20 6.08c0-1.662-.564-3.196-1.587-4.318z"/>
</svg>
