<svg xmlns="http://www.w3.org/2000/svg" width="34" height="31" viewBox="0 0 34 31">
    <defs>
        <linearGradient id="a" x1="50%" x2="50%" y1="0%" y2="100%">
            <stop offset="0%" stop-color="#F5515F"/>
            <stop offset="100%" stop-color="#9F041B"/>
        </linearGradient>
    </defs>
    <path fill="url(#a)" d="M1118.079 2401.294a1.285 1.285 0 0 1 0 1.828 1.312 1.312 0 0 1-.925.378 1.308 1.308 0 0 1-1.308-1.292c0-.339.141-.671.386-.914.242-.238.579-.377.922-.377.346 0 .683.139.925.377m1.687-3.09c.056.735-.588 1.37-1.44 1.418a1.865 1.865 0 0 1-.103.003c-.807 0-1.487-.54-1.54-1.245-.166-2.16-1.803-2.515-2.13-2.564-.845-.1-1.423-.77-1.308-1.5.117-.729.909-1.235 1.754-1.137 1.53.18 4.494 1.464 4.767 5.025m4.344-4.248c-1.613-3.618-5.02-5.956-8.681-5.956-3.658 0-6.031 1.618-7.43 3.37-1.397-1.752-3.77-3.37-7.428-3.37-3.66 0-7.068 2.338-8.68 5.956-1.68 3.768-.956 7.965 1.938 11.227 6.93 7.815 13.054 13.356 13.115 13.41a1.573 1.573 0 0 0 2.112 0c.06-.054 6.185-5.595 13.115-13.41 2.893-3.262 3.618-7.459 1.939-11.227" transform="translate(-1091 -2388)"/>
</svg>
