<svg xmlns="http://www.w3.org/2000/svg" viewBox="0 0 512 512">
<path style="fill:#44bce7;" d="M256,0C150.112,0,64,86.112,64,192c0,133.088,173.312,307.936,180.672,315.328
	C247.808,510.432,251.904,512,256,512c4.096,0,8.192-1.568,11.328-4.672C274.688,499.936,448,325.088,448,192
	C448,86.112,361.888,0,256,0z"/>
<path style="fill:#FAFAFA;" d="M346.016,163.488l-80-64c-5.856-4.672-14.144-4.672-20,0l-80,64
	c-5.312,4.256-7.36,11.392-5.12,17.824S169.216,192,176,192h16v80c0,8.832,7.168,16,16,16h96c8.832,0,16-7.168,16-16v-80h16
	c6.784,0,12.832-4.288,15.104-10.688S351.328,167.744,346.016,163.488z"/>
</svg>
