<svg xmlns="http://www.w3.org/2000/svg" viewBox="0 0 14 15">
    <path fill="#788B90" d="M3.87 9.26h5.671a.639.639 0 0 0 0-1.277H3.87a.639.639 0 0 0 0 1.277m2.31-6.865h1.052a.639.639 0 0 0 0-1.277H6.179a.639.639 0 0 0 0 1.277m6.594-1.277H11.44a.639.639 0 0 0 0 1.277h.694v10.857H1.277V2.395h.694a.639.639 0 0 0 0-1.277H.64c-.353 0-.639.343-.639.696V13.89c0 .353.286.639.639.639h12.134a.639.639 0 0 0 .638-.639V1.814c0-.353-.286-.696-.638-.696M3.87 6.386h5.671a.639.639 0 0 0 0-1.277H3.87a.639.639 0 0 0 0 1.277M9.26 3.64c.441 0 .799-.358.799-.799V.798a.798.798 0 0 0-1.597 0V2.84c0 .441.357.799.798.799M3.353 2.84V.798a.798.798 0 0 1 1.596 0V2.84a.798.798 0 0 1-1.596 0"/>
</svg>
