<svg xmlns="http://www.w3.org/2000/svg" width="20" height="19" viewBox="0 0 20 19">
    <g fill="#1D87F0" fill-rule="nonzero">
        <path d="M18.972 0H4.354a1.01 1.01 0 0 0-1.009 1.009v1.53H1.01A1.01 1.01 0 0 0 0 3.548v12.977c0 1.079.874 1.957 1.951 1.965H12.32a.293.293 0 1 0 0-.585H3.363c.35-.355.567-.843.567-1.38V9.681a.293.293 0 0 0-.585 0v6.844c0 .758-.615 1.376-1.372 1.38h-.008c-.76 0-1.38-.62-1.38-1.38V3.548c0-.233.19-.423.424-.423h2.336v5.463a.293.293 0 1 0 .585 0v-7.58c0-.233.19-.423.424-.423h14.618c.233 0 .423.19.423.424v15.516c0 .761-.619 1.38-1.38 1.38h-4.604a.293.293 0 1 0 0 .585h4.604a1.967 1.967 0 0 0 1.965-1.965V1.01A1.01 1.01 0 0 0 18.972 0z"/>
        <path d="M6.412 11.679h4.015c.382 0 .692-.311.692-.693V6.972a.693.693 0 0 0-.692-.693H6.412a.693.693 0 0 0-.692.693v4.014c0 .382.31.693.692.693zm-.107-4.707c0-.06.048-.107.107-.107h4.015c.059 0 .107.048.107.107v4.014a.107.107 0 0 1-.107.107H6.412a.107.107 0 0 1-.107-.107V6.972zM12.183 6.865h5.432a.293.293 0 1 0 0-.586h-5.432a.293.293 0 1 0 0 .586zM12.183 9.272h5.432a.293.293 0 0 0 0-.586h-5.432a.293.293 0 1 0 0 .586zM12.183 11.679h5.432a.293.293 0 0 0 0-.586h-5.432a.293.293 0 1 0 0 .586zM6.013 14.085h11.602a.293.293 0 1 0 0-.585H6.013a.293.293 0 0 0 0 .585zM6.013 16.492h11.602a.293.293 0 1 0 0-.585H6.013a.293.293 0 1 0 0 .585zM5.727 4.782V1.689c0-.064.03-.112.091-.145a.447.447 0 0 1 .22-.05c.114 0 .2.02.261.061.06.042.127.13.2.267L7.42 3.6V1.684c0-.063.03-.111.09-.143a.466.466 0 0 1 .22-.048c.086 0 .159.016.22.048.06.032.09.08.09.143v3.098c0 .06-.031.108-.093.143a.432.432 0 0 1-.217.052c-.168 0-.288-.065-.358-.195L6.347 2.866v1.916c0 .06-.031.108-.093.143a.433.433 0 0 1-.217.052.429.429 0 0 1-.219-.052c-.06-.035-.09-.083-.09-.143zM8.61 4.782V1.689c0-.06.028-.108.082-.143a.343.343 0 0 1 .19-.053h1.697a.16.16 0 0 1 .145.082c.033.054.05.116.05.185a.352.352 0 0 1-.052.196.162.162 0 0 1-.143.08H9.23v.954h.724c.06 0 .108.024.143.074.035.049.053.107.053.174 0 .06-.017.115-.05.164a.164.164 0 0 1-.146.074H9.23v.958h1.349c.06 0 .108.027.143.08.035.055.052.12.052.196 0 .07-.017.132-.05.186a.16.16 0 0 1-.145.081H8.882a.343.343 0 0 1-.19-.052.162.162 0 0 1-.081-.143zM11.084 1.741c0-.066.043-.124.129-.174a.529.529 0 0 1 .266-.074c.115 0 .183.042.205.124l.753 2.583.405-1.658c.029-.115.13-.172.305-.172.172 0 .272.057.3.172l.405 1.658.753-2.583c.023-.082.09-.124.205-.124a.53.53 0 0 1 .267.074c.086.05.129.108.129.174 0 .02-.003.038-.01.057l-.943 2.998c-.048.14-.183.21-.405.21a.587.587 0 0 1-.258-.055c-.076-.037-.122-.088-.138-.155l-.305-1.287-.31 1.287c-.016.067-.062.118-.138.155a.587.587 0 0 1-.257.055.598.598 0 0 1-.262-.055.247.247 0 0 1-.143-.155l-.944-2.998a.178.178 0 0 1-.01-.057zM15.363 4.429c0-.073.028-.147.083-.222.056-.074.119-.112.189-.112.04 0 .088.02.14.06.053.04.104.083.153.131a.7.7 0 0 0 .212.131c.092.04.194.06.305.06.152 0 .28-.035.381-.105a.351.351 0 0 0 .153-.31.416.416 0 0 0-.084-.255.663.663 0 0 0-.22-.186 3.47 3.47 0 0 0-.297-.143 4.632 4.632 0 0 1-.326-.155 1.902 1.902 0 0 1-.3-.193.771.771 0 0 1-.22-.286.952.952 0 0 1-.083-.407c0-.17.034-.322.102-.452a.78.78 0 0 1 .274-.305c.115-.073.237-.126.367-.16.13-.033.269-.05.415-.05a2.135 2.135 0 0 1 .555.073.617.617 0 0 1 .252.122.25.25 0 0 1 .098.196c0 .07-.022.144-.066.22-.045.075-.105.113-.182.113a.897.897 0 0 1-.233-.09.976.976 0 0 0-.424-.091c-.172 0-.304.032-.398.098a.31.31 0 0 0-.14.269c0 .092.037.172.114.24.076.069.17.124.283.167.113.043.235.097.367.162s.254.136.367.212a.89.89 0 0 1 .284.331c.076.145.114.314.114.508 0 .326-.104.577-.312.754-.208.177-.482.266-.822.266-.302 0-.56-.062-.777-.186-.216-.124-.324-.259-.324-.405z"/>
    </g>
</svg>
