<svg xmlns="http://www.w3.org/2000/svg" width="19" height="19" viewBox="0 0 19 19">
    <g>
        <path fill="#C8232C" d="M9.177 0a9.177 9.177 0 1 1 0 18.353A9.177 9.177 0 0 1 9.176 0z"/>
        <path fill="#FFF" d="M9.454 4.018c-3.233 0-4.863 2.245-4.863 4.116 0 1.134.443 2.142 1.394 2.518.155.061.296.002.34-.165l.14-.53c.045-.164.027-.222-.098-.366-.275-.313-.45-.718-.45-1.293 0-1.665 1.287-3.155 3.35-3.155 1.829 0 2.832 1.081 2.832 2.525 0 1.9-.868 3.503-2.157 3.503-.711 0-1.245-.57-1.074-1.27.204-.834.601-1.735.601-2.338 0-.538-.299-.99-.918-.99-.728 0-1.312.73-1.312 1.706 0 .623.217 1.043.217 1.043l-.876 3.591c-.26 1.065-.038 2.372-.02 2.504.012.078.115.096.162.037.067-.084.934-1.12 1.228-2.157.084-.293.48-1.81.48-1.81.236.437.927.821 1.661.821 2.187 0 3.672-1.931 3.672-4.515-.001-1.954-1.71-3.775-4.309-3.775z"/>
    </g>
</svg>
