<svg xmlns="http://www.w3.org/2000/svg" width="29" height="29" viewBox="0 0 29 29">
    <g fill="#32C5FF">
        <path d="M25.685 0H15.73c-1.365 0-2.475 1.11-2.475 2.475v3.3c0 1.365 1.11 2.475 2.475 2.475h4.125v1.705H15.73c-1.365 0-2.475 1.11-2.475 2.475v3.3c0 1.365 1.11 2.475 2.475 2.475h4.125v1.705H15.73c-1.365 0-2.475 1.11-2.475 2.475v3.3c0 1.365 1.11 2.475 2.475 2.475h9.955c1.365 0 2.475-1.11 2.475-2.475v-3.3c0-1.365-1.11-2.475-2.475-2.475h-4.18v-1.705h4.18c1.365 0 2.475-1.11 2.475-2.475v-3.3c0-1.365-1.11-2.475-2.475-2.475h-4.18V8.25h4.18c1.365 0 2.475-1.11 2.475-2.475v-3.3C28.16 1.111 27.05 0 25.685 0zm.825 22.385v3.3c0 .455-.37.825-.825.825H15.73c-.455 0-.825-.37-.825-.825v-3.3c0-.455.37-.825.825-.825h9.955c.455 0 .825.37.825.825zm0-9.955v3.3c0 .455-.37.825-.825.825H15.73c-.455 0-.825-.37-.825-.825v-3.3c0-.455.37-.825.825-.825h9.955c.455 0 .825.37.825.825zm0-6.655c0 .455-.37.825-.825.825H15.73c-.455 0-.825-.37-.825-.825v-3.3c0-.455.37-.825.825-.825h9.955c.455 0 .825.37.825.825v3.3zM4.18 24.86c.456 0 .825-.37.825-.825 0-.455-.37-.825-.825-.825-1.371 0-2.53-1.133-2.53-2.475 0-.455-.37-.825-.825-.825-.456 0-.825.37-.825.825 0 2.28 1.9 4.125 4.18 4.125zM.825 18.205c.456 0 .825-.37.825-.825v-3.3c0-.455-.37-.825-.825-.825-.456 0-.825.37-.825.825v3.3c0 .456.37.825.825.825zM.825 11.605c.456 0 .825-.37.825-.825V7.425c0-1.341 1.159-2.475 2.53-2.475h3.875L5.372 6.74c-.379.252-.481.765-.228 1.144.254.38.766.48 1.144.228l4.95-3.3c.23-.153.367-.41.367-.686 0-.276-.138-.533-.367-.686l-4.95-3.3c-.38-.253-.892-.15-1.144.228-.253.38-.15.892.228 1.144L8.055 3.3H4.18C1.9 3.3 0 5.144 0 7.425v3.355c0 .456.37.825.825.825zM7.48 23.21c-.456 0-.825.37-.825.825 0 .456.37.825.825.825h3.3c.456 0 .825-.37.825-.825 0-.455-.37-.825-.825-.825h-3.3z"/>
        <path d="M24.035 3.3H17.38c-.456 0-.825.37-.825.825 0 .456.37.825.825.825h6.655c.455 0 .825-.37.825-.825 0-.455-.37-.825-.825-.825zM16.555 14.08c0 .456.37.825.825.825h6.655c.455 0 .825-.37.825-.825 0-.455-.37-.825-.825-.825H17.38c-.456 0-.825.37-.825.825zM16.555 24.035c0 .456.37.825.825.825h6.655c.455 0 .825-.37.825-.825 0-.455-.37-.825-.825-.825H17.38c-.456 0-.825.37-.825.825z"/>
    </g>
</svg>
