<svg xmlns="http://www.w3.org/2000/svg" width="26" height="26" viewBox="0 0 26 26">
    <path fill="#8CA0B3" d="M12.8 0C5.742 0 0 5.742 0 12.8c0 7.058 5.742 12.8 12.8 12.8 7.058 0 12.8-5.742 12.8-12.8C25.6 5.742 19.858 0 12.8 0zm5.6 13.867h-4.533V18.4c0 .589-.478 1.067-1.067 1.067s-1.067-.478-1.067-1.067v-4.533H7.2c-.589 0-1.067-.478-1.067-1.067s.478-1.067 1.067-1.067h4.533V7.2c0-.589.478-1.067 1.067-1.067s1.067.478 1.067 1.067v4.533H18.4c.589 0 1.067.478 1.067 1.067s-.478 1.067-1.067 1.067z"/>
</svg>
