<svg xmlns="http://www.w3.org/2000/svg" xmlns:xlink="http://www.w3.org/1999/xlink" width="25" height="70" viewBox="0 0 25 70">
    <defs>
        <path id="a" d="M6.714 13.324c3.349 0 6.065-2.907 6.065-6.495S10.063.331 6.714.331.652 3.241.652 6.829s2.713 6.495 6.062 6.495"/>
        <path id="c" d="M22.637.822c-.038 0-.078.008-.119.011-.037 0-.075-.011-.118-.011H3.07c-.04 0-.075.011-.115.011-.04-.003-.078-.011-.119-.011-1.204 0-2.18.98-2.18 2.19v20.952c0 1.209.976 2.19 2.18 2.19 1.205 0 2.182-.981 2.182-2.19V6.059h1.037v45.498a2.784 2.784 0 0 0 2.779 2.79 2.784 2.784 0 0 0 2.779-2.79V29.305h2.247v22.252a2.784 2.784 0 0 0 2.78 2.79 2.784 2.784 0 0 0 2.779-2.79V6.06h1.037v17.905c0 1.209.976 2.19 2.18 2.19 1.206 0 2.182-.981 2.182-2.19V3.01c0-1.21-.976-2.19-2.181-2.19"/>
    </defs>
    <g fill="none" fill-rule="evenodd">
        <g transform="translate(6 .222)">
            <mask id="b" fill="#fff">
                <use xlink:href="#a"/>
            </mask>
            <path fill="#03B6F9" d="M6.714 13.324c3.349 0 6.065-2.907 6.065-6.495S10.063.331 6.714.331.652 3.241.652 6.829s2.713 6.495 6.062 6.495" mask="url(#b)"/>
        </g>
        <g transform="translate(0 15.222)">
            <mask id="d" fill="#fff">
                <use xlink:href="#c"/>
            </mask>
            <path fill="#03B6F9" d="M22.637.822c-.038 0-.078.008-.119.011-.037 0-.075-.011-.118-.011H3.07c-.04 0-.075.011-.115.011-.04-.003-.078-.011-.119-.011-1.204 0-2.18.98-2.18 2.19v20.952c0 1.209.976 2.19 2.18 2.19 1.205 0 2.182-.981 2.182-2.19V6.059h1.037v45.498a2.784 2.784 0 0 0 2.779 2.79 2.784 2.784 0 0 0 2.779-2.79V29.305h2.247v22.252a2.784 2.784 0 0 0 2.78 2.79 2.784 2.784 0 0 0 2.779-2.79V6.06h1.037v17.905c0 1.209.976 2.19 2.18 2.19 1.206 0 2.182-.981 2.182-2.19V3.01c0-1.21-.976-2.19-2.181-2.19" mask="url(#d)"/>
        </g>
    </g>
</svg>
