<svg xmlns="http://www.w3.org/2000/svg" width="21" height="27" viewBox="0 0 21 27">
    <g fill="none" fill-rule="nonzero">
        <path fill="#F2F2F2" d="M20.673 23.374a245.99 245.99 0 0 1-5.539-7.518c-.41-.578-.815-1.16-1.213-1.746.135-.2.266-.396.396-.596 1.27-1.918 2.754-3.868 3.253-6.145.686-3.11-.807-6.899-4.503-7.308h-.005a1.947 1.947 0 0 0-.173-.02C12.46.01 12.021 0 11.587 0H9.413C8.979 0 8.54.01 8.11.042c-.061.005-.117.01-.173.018-3.7.405-5.194 4.2-4.508 7.31.5 2.275 1.983 4.226 3.253 6.144.13.2.261.396.396.596a83.086 83.086 0 0 1-1.213 1.745 223.708 223.708 0 0 1-5.54 7.519c-.041.055-.251.414-.326.423l4.345-.456L5.39 27l3.192-4.823c.64-.963 1.279-1.929 1.918-2.895A6492.747 6492.747 0 0 1 15.61 27l1.045-3.659 4.345.456c-.075-.01-.285-.368-.327-.423zM11.905 5.74c-.098 1.2-.71 2.262-1.405 3.282-.695-1.02-1.307-2.081-1.405-3.282A5.132 5.132 0 0 1 10.5 1.862a5.132 5.132 0 0 1 1.405 3.878z"/>
        <path fill="#FFF" d="M16.845 7.37c-.479 2.276-1.902 4.226-3.119 6.144-.125.2-.25.396-.38.596a2144.5 2144.5 0 0 1-3.28 5.172A6523.639 6523.639 0 0 0 5.167 27l-1-3.659L0 23.797c.072-.01.273-.368.313-.423a245.71 245.71 0 0 0 5.31-7.518c.395-.578.782-1.16 1.164-1.746a96.142 96.142 0 0 0 2.094-3.291c.362-.596.787-1.187 1.186-1.797.666-1.02 1.252-2.081 1.346-3.282a5.263 5.263 0 0 0-1.852-4.367A10.294 10.294 0 0 0 8.067.34C7.964.284 7.776.144 7.61.06c.054-.009.108-.013.166-.018A15.87 15.87 0 0 1 9.024 0h2.085c.416 0 .837.01 1.248.042.059.005.112.01.166.018h.004c3.544.41 4.975 4.2 4.318 7.31z"/>
    </g>
</svg>
