<svg xmlns="http://www.w3.org/2000/svg" width="19" height="15" viewBox="0 0 19 15">
    <path fill="#1DA1F2" d="M5.785 14.969c6.943 0 10.739-5.752 10.739-10.74 0-.162-.003-.325-.01-.487a7.68 7.68 0 0 0 1.882-1.954c-.676.3-1.404.503-2.167.594a3.788 3.788 0 0 0 1.66-2.088 7.572 7.572 0 0 1-2.397.916A3.775 3.775 0 0 0 9.06 4.652 10.716 10.716 0 0 1 1.28.71a3.765 3.765 0 0 0-.51 1.897c0 1.31.666 2.465 1.679 3.142-.62-.02-1.201-.19-1.71-.472v.048c0 1.828 1.3 3.354 3.028 3.7a3.786 3.786 0 0 1-1.705.064 3.778 3.778 0 0 0 3.526 2.622A7.572 7.572 0 0 1 .9 13.325c-.304 0-.605-.017-.9-.052a10.684 10.684 0 0 0 5.786 1.696"/>
</svg>
