<svg xmlns="http://www.w3.org/2000/svg" width="32" height="25" viewBox="0 0 32 25">
    <g fill="#FA6400">
        <path d="M19.488 8.21c-.252-.28-.661-.28-.913 0-.251.28-.251.735 0 1.013.73.812 1.135 1.892 1.135 3.042 0 2.371-1.737 4.301-3.872 4.301-1.035 0-2.006-.447-2.737-1.26-.252-.28-.66-.28-.912 0-.252.278-.252.734 0 1.014.973 1.084 2.27 1.68 3.65 1.68C18.684 18 21 15.428 21 12.265c0-1.533-.537-2.974-1.512-4.055zM17.435 7.095C17.124 7.04 16.805 7 16.48 7 13.458 7 11 9.458 11 12.48c0 .325.04.643.096.954.059.332.348.566.673.566.04 0 .079-.003.12-.011.371-.066.62-.422.555-.793-.043-.233-.074-.47-.074-.717 0-2.265 1.844-4.11 4.11-4.11.246 0 .483.032.716.073.365.074.728-.183.793-.554.066-.372-.183-.728-.554-.793z"/>
        <path d="M31.839 12.541c-.153-.191-3.811-4.7-8.857-7.46-.328-.182-.74-.045-.912.306-.172.35-.042.781.29.963 3.888 2.125 6.993 5.441 8.055 6.652-1.612 1.844-7.957 8.57-14.645 8.57-2.27 0-4.556-.579-6.8-1.721-.333-.173-.74-.023-.902.333-.164.354-.022.78.315.952C10.811 22.374 13.297 23 15.77 23c8.333 0 15.758-9.146 16.07-9.536.214-.266.213-.656-.001-.923zM20.543 3.786C19.013 3.263 17.529 3 16.132 3 7.85 3 .469 11.743.159 12.116c-.197.235-.213.576-.038.832.093.135 2.315 3.34 6.166 5.937.115.078.242.115.371.115.217 0 .43-.106.56-.307.205-.313.12-.737-.188-.945-2.829-1.91-4.765-4.216-5.49-5.154 1.548-1.707 7.896-8.229 14.592-8.229 1.251 0 2.592.24 3.982.714.352.129.734-.07.85-.428.119-.358-.07-.744-.421-.865z"/>
        <path d="M27.805.203c-.26-.27-.683-.27-.943 0L4.195 23.815c-.26.271-.26.711 0 .982.13.135.301.203.472.203.17 0 .341-.068.47-.203L27.806 1.185c.26-.27.26-.711 0-.982z"/>
    </g>
</svg>
