<svg xmlns="http://www.w3.org/2000/svg" width="33" height="19" viewBox="0 0 33 19">
    <g fill="#FA6400">
        <path d="M32.878 9.115C32.618 8.74 26.373 0 16.5 0 8.028 0 .48 8.691.162 9.062c-.216.252-.216.623 0 .876C.48 10.308 8.028 19 16.5 19c8.471 0 16.02-8.691 16.338-9.062.2-.233.217-.571.04-.823zM16.5 17.643C9.709 17.643 3.252 11.25 1.61 9.5 3.25 7.748 9.7 1.357 16.5 1.357c7.946 0 13.555 6.383 14.924 8.106-1.58 1.695-8.075 8.18-14.924 8.18z"/>
        <path d="M16.5 4C13.467 4 11 6.467 11 9.5s2.467 5.5 5.5 5.5S22 12.533 22 9.5 19.533 4 16.5 4zm0 9.625c-2.274 0-4.125-1.85-4.125-4.125 0-2.274 1.85-4.125 4.125-4.125 2.274 0 4.125 1.85 4.125 4.125 0 2.274-1.85 4.125-4.125 4.125z"/>
    </g>
</svg>
