<svg width="26px" height="26px" viewBox="0 0 26 26" version="1.1" xmlns="http://www.w3.org/2000/svg" xmlns:xlink="http://www.w3.org/1999/xlink">
    <g>
        <g fill="#33C192">
            <path d="M21.85095,3.749 C19.43335,1.33145 16.219,0 12.8,0 C9.38095,0 6.16655,1.33145 3.749,3.749 C1.3314,6.1666 0,9.381 0,12.8 C0,16.219 1.3314,19.43335 3.749,21.85095 C6.1666,24.26855 9.38095,25.6 12.8,25.6 C16.219,25.6 19.43335,24.26855 21.85095,21.85095 C24.26855,19.43335 25.6,16.219 25.6,12.8 C25.6,9.381 24.26855,6.16665 21.85095,3.749 Z M12.8,24.1 C6.56915,24.1 1.5,19.03085 1.5,12.8 C1.5,6.56915 6.56915,1.5 12.8,1.5 C19.03085,1.5 24.1,6.56915 24.1,12.8 C24.1,19.03085 19.03085,24.1 12.8,24.1 Z" id="Shape"></path>
            <path d="M18.91525,8.69295 C18.6224,8.40015 18.1475,8.40015 17.85465,8.693 L11.2317,15.31595 L7.74535,11.8296 C7.4525,11.53675 6.9776,11.53675 6.6847,11.8296 C6.3918,12.12245 6.3918,12.59735 6.6847,12.89025 L10.70135,16.9069 C10.8478,17.05335 11.03975,17.12655 11.23165,17.12655 C11.42355,17.12655 11.61555,17.0533 11.76195,16.9069 L18.91525,9.7536 C19.20815,9.46075 19.20815,8.98585 18.91525,8.69295 Z" id="Path"></path>
        </g>
    </g>
</svg>