<svg xmlns="http://www.w3.org/2000/svg" width="418" height="413" viewBox="0 0 418 413">
    <g fill="none" fill-rule="evenodd">
        <path fill="#FFFFFE" d="M107.17 13.857H31.886c-9.989 0-18.086 8.098-18.086 18.086v54.278c0 9.989 8.097 18.086 18.086 18.086h75.284c9.989 0 18.086-8.097 18.086-18.086V31.943c0-9.988-8.097-18.086-18.086-18.086"/>
        <path fill="#FFFFFE" d="M106.877 13.564H31.593c-9.989 0-18.086 8.097-18.086 18.086v54.278c0 9.989 8.097 18.086 18.086 18.086h75.284c9.989 0 18.086-8.097 18.086-18.086V31.65c0-9.989-8.097-18.086-18.086-18.086"/>
        <path fill="#FFFFFE" d="M106.584 13.271H31.299c-9.988 0-18.085 8.097-18.085 18.085v54.279c0 9.988 8.097 18.085 18.085 18.085h75.285c9.988 0 18.085-8.097 18.085-18.085V31.356c0-9.988-8.097-18.085-18.085-18.085"/>
        <path fill="#FFFEFD" d="M106.291 12.977H31.006c-9.988 0-18.086 8.098-18.086 18.086v54.278c0 9.989 8.098 18.086 18.086 18.086h75.285c9.988 0 18.085-8.097 18.085-18.086V31.063c0-9.988-8.097-18.086-18.085-18.086"/>
        <path fill="#FEFDFC" d="M105.997 12.684H30.713c-9.989 0-18.086 8.097-18.086 18.085v54.279c0 9.989 8.097 18.086 18.086 18.086h75.284c9.989 0 18.086-8.097 18.086-18.086V30.769c0-9.988-8.097-18.085-18.086-18.085"/>
        <path fill="#FDFCFB" d="M105.704 12.391H30.419c-9.988 0-18.085 8.097-18.085 18.086v54.278c0 9.988 8.097 18.085 18.085 18.085h75.285c9.988 0 18.086-8.097 18.086-18.085V30.477c0-9.989-8.098-18.086-18.086-18.086"/>
        <path fill="#FBFBFA" d="M105.411 12.098H30.126c-9.988 0-18.086 8.097-18.086 18.085v54.278c0 9.989 8.098 18.086 18.086 18.086h75.285c9.988 0 18.086-8.097 18.086-18.086V30.183c0-9.988-8.098-18.085-18.086-18.085"/>
        <path fill="#FAFAF9" d="M105.117 11.804H29.833c-9.989 0-18.086 8.097-18.086 18.086v54.278c0 9.989 8.097 18.086 18.086 18.086h75.284c9.989 0 18.086-8.097 18.086-18.086V29.89c0-9.989-8.097-18.086-18.086-18.086"/>
        <path fill="#FAFAF8" d="M104.824 11.511H29.54c-9.989 0-18.086 8.097-18.086 18.086v54.278c0 9.988 8.097 18.085 18.086 18.085h75.284c9.989 0 18.086-8.097 18.086-18.085V29.597c0-9.989-8.097-18.086-18.086-18.086"/>
        <path fill="#F9F9F7" d="M104.531 11.218H29.246c-9.988 0-18.085 8.097-18.085 18.085v54.279c0 9.988 8.097 18.085 18.085 18.085h75.285c9.988 0 18.086-8.097 18.086-18.085V29.303c0-9.988-8.098-18.085-18.086-18.085"/>
        <path fill="#F8F8F6" d="M104.237 10.924H28.953c-9.989 0-18.086 8.097-18.086 18.086v54.278c0 9.989 8.097 18.086 18.086 18.086h75.284c9.989 0 18.086-8.097 18.086-18.086V29.01c0-9.989-8.097-18.086-18.086-18.086"/>
        <path fill="#F6F7F5" d="M103.944 10.631H28.66c-9.989 0-18.086 8.097-18.086 18.086v54.278c0 9.988 8.097 18.086 18.086 18.086h75.284c9.989 0 18.086-8.098 18.086-18.086V28.717c0-9.989-8.097-18.086-18.086-18.086"/>
        <path fill="#F5F6F4" d="M103.651 10.338H28.366c-9.988 0-18.085 8.097-18.085 18.085v54.279c0 9.988 8.097 18.085 18.085 18.085h75.285c9.988 0 18.085-8.097 18.085-18.085V28.423c0-9.988-8.097-18.085-18.085-18.085"/>
        <path fill="#F4F5F2" d="M103.357 10.044H28.073c-9.989 0-18.086 8.098-18.086 18.086v54.278c0 9.989 8.097 18.086 18.086 18.086h75.284c9.989 0 18.086-8.097 18.086-18.086V28.13c0-9.988-8.097-18.086-18.086-18.086"/>
        <path fill="#F4F4F1" d="M103.064 9.751H27.78c-9.989 0-18.086 8.097-18.086 18.086v54.278c0 9.989 8.097 18.086 18.086 18.086h75.284c9.989 0 18.086-8.097 18.086-18.086V27.837c0-9.989-8.097-18.086-18.086-18.086"/>
        <path fill="#F3F3F0" d="M102.771 9.458H27.486c-9.988 0-18.085 8.097-18.085 18.086v54.278c0 9.988 8.097 18.085 18.085 18.085h75.285c9.988 0 18.085-8.097 18.085-18.085V27.544c0-9.989-8.097-18.086-18.085-18.086"/>
        <path fill="#F1F2EE" d="M102.478 9.165H27.193c-9.988 0-18.086 8.097-18.086 18.085v54.278c0 9.989 8.098 18.086 18.086 18.086h75.285c9.988 0 18.085-8.097 18.085-18.086V27.25c0-9.988-8.097-18.085-18.085-18.085"/>
        <path fill="#F0F0ED" d="M102.185 8.871H26.9c-9.989 0-18.086 8.097-18.086 18.085v54.279c0 9.989 8.097 18.086 18.086 18.086h75.285c9.988 0 18.085-8.097 18.085-18.086V26.956c0-9.988-8.097-18.085-18.085-18.085"/>
        <path fill="#EEEFEC" d="M101.891 8.578H26.606c-9.988 0-18.085 8.097-18.085 18.086v54.278c0 9.988 8.097 18.085 18.085 18.085h75.285c9.988 0 18.086-8.097 18.086-18.085V26.664c0-9.989-8.098-18.086-18.086-18.086"/>
        <path fill="#EDEDEB" d="M101.598 8.285H26.313c-9.988 0-18.086 8.097-18.086 18.085v54.278c0 9.989 8.098 18.086 18.086 18.086h75.285c9.988 0 18.086-8.097 18.086-18.086V26.37c0-9.988-8.098-18.085-18.086-18.085"/>
        <path fill="#EBECE9" d="M101.304 7.991H26.02c-9.989 0-18.086 8.097-18.086 18.086v54.278c0 9.989 8.097 18.086 18.086 18.086h75.284c9.989 0 18.086-8.097 18.086-18.086V26.077c0-9.989-8.097-18.086-18.086-18.086"/>
        <path fill="#EAEBE8" d="M101.011 7.698H25.727c-9.989 0-18.086 8.097-18.086 18.086v54.278c0 9.988 8.097 18.085 18.086 18.085h75.284c9.989 0 18.086-8.097 18.086-18.085V25.784c0-9.989-8.097-18.086-18.086-18.086"/>
        <path fill="#E9EAE6" d="M100.718 7.405H25.433c-9.988 0-18.085 8.097-18.085 18.085v54.279c0 9.988 8.097 18.085 18.085 18.085h75.285c9.988 0 18.086-8.097 18.086-18.085V25.49c0-9.988-8.098-18.085-18.086-18.085"/>
        <path fill="#E8E9E5" d="M100.424 7.111H25.14c-9.989 0-18.086 8.097-18.086 18.086v54.279c0 9.988 8.097 18.085 18.086 18.085h75.284c9.989 0 18.086-8.097 18.086-18.085V25.197c0-9.989-8.097-18.086-18.086-18.086"/>
        <path fill="#E8E9E4" d="M100.131 6.818H24.847c-9.989 0-18.086 8.097-18.086 18.086v54.278c0 9.988 8.097 18.086 18.086 18.086h75.284c9.989 0 18.086-8.098 18.086-18.086V24.904c0-9.989-8.097-18.086-18.086-18.086"/>
        <path fill="#E7E7E3" d="M99.838 6.525H24.553c-9.988 0-18.085 8.097-18.085 18.085v54.279c0 9.988 8.097 18.085 18.085 18.085h75.285c9.988 0 18.085-8.097 18.085-18.085V24.61c0-9.988-8.097-18.085-18.085-18.085"/>
        <path fill="#E5E6E1" d="M99.544 6.231H24.26c-9.989 0-18.086 8.098-18.086 18.086v54.278c0 9.989 8.097 18.086 18.086 18.086h75.284c9.989 0 18.086-8.097 18.086-18.086V24.317c0-9.988-8.097-18.086-18.086-18.086"/>
        <path fill="#E4E5E0" d="M99.251 5.938H23.967c-9.989 0-18.086 8.097-18.086 18.086v54.278c0 9.989 8.097 18.086 18.086 18.086h75.284c9.989 0 18.086-8.097 18.086-18.086V24.024c0-9.989-8.097-18.086-18.086-18.086"/>
        <path fill="#E3E4DF" d="M98.958 5.645H23.673c-9.988 0-18.085 8.097-18.085 18.085v54.279c0 9.988 8.097 18.085 18.085 18.085h75.285c9.988 0 18.085-8.097 18.085-18.085V23.73c0-9.988-8.097-18.085-18.085-18.085"/>
        <path fill="#E1E3DD" d="M98.665 5.352H23.38c-9.988 0-18.086 8.097-18.086 18.085v54.278c0 9.989 8.098 18.086 18.086 18.086h75.285c9.988 0 18.085-8.097 18.085-18.086V23.437c0-9.988-8.097-18.085-18.085-18.085"/>
        <path fill="#E0E1DD" d="M98.372 5.058H23.087c-9.989 0-18.086 8.097-18.086 18.086v54.278c0 9.989 8.097 18.086 18.086 18.086h75.285c9.988 0 18.085-8.097 18.085-18.086V23.144c0-9.989-8.097-18.086-18.085-18.086"/>
        <path fill="#DFE0DC" d="M98.078 4.765H22.793c-9.988 0-18.085 8.097-18.085 18.086v54.278c0 9.988 8.097 18.085 18.085 18.085h75.285c9.988 0 18.086-8.097 18.086-18.085V22.851c0-9.989-8.098-18.086-18.086-18.086"/>
        <path fill="#DEDFDB" d="M97.785 4.472H22.5c-9.988 0-18.085 8.097-18.085 18.085v54.278c0 9.989 8.097 18.086 18.085 18.086h75.285c9.988 0 18.086-8.097 18.086-18.086V22.557c0-9.988-8.098-18.085-18.086-18.085"/>
        <path fill="#DDDEDA" d="M97.491 4.178H22.207c-9.989 0-18.086 8.097-18.086 18.086v54.278c0 9.989 8.097 18.086 18.086 18.086h75.284c9.989 0 18.086-8.097 18.086-18.086V22.264c0-9.989-8.097-18.086-18.086-18.086"/>
        <path fill="#DCDDD8" d="M97.198 3.885H21.914c-9.989 0-18.086 8.097-18.086 18.086v54.278c0 9.988 8.097 18.085 18.086 18.085h75.284c9.989 0 18.086-8.097 18.086-18.085V21.971c0-9.989-8.097-18.086-18.086-18.086"/>
        <path fill="#DADBD7" d="M96.905 3.592H21.62c-9.988 0-18.085 8.097-18.085 18.085v54.279c0 9.988 8.097 18.086 18.085 18.086h75.285c9.989 0 18.086-8.098 18.086-18.086V21.677c0-9.988-8.097-18.085-18.086-18.085"/>
        <path fill="#D9DAD6" d="M96.611 3.298H21.327c-9.989 0-18.086 8.098-18.086 18.086v54.279c0 9.988 8.097 18.085 18.086 18.085h75.284c9.989 0 18.086-8.097 18.086-18.085V21.384c0-9.988-8.097-18.086-18.086-18.086"/>
        <path fill="#D8D9D5" d="M96.318 3.005H21.034c-9.989 0-18.086 8.097-18.086 18.086v54.278c0 9.988 8.097 18.086 18.086 18.086h75.284c9.989 0 18.086-8.098 18.086-18.086V21.091c0-9.989-8.097-18.086-18.086-18.086"/>
        <path fill="#D7D8D3" d="M96.025 2.712H20.74c-9.988 0-18.085 8.097-18.085 18.085v54.279c0 9.988 8.097 18.085 18.085 18.085h75.285c9.988 0 18.086-8.097 18.086-18.085V20.797c0-9.988-8.098-18.085-18.086-18.085"/>
        <path fill="#D6D6D2" d="M95.731 2.419H20.447c-9.989 0-18.086 8.097-18.086 18.085v54.278c0 9.989 8.097 18.086 18.086 18.086h75.284c9.989 0 18.086-8.097 18.086-18.086V20.504c0-9.988-8.097-18.085-18.086-18.085"/>
        <path fill="#D5D7D1" d="M95.438 2.125H20.154c-9.989 0-18.086 8.097-18.086 18.086v54.278c0 9.989 8.097 18.086 18.086 18.086h75.284c9.989 0 18.086-8.097 18.086-18.086V20.211c0-9.989-8.097-18.086-18.086-18.086"/>
        <path fill="#D4D5D0" d="M95.145 1.832H19.86c-9.988 0-18.085 8.097-18.085 18.086v54.278c0 9.988 8.097 18.085 18.085 18.085h75.285c9.988 0 18.085-8.097 18.085-18.085V19.918c0-9.989-8.097-18.086-18.085-18.086"/>
        <path fill="#D2D4CF" d="M94.852 1.539H19.567c-9.988 0-18.086 8.097-18.086 18.085v54.278c0 9.989 8.098 18.086 18.086 18.086h75.285c9.988 0 18.086-8.097 18.086-18.086V19.624c0-9.988-8.098-18.085-18.086-18.085"/>
        <path fill="#D1D3CF" d="M94.559 1.245H19.274c-9.989 0-18.086 8.097-18.086 18.086v54.278c0 9.989 8.097 18.086 18.086 18.086h75.285c9.988 0 18.085-8.097 18.085-18.086V19.331c0-9.989-8.097-18.086-18.085-18.086"/>
        <path fill="#D0D2CD" d="M94.265.952H18.98C8.992.952.895 9.049.895 19.038v54.278c0 9.988 8.097 18.085 18.085 18.085h75.285c9.988 0 18.086-8.097 18.086-18.085V19.038c0-9.989-8.098-18.086-18.086-18.086"/>
        <path fill="#CFD1CC" d="M93.972.659H18.687C8.699.659.602 8.756.602 18.744v54.278c0 9.989 8.097 18.086 18.085 18.086h75.285c9.988 0 18.086-8.097 18.086-18.086V18.744c0-9.988-8.098-18.085-18.086-18.085"/>
        <path fill="#CECFCB" d="M93.678.365H18.394C8.405.365.308 8.462.308 18.451v54.278c0 9.989 8.097 18.086 18.086 18.086h75.284c9.989 0 18.086-8.097 18.086-18.086V18.451c0-9.989-8.097-18.086-18.086-18.086"/>
        <path fill="#CDCECA" d="M93.385.072H18.101C8.112.072.015 8.169.015 18.158v54.278c0 9.988 8.097 18.085 18.086 18.085h75.284c9.989 0 18.086-8.097 18.086-18.085V18.158c0-9.989-8.097-18.086-18.086-18.086"/>
        <path fill="#FFFFFE" d="M399.656 13.857h-75.284c-9.988 0-18.086 8.098-18.086 18.086v54.278c0 9.989 8.098 18.086 18.086 18.086h75.284c9.99 0 18.086-8.097 18.086-18.086V31.943c0-9.988-8.096-18.086-18.086-18.086"/>
        <path fill="#FFFFFE" d="M399.363 13.564h-75.284c-9.989 0-18.086 8.097-18.086 18.086v54.278c0 9.989 8.097 18.086 18.086 18.086h75.284c9.989 0 18.086-8.097 18.086-18.086V31.65c0-9.989-8.097-18.086-18.086-18.086"/>
        <path fill="#FFFFFE" d="M399.07 13.271h-75.285c-9.988 0-18.085 8.097-18.085 18.085v54.279c0 9.988 8.097 18.085 18.085 18.085h75.285c9.989 0 18.085-8.097 18.085-18.085V31.356c0-9.988-8.096-18.085-18.085-18.085"/>
        <path fill="#FFFEFD" d="M398.776 12.977h-75.284c-9.988 0-18.086 8.098-18.086 18.086v54.278c0 9.989 8.098 18.086 18.086 18.086h75.284c9.99 0 18.086-8.097 18.086-18.086V31.063c0-9.988-8.096-18.086-18.086-18.086"/>
        <path fill="#FEFDFC" d="M398.483 12.684h-75.284c-9.989 0-18.086 8.097-18.086 18.085v54.279c0 9.989 8.097 18.086 18.086 18.086h75.284c9.989 0 18.086-8.097 18.086-18.086V30.769c0-9.988-8.097-18.085-18.086-18.085"/>
        <path fill="#FDFCFB" d="M398.19 12.391h-75.285c-9.988 0-18.085 8.097-18.085 18.086v54.278c0 9.988 8.097 18.085 18.085 18.085h75.285c9.989 0 18.085-8.097 18.085-18.085V30.477c0-9.989-8.096-18.086-18.085-18.086"/>
        <path fill="#FBFBFA" d="M397.896 12.098h-75.284c-9.988 0-18.086 8.097-18.086 18.085v54.278c0 9.989 8.098 18.086 18.086 18.086h75.284c9.989 0 18.086-8.097 18.086-18.086V30.183c0-9.988-8.097-18.085-18.086-18.085"/>
        <path fill="#FAFAF9" d="M397.604 11.804h-75.286c-9.988 0-18.085 8.097-18.085 18.086v54.278c0 9.989 8.097 18.086 18.085 18.086h75.286c9.988 0 18.085-8.097 18.085-18.086V29.89c0-9.989-8.097-18.086-18.085-18.086"/>
        <path fill="#FAFAF8" d="M397.311 11.511h-75.286c-9.988 0-18.086 8.097-18.086 18.086v54.278c0 9.988 8.098 18.085 18.086 18.085h75.286c9.988 0 18.085-8.097 18.085-18.085V29.597c0-9.989-8.097-18.086-18.085-18.086"/>
        <path fill="#F9F9F7" d="M397.017 11.218h-75.285c-9.988 0-18.086 8.097-18.086 18.085v54.279c0 9.988 8.098 18.085 18.086 18.085h75.285c9.988 0 18.086-8.097 18.086-18.085V29.303c0-9.988-8.098-18.085-18.086-18.085"/>
        <path fill="#F8F8F6" d="M396.724 10.924h-75.286c-9.988 0-18.084 8.097-18.084 18.086v54.278c0 9.989 8.096 18.086 18.084 18.086h75.286c9.988 0 18.086-8.097 18.086-18.086V29.01c0-9.989-8.098-18.086-18.086-18.086"/>
        <path fill="#F6F7F5" d="M396.431 10.631h-75.285c-9.989 0-18.086 8.097-18.086 18.086v54.278c0 9.988 8.097 18.086 18.086 18.086h75.285c9.988 0 18.085-8.098 18.085-18.086V28.717c0-9.989-8.097-18.086-18.085-18.086"/>
        <path fill="#F5F6F4" d="M396.137 10.338h-75.284c-9.989 0-18.086 8.097-18.086 18.085v54.279c0 9.988 8.097 18.085 18.086 18.085h75.284c9.988 0 18.086-8.097 18.086-18.085V28.423c0-9.988-8.098-18.085-18.086-18.085"/>
        <path fill="#F4F5F2" d="M395.844 10.044h-75.285c-9.989 0-18.085 8.098-18.085 18.086v54.278c0 9.989 8.096 18.086 18.085 18.086h75.285c9.988 0 18.086-8.097 18.086-18.086V28.13c0-9.988-8.098-18.086-18.086-18.086"/>
        <path fill="#F4F4F1" d="M395.551 9.751h-75.285c-9.989 0-18.086 8.097-18.086 18.086v54.278c0 9.989 8.097 18.086 18.086 18.086h75.285c9.988 0 18.085-8.097 18.085-18.086V27.837c0-9.989-8.097-18.086-18.085-18.086"/>
        <path fill="#F3F3F0" d="M395.257 9.458h-75.284c-9.989 0-18.086 8.097-18.086 18.086v54.278c0 9.988 8.097 18.085 18.086 18.085h75.284c9.988 0 18.086-8.097 18.086-18.085V27.544c0-9.989-8.098-18.086-18.086-18.086"/>
        <path fill="#F1F2EE" d="M394.964 9.165h-75.285c-9.989 0-18.085 8.097-18.085 18.085v54.278c0 9.989 8.096 18.086 18.085 18.086h75.285c9.988 0 18.086-8.097 18.086-18.086V27.25c0-9.988-8.098-18.085-18.086-18.085"/>
        <path fill="#F0F0ED" d="M394.67 8.871h-75.284c-9.989 0-18.086 8.097-18.086 18.085v54.279c0 9.989 8.097 18.086 18.086 18.086h75.284c9.989 0 18.086-8.097 18.086-18.086V26.956c0-9.988-8.097-18.085-18.086-18.085"/>
        <path fill="#EEEFEC" d="M394.377 8.578h-75.284c-9.989 0-18.086 8.097-18.086 18.086v54.278c0 9.988 8.097 18.085 18.086 18.085h75.284c9.988 0 18.086-8.097 18.086-18.085V26.664c0-9.989-8.098-18.086-18.086-18.086"/>
        <path fill="#EDEDEB" d="M394.084 8.285h-75.285c-9.988 0-18.085 8.097-18.085 18.085v54.278c0 9.989 8.097 18.086 18.085 18.086h75.285c9.988 0 18.086-8.097 18.086-18.086V26.37c0-9.988-8.098-18.085-18.086-18.085"/>
        <path fill="#EBECE9" d="M393.79 7.991h-75.284c-9.988 0-18.086 8.097-18.086 18.086v54.278c0 9.989 8.098 18.086 18.086 18.086h75.284c9.989 0 18.086-8.097 18.086-18.086V26.077c0-9.989-8.097-18.086-18.086-18.086"/>
        <path fill="#EAEBE8" d="M393.497 7.698h-75.284c-9.988 0-18.086 8.097-18.086 18.086v54.278c0 9.988 8.098 18.085 18.086 18.085h75.284c9.988 0 18.086-8.097 18.086-18.085V25.784c0-9.989-8.098-18.086-18.086-18.086"/>
        <path fill="#E9EAE6" d="M393.204 7.405h-75.285c-9.988 0-18.085 8.097-18.085 18.085v54.279c0 9.988 8.097 18.085 18.085 18.085h75.285c9.988 0 18.085-8.097 18.085-18.085V25.49c0-9.988-8.097-18.085-18.085-18.085"/>
        <path fill="#E8E9E5" d="M392.91 7.111h-75.284c-9.988 0-18.086 8.097-18.086 18.086v54.279c0 9.988 8.098 18.085 18.086 18.085h75.284c9.989 0 18.086-8.097 18.086-18.085V25.197c0-9.989-8.097-18.086-18.086-18.086"/>
        <path fill="#E8E9E4" d="M392.617 6.818h-75.284c-9.989 0-18.086 8.097-18.086 18.086v54.278c0 9.988 8.097 18.086 18.086 18.086h75.284c9.988 0 18.086-8.098 18.086-18.086V24.904c0-9.989-8.098-18.086-18.086-18.086"/>
        <path fill="#E7E7E3" d="M392.324 6.525h-75.285c-9.988 0-18.085 8.097-18.085 18.085v54.279c0 9.988 8.097 18.085 18.085 18.085h75.285c9.989 0 18.085-8.097 18.085-18.085V24.61c0-9.988-8.096-18.085-18.085-18.085"/>
        <path fill="#E5E6E1" d="M392.03 6.231h-75.284c-9.988 0-18.086 8.098-18.086 18.086v54.278c0 9.989 8.098 18.086 18.086 18.086h75.284c9.99 0 18.086-8.097 18.086-18.086V24.317c0-9.988-8.096-18.086-18.086-18.086"/>
        <path fill="#E4E5E0" d="M391.737 5.938h-75.284c-9.989 0-18.086 8.097-18.086 18.086v54.278c0 9.989 8.097 18.086 18.086 18.086h75.284c9.989 0 18.086-8.097 18.086-18.086V24.024c0-9.989-8.097-18.086-18.086-18.086"/>
        <path fill="#E3E4DF" d="M391.444 5.645h-75.285c-9.988 0-18.085 8.097-18.085 18.085v54.279c0 9.988 8.097 18.085 18.085 18.085h75.285c9.989 0 18.085-8.097 18.085-18.085V23.73c0-9.988-8.096-18.085-18.085-18.085"/>
        <path fill="#E1E3DD" d="M391.15 5.352h-75.284c-9.988 0-18.086 8.097-18.086 18.085v54.278c0 9.989 8.098 18.086 18.086 18.086h75.284c9.99 0 18.086-8.097 18.086-18.086V23.437c0-9.988-8.096-18.085-18.086-18.085"/>
        <path fill="#E0E1DD" d="M390.857 5.058h-75.284c-9.989 0-18.086 8.097-18.086 18.086v54.278c0 9.989 8.097 18.086 18.086 18.086h75.284c9.989 0 18.086-8.097 18.086-18.086V23.144c0-9.989-8.097-18.086-18.086-18.086"/>
        <path fill="#DFE0DC" d="M390.564 4.765h-75.285c-9.988 0-18.085 8.097-18.085 18.086v54.278c0 9.988 8.097 18.085 18.085 18.085h75.285c9.989 0 18.085-8.097 18.085-18.085V22.851c0-9.989-8.096-18.086-18.085-18.086"/>
        <path fill="#DEDFDB" d="M390.271 4.472h-75.285c-9.988 0-18.086 8.097-18.086 18.085v54.278c0 9.989 8.098 18.086 18.086 18.086h75.285c9.989 0 18.085-8.097 18.085-18.086V22.557c0-9.988-8.096-18.085-18.085-18.085"/>
        <path fill="#DDDEDA" d="M389.978 4.178h-75.285c-9.989 0-18.086 8.097-18.086 18.086v54.278c0 9.989 8.097 18.086 18.086 18.086h75.285c9.988 0 18.085-8.097 18.085-18.086V22.264c0-9.989-8.097-18.086-18.085-18.086"/>
        <path fill="#DCDDD8" d="M389.685 3.885h-75.286c-9.988 0-18.085 8.097-18.085 18.086v54.278c0 9.988 8.097 18.085 18.085 18.085h75.286c9.988 0 18.085-8.097 18.085-18.085V21.971c0-9.989-8.097-18.086-18.085-18.086"/>
        <path fill="#DADBD7" d="M389.391 3.592h-75.285c-9.988 0-18.085 8.097-18.085 18.085v54.279c0 9.988 8.097 18.086 18.085 18.086h75.285c9.988 0 18.086-8.098 18.086-18.086V21.677c0-9.988-8.098-18.085-18.086-18.085"/>
        <path fill="#D9DAD6" d="M389.098 3.298h-75.285c-9.989 0-18.085 8.098-18.085 18.086v54.279c0 9.988 8.096 18.085 18.085 18.085h75.285c9.988 0 18.086-8.097 18.086-18.085V21.384c0-9.988-8.098-18.086-18.086-18.086"/>
        <path fill="#D8D9D5" d="M388.805 3.005H313.52c-9.989 0-18.086 8.097-18.086 18.086v54.278c0 9.988 8.097 18.086 18.086 18.086h75.285c9.988 0 18.085-8.098 18.085-18.086V21.091c0-9.989-8.097-18.086-18.085-18.086"/>
        <path fill="#D7D8D3" d="M388.511 2.712h-75.284c-9.989 0-18.086 8.097-18.086 18.085v54.279c0 9.988 8.097 18.085 18.086 18.085h75.284c9.988 0 18.086-8.097 18.086-18.085V20.797c0-9.988-8.098-18.085-18.086-18.085"/>
        <path fill="#D6D6D2" d="M388.218 2.419h-75.285c-9.989 0-18.085 8.097-18.085 18.085v54.278c0 9.989 8.096 18.086 18.085 18.086h75.285c9.988 0 18.086-8.097 18.086-18.086V20.504c0-9.988-8.098-18.085-18.086-18.085"/>
        <path fill="#D5D7D1" d="M387.925 2.125H312.64c-9.989 0-18.086 8.097-18.086 18.086v54.278c0 9.989 8.097 18.086 18.086 18.086h75.285c9.988 0 18.085-8.097 18.085-18.086V20.211c0-9.989-8.097-18.086-18.085-18.086"/>
        <path fill="#D4D5D0" d="M387.631 1.832h-75.284c-9.989 0-18.086 8.097-18.086 18.086v54.278c0 9.988 8.097 18.085 18.086 18.085h75.284c9.988 0 18.086-8.097 18.086-18.085V19.918c0-9.989-8.098-18.086-18.086-18.086"/>
        <path fill="#D2D4CF" d="M387.338 1.539h-75.285c-9.989 0-18.085 8.097-18.085 18.085v54.278c0 9.989 8.096 18.086 18.085 18.086h75.285c9.988 0 18.086-8.097 18.086-18.086V19.624c0-9.988-8.098-18.085-18.086-18.085"/>
        <path fill="#D1D3CF" d="M387.044 1.245H311.76c-9.989 0-18.086 8.097-18.086 18.086v54.278c0 9.989 8.097 18.086 18.086 18.086h75.284c9.989 0 18.086-8.097 18.086-18.086V19.331c0-9.989-8.097-18.086-18.086-18.086"/>
        <path fill="#D0D2CD" d="M386.751.952h-75.284c-9.988 0-18.086 8.097-18.086 18.086v54.278c0 9.988 8.098 18.085 18.086 18.085h75.284c9.988 0 18.086-8.097 18.086-18.085V19.038c0-9.989-8.098-18.086-18.086-18.086"/>
        <path fill="#CFD1CC" d="M386.458.659h-75.285c-9.988 0-18.085 8.097-18.085 18.085v54.278c0 9.989 8.097 18.086 18.085 18.086h75.285c9.988 0 18.086-8.097 18.086-18.086V18.744c0-9.988-8.098-18.085-18.086-18.085"/>
        <path fill="#CECFCB" d="M386.164.365H310.88c-9.988 0-18.086 8.097-18.086 18.086v54.278c0 9.989 8.098 18.086 18.086 18.086h75.284c9.989 0 18.086-8.097 18.086-18.086V18.451c0-9.989-8.097-18.086-18.086-18.086"/>
        <path fill="#CDCECA" d="M385.871.072h-75.284c-9.988 0-18.086 8.097-18.086 18.086v54.278c0 9.988 8.098 18.085 18.086 18.085h75.284c9.988 0 18.086-8.097 18.086-18.085V18.158c0-9.989-8.098-18.086-18.086-18.086"/>
        <path fill="#FFFFFE" d="M107.17 321.658H31.886c-9.989 0-18.086 8.098-18.086 18.086v54.278c0 9.989 8.097 18.085 18.086 18.085h75.284c9.989 0 18.086-8.096 18.086-18.085v-54.278c0-9.988-8.097-18.086-18.086-18.086"/>
        <path fill="#FFFFFE" d="M106.877 321.365H31.593c-9.989 0-18.086 8.097-18.086 18.085v54.279c0 9.989 8.097 18.085 18.086 18.085h75.284c9.989 0 18.086-8.096 18.086-18.085V339.45c0-9.988-8.097-18.085-18.086-18.085"/>
        <path fill="#FFFFFE" d="M106.584 321.071H31.299c-9.988 0-18.085 8.098-18.085 18.086v54.279c0 9.988 8.097 18.085 18.085 18.085h75.285c9.988 0 18.085-8.097 18.085-18.085v-54.279c0-9.988-8.097-18.086-18.085-18.086"/>
        <path fill="#FFFEFD" d="M106.291 320.778H31.006c-9.988 0-18.086 8.098-18.086 18.086v54.279c0 9.988 8.098 18.085 18.086 18.085h75.285c9.988 0 18.085-8.097 18.085-18.085v-54.279c0-9.988-8.097-18.086-18.085-18.086"/>
        <path fill="#FEFDFC" d="M105.997 320.485H30.713c-9.989 0-18.086 8.097-18.086 18.085v54.279c0 9.989 8.097 18.086 18.086 18.086h75.284c9.989 0 18.086-8.097 18.086-18.086V338.57c0-9.988-8.097-18.085-18.086-18.085"/>
        <path fill="#FDFCFB" d="M105.704 320.191H30.419c-9.988 0-18.085 8.098-18.085 18.086v54.279c0 9.988 8.097 18.086 18.085 18.086h75.285c9.988 0 18.086-8.098 18.086-18.086v-54.279c0-9.988-8.098-18.086-18.086-18.086"/>
        <path fill="#FBFBFA" d="M105.411 319.898H30.126c-9.988 0-18.086 8.098-18.086 18.086v54.279c0 9.988 8.098 18.085 18.086 18.085h75.285c9.988 0 18.086-8.097 18.086-18.085v-54.279c0-9.988-8.098-18.086-18.086-18.086"/>
        <path fill="#FAFAF9" d="M105.117 319.605H29.833c-9.989 0-18.086 8.097-18.086 18.085v54.279c0 9.989 8.097 18.086 18.086 18.086h75.284c9.989 0 18.086-8.097 18.086-18.086V337.69c0-9.988-8.097-18.085-18.086-18.085"/>
        <path fill="#FAFAF8" d="M104.824 319.312H29.54c-9.989 0-18.086 8.097-18.086 18.085v54.279c0 9.988 8.097 18.086 18.086 18.086h75.284c9.989 0 18.086-8.098 18.086-18.086v-54.279c0-9.988-8.097-18.085-18.086-18.085"/>
        <path fill="#F9F9F7" d="M104.531 319.019H29.246c-9.988 0-18.085 8.097-18.085 18.085v54.279c0 9.988 8.097 18.085 18.085 18.085h75.285c9.988 0 18.086-8.097 18.086-18.085v-54.279c0-9.988-8.098-18.085-18.086-18.085"/>
        <path fill="#F8F8F6" d="M104.237 318.726H28.953c-9.989 0-18.086 8.096-18.086 18.085v54.278c0 9.988 8.097 18.086 18.086 18.086h75.284c9.989 0 18.086-8.098 18.086-18.086v-54.278c0-9.989-8.097-18.085-18.086-18.085"/>
        <path fill="#F6F7F5" d="M103.944 318.432H28.66c-9.989 0-18.086 8.097-18.086 18.086v54.278c0 9.988 8.097 18.086 18.086 18.086h75.284c9.989 0 18.086-8.098 18.086-18.086v-54.278c0-9.989-8.097-18.086-18.086-18.086"/>
        <path fill="#F5F6F4" d="M103.651 318.139H28.366c-9.988 0-18.085 8.096-18.085 18.086v54.278c0 9.988 8.097 18.085 18.085 18.085h75.285c9.988 0 18.085-8.097 18.085-18.085v-54.278c0-9.99-8.097-18.086-18.085-18.086"/>
        <path fill="#F4F5F2" d="M103.357 317.846H28.073c-9.989 0-18.086 8.096-18.086 18.085v54.278c0 9.988 8.097 18.086 18.086 18.086h75.284c9.989 0 18.086-8.098 18.086-18.086v-54.278c0-9.989-8.097-18.085-18.086-18.085"/>
        <path fill="#F4F4F1" d="M103.064 317.552H27.78c-9.989 0-18.086 8.097-18.086 18.086v54.278c0 9.988 8.097 18.086 18.086 18.086h75.284c9.989 0 18.086-8.098 18.086-18.086v-54.278c0-9.989-8.097-18.086-18.086-18.086"/>
        <path fill="#F3F3F0" d="M102.771 317.259H27.486c-9.988 0-18.085 8.096-18.085 18.086v54.278c0 9.988 8.097 18.085 18.085 18.085h75.285c9.988 0 18.085-8.097 18.085-18.085v-54.278c0-9.99-8.097-18.086-18.085-18.086"/>
        <path fill="#F1F2EE" d="M102.478 316.966H27.193c-9.988 0-18.086 8.097-18.086 18.085v54.278c0 9.988 8.098 18.086 18.086 18.086h75.285c9.988 0 18.085-8.098 18.085-18.086v-54.278c0-9.988-8.097-18.085-18.085-18.085"/>
        <path fill="#F0F0ED" d="M102.185 316.672H26.9c-9.989 0-18.086 8.098-18.086 18.086v54.278c0 9.988 8.097 18.086 18.086 18.086h75.285c9.988 0 18.085-8.098 18.085-18.086v-54.278c0-9.988-8.097-18.086-18.085-18.086"/>
        <path fill="#EEEFEC" d="M101.891 316.379H26.606c-9.988 0-18.085 8.097-18.085 18.086v54.278c0 9.988 8.097 18.085 18.085 18.085h75.285c9.988 0 18.086-8.097 18.086-18.085v-54.278c0-9.989-8.098-18.086-18.086-18.086"/>
        <path fill="#EDEDEB" d="M101.598 316.086H26.313c-9.988 0-18.086 8.097-18.086 18.085v54.278c0 9.989 8.098 18.086 18.086 18.086h75.285c9.988 0 18.086-8.097 18.086-18.086v-54.278c0-9.988-8.098-18.085-18.086-18.085"/>
        <path fill="#EBECE9" d="M101.304 315.792H26.02c-9.989 0-18.086 8.098-18.086 18.086v54.278c0 9.989 8.097 18.086 18.086 18.086h75.284c9.989 0 18.086-8.097 18.086-18.086v-54.278c0-9.988-8.097-18.086-18.086-18.086"/>
        <path fill="#EAEBE8" d="M101.011 315.499H25.727c-9.989 0-18.086 8.097-18.086 18.085v54.279c0 9.989 8.097 18.085 18.086 18.085h75.284c9.989 0 18.086-8.096 18.086-18.085v-54.279c0-9.988-8.097-18.085-18.086-18.085"/>
        <path fill="#E9EAE6" d="M100.718 315.205H25.433c-9.988 0-18.085 8.098-18.085 18.086v54.278c0 9.989 8.097 18.086 18.085 18.086h75.285c9.988 0 18.086-8.097 18.086-18.086v-54.278c0-9.988-8.098-18.086-18.086-18.086"/>
        <path fill="#E8E9E5" d="M100.424 314.912H25.14c-9.989 0-18.086 8.098-18.086 18.086v54.278c0 9.989 8.097 18.086 18.086 18.086h75.284c9.989 0 18.086-8.097 18.086-18.086v-54.278c0-9.988-8.097-18.086-18.086-18.086"/>
        <path fill="#E8E9E4" d="M100.131 314.619H24.847c-9.989 0-18.086 8.097-18.086 18.085v54.279c0 9.989 8.097 18.085 18.086 18.085h75.284c9.989 0 18.086-8.096 18.086-18.085v-54.279c0-9.988-8.097-18.085-18.086-18.085"/>
        <path fill="#E7E7E3" d="M99.838 314.325H24.553c-9.988 0-18.085 8.098-18.085 18.086v54.278c0 9.989 8.097 18.086 18.085 18.086h75.285c9.988 0 18.085-8.097 18.085-18.086v-54.278c0-9.988-8.097-18.086-18.085-18.086"/>
        <path fill="#E5E6E1" d="M99.544 314.032H24.26c-9.989 0-18.086 8.098-18.086 18.086v54.278c0 9.989 8.097 18.085 18.086 18.085h75.284c9.989 0 18.086-8.096 18.086-18.085v-54.278c0-9.988-8.097-18.086-18.086-18.086"/>
        <path fill="#E4E5E0" d="M99.251 313.739H23.967c-9.989 0-18.086 8.097-18.086 18.085v54.279c0 9.989 8.097 18.085 18.086 18.085h75.284c9.989 0 18.086-8.096 18.086-18.085v-54.279c0-9.988-8.097-18.085-18.086-18.085"/>
        <path fill="#E3E4DF" d="M98.958 313.445H23.673c-9.988 0-18.085 8.098-18.085 18.086v54.279c0 9.988 8.097 18.086 18.085 18.086h75.285c9.988 0 18.085-8.098 18.085-18.086v-54.279c0-9.988-8.097-18.086-18.085-18.086"/>
        <path fill="#E1E3DD" d="M98.665 313.152H23.38c-9.988 0-18.086 8.098-18.086 18.086v54.279c0 9.988 8.098 18.085 18.086 18.085h75.285c9.988 0 18.085-8.097 18.085-18.085v-54.279c0-9.988-8.097-18.086-18.085-18.086"/>
        <path fill="#E0E1DD" d="M98.372 312.859H23.087c-9.989 0-18.086 8.097-18.086 18.085v54.279c0 9.989 8.097 18.086 18.086 18.086h75.285c9.988 0 18.085-8.097 18.085-18.086v-54.279c0-9.988-8.097-18.085-18.085-18.085"/>
        <path fill="#DFE0DC" d="M98.078 312.565H22.793c-9.988 0-18.085 8.098-18.085 18.086v54.279c0 9.988 8.097 18.086 18.085 18.086h75.285c9.988 0 18.086-8.098 18.086-18.086v-54.279c0-9.988-8.098-18.086-18.086-18.086"/>
        <path fill="#DEDFDB" d="M97.785 312.272H22.5c-9.988 0-18.085 8.098-18.085 18.086v54.279c0 9.988 8.097 18.085 18.085 18.085h75.285c9.988 0 18.086-8.097 18.086-18.085v-54.279c0-9.988-8.098-18.086-18.086-18.086"/>
        <path fill="#DDDEDA" d="M97.491 311.979H22.207c-9.989 0-18.086 8.097-18.086 18.085v54.279c0 9.989 8.097 18.086 18.086 18.086h75.284c9.989 0 18.086-8.097 18.086-18.086v-54.279c0-9.988-8.097-18.085-18.086-18.085"/>
        <path fill="#DCDDD8" d="M97.198 311.686H21.914c-9.989 0-18.086 8.097-18.086 18.085v54.279c0 9.988 8.097 18.086 18.086 18.086h75.284c9.989 0 18.086-8.098 18.086-18.086v-54.279c0-9.988-8.097-18.085-18.086-18.085"/>
        <path fill="#DADBD7" d="M96.905 311.393H21.62c-9.988 0-18.085 8.097-18.085 18.086v54.278c0 9.988 8.097 18.085 18.085 18.085h75.285c9.989 0 18.086-8.097 18.086-18.085v-54.278c0-9.989-8.097-18.086-18.086-18.086"/>
        <path fill="#D9DAD6" d="M96.611 311.1H21.327c-9.989 0-18.086 8.096-18.086 18.085v54.278c0 9.989 8.097 18.086 18.086 18.086h75.284c9.989 0 18.086-8.097 18.086-18.086v-54.278c0-9.989-8.097-18.085-18.086-18.085"/>
        <path fill="#D8D9D5" d="M96.318 310.806H21.034c-9.989 0-18.086 8.097-18.086 18.086v54.278c0 9.988 8.097 18.086 18.086 18.086h75.284c9.989 0 18.086-8.098 18.086-18.086v-54.278c0-9.989-8.097-18.086-18.086-18.086"/>
        <path fill="#D7D8D3" d="M96.025 310.513H20.74c-9.988 0-18.085 8.096-18.085 18.086v54.278c0 9.988 8.097 18.085 18.085 18.085h75.285c9.988 0 18.086-8.097 18.086-18.085v-54.278c0-9.99-8.098-18.086-18.086-18.086"/>
        <path fill="#D6D6D2" d="M95.731 310.22H20.447c-9.989 0-18.086 8.096-18.086 18.085v54.278c0 9.988 8.097 18.086 18.086 18.086h75.284c9.989 0 18.086-8.098 18.086-18.086v-54.278c0-9.989-8.097-18.085-18.086-18.085"/>
        <path fill="#D5D7D1" d="M95.438 309.926H20.154c-9.989 0-18.086 8.097-18.086 18.086v54.278c0 9.988 8.097 18.086 18.086 18.086h75.284c9.989 0 18.086-8.098 18.086-18.086v-54.278c0-9.989-8.097-18.086-18.086-18.086"/>
        <path fill="#D4D5D0" d="M95.145 309.633H19.86c-9.988 0-18.085 8.096-18.085 18.086v54.278c0 9.988 8.097 18.085 18.085 18.085h75.285c9.988 0 18.085-8.097 18.085-18.085v-54.278c0-9.99-8.097-18.086-18.085-18.086"/>
        <path fill="#D2D4CF" d="M94.852 309.34H19.567c-9.988 0-18.086 8.097-18.086 18.085v54.278c0 9.988 8.098 18.086 18.086 18.086h75.285c9.988 0 18.086-8.098 18.086-18.086v-54.278c0-9.988-8.098-18.085-18.086-18.085"/>
        <path fill="#D1D3CF" d="M94.559 309.046H19.274c-9.989 0-18.086 8.098-18.086 18.086v54.278c0 9.988 8.097 18.086 18.086 18.086h75.285c9.988 0 18.085-8.098 18.085-18.086v-54.278c0-9.988-8.097-18.086-18.085-18.086"/>
        <path fill="#D0D2CD" d="M94.265 308.753H18.98c-9.988 0-18.085 8.097-18.085 18.086v54.278c0 9.988 8.097 18.085 18.085 18.085h75.285c9.988 0 18.086-8.097 18.086-18.085v-54.278c0-9.989-8.098-18.086-18.086-18.086"/>
        <path fill="#CFD1CC" d="M93.972 308.46H18.687c-9.988 0-18.085 8.097-18.085 18.085v54.278c0 9.989 8.097 18.086 18.085 18.086h75.285c9.988 0 18.086-8.097 18.086-18.086v-54.278c0-9.988-8.098-18.085-18.086-18.085"/>
        <path fill="#CECFCB" d="M93.678 308.166H18.394c-9.989 0-18.086 8.098-18.086 18.086v54.278c0 9.989 8.097 18.086 18.086 18.086h75.284c9.989 0 18.086-8.097 18.086-18.086v-54.278c0-9.988-8.097-18.086-18.086-18.086"/>
        <path fill="#CDCECA" d="M93.385 307.873H18.101c-9.989 0-18.086 8.097-18.086 18.086v54.278c0 9.989 8.097 18.085 18.086 18.085h75.284c9.989 0 18.086-8.096 18.086-18.085v-54.278c0-9.989-8.097-18.086-18.086-18.086"/>
        <path fill="#FFFFFE" d="M399.656 321.658h-75.284c-9.988 0-18.086 8.098-18.086 18.086v54.278c0 9.989 8.098 18.085 18.086 18.085h75.284c9.99 0 18.086-8.096 18.086-18.085v-54.278c0-9.988-8.096-18.086-18.086-18.086"/>
        <path fill="#FFFFFE" d="M399.363 321.365h-75.284c-9.989 0-18.086 8.097-18.086 18.085v54.279c0 9.989 8.097 18.085 18.086 18.085h75.284c9.989 0 18.086-8.096 18.086-18.085V339.45c0-9.988-8.097-18.085-18.086-18.085"/>
        <path fill="#FFFFFE" d="M399.07 321.071h-75.285c-9.988 0-18.085 8.098-18.085 18.086v54.279c0 9.988 8.097 18.085 18.085 18.085h75.285c9.989 0 18.085-8.097 18.085-18.085v-54.279c0-9.988-8.096-18.086-18.085-18.086"/>
        <path fill="#FFFEFD" d="M398.776 320.778h-75.284c-9.988 0-18.086 8.098-18.086 18.086v54.279c0 9.988 8.098 18.085 18.086 18.085h75.284c9.99 0 18.086-8.097 18.086-18.085v-54.279c0-9.988-8.096-18.086-18.086-18.086"/>
        <path fill="#FEFDFC" d="M398.483 320.485h-75.284c-9.989 0-18.086 8.097-18.086 18.085v54.279c0 9.989 8.097 18.086 18.086 18.086h75.284c9.989 0 18.086-8.097 18.086-18.086V338.57c0-9.988-8.097-18.085-18.086-18.085"/>
        <path fill="#FDFCFB" d="M398.19 320.191h-75.285c-9.988 0-18.085 8.098-18.085 18.086v54.279c0 9.988 8.097 18.086 18.085 18.086h75.285c9.989 0 18.085-8.098 18.085-18.086v-54.279c0-9.988-8.096-18.086-18.085-18.086"/>
        <path fill="#FBFBFA" d="M397.896 319.898h-75.284c-9.988 0-18.086 8.098-18.086 18.086v54.279c0 9.988 8.098 18.085 18.086 18.085h75.284c9.989 0 18.086-8.097 18.086-18.085v-54.279c0-9.988-8.097-18.086-18.086-18.086"/>
        <path fill="#FAFAF9" d="M397.604 319.605h-75.286c-9.988 0-18.085 8.097-18.085 18.085v54.279c0 9.989 8.097 18.086 18.085 18.086h75.286c9.988 0 18.085-8.097 18.085-18.086V337.69c0-9.988-8.097-18.085-18.085-18.085"/>
        <path fill="#FAFAF8" d="M397.311 319.312h-75.286c-9.988 0-18.086 8.097-18.086 18.085v54.279c0 9.988 8.098 18.086 18.086 18.086h75.286c9.988 0 18.085-8.098 18.085-18.086v-54.279c0-9.988-8.097-18.085-18.085-18.085"/>
        <path fill="#F9F9F7" d="M397.017 319.019h-75.285c-9.988 0-18.086 8.097-18.086 18.085v54.279c0 9.988 8.098 18.085 18.086 18.085h75.285c9.988 0 18.086-8.097 18.086-18.085v-54.279c0-9.988-8.098-18.085-18.086-18.085"/>
        <path fill="#F8F8F6" d="M396.724 318.726h-75.286c-9.988 0-18.084 8.096-18.084 18.085v54.278c0 9.988 8.096 18.086 18.084 18.086h75.286c9.988 0 18.086-8.098 18.086-18.086v-54.278c0-9.989-8.098-18.085-18.086-18.085"/>
        <path fill="#F6F7F5" d="M396.431 318.432h-75.285c-9.989 0-18.086 8.097-18.086 18.086v54.278c0 9.988 8.097 18.086 18.086 18.086h75.285c9.988 0 18.085-8.098 18.085-18.086v-54.278c0-9.989-8.097-18.086-18.085-18.086"/>
        <path fill="#F5F6F4" d="M396.137 318.139h-75.284c-9.989 0-18.086 8.096-18.086 18.086v54.278c0 9.988 8.097 18.085 18.086 18.085h75.284c9.988 0 18.086-8.097 18.086-18.085v-54.278c0-9.99-8.098-18.086-18.086-18.086"/>
        <path fill="#F4F5F2" d="M395.844 317.846h-75.285c-9.989 0-18.085 8.096-18.085 18.085v54.278c0 9.988 8.096 18.086 18.085 18.086h75.285c9.988 0 18.086-8.098 18.086-18.086v-54.278c0-9.989-8.098-18.085-18.086-18.085"/>
        <path fill="#F4F4F1" d="M395.551 317.552h-75.285c-9.989 0-18.086 8.097-18.086 18.086v54.278c0 9.988 8.097 18.086 18.086 18.086h75.285c9.988 0 18.085-8.098 18.085-18.086v-54.278c0-9.989-8.097-18.086-18.085-18.086"/>
        <path fill="#F3F3F0" d="M395.257 317.259h-75.284c-9.989 0-18.086 8.096-18.086 18.086v54.278c0 9.988 8.097 18.085 18.086 18.085h75.284c9.988 0 18.086-8.097 18.086-18.085v-54.278c0-9.99-8.098-18.086-18.086-18.086"/>
        <path fill="#F1F2EE" d="M394.964 316.966h-75.285c-9.989 0-18.085 8.097-18.085 18.085v54.278c0 9.988 8.096 18.086 18.085 18.086h75.285c9.988 0 18.086-8.098 18.086-18.086v-54.278c0-9.988-8.098-18.085-18.086-18.085"/>
        <path fill="#F0F0ED" d="M394.67 316.672h-75.284c-9.989 0-18.086 8.098-18.086 18.086v54.278c0 9.988 8.097 18.086 18.086 18.086h75.284c9.989 0 18.086-8.098 18.086-18.086v-54.278c0-9.988-8.097-18.086-18.086-18.086"/>
        <path fill="#EEEFEC" d="M394.377 316.379h-75.284c-9.989 0-18.086 8.097-18.086 18.086v54.278c0 9.988 8.097 18.085 18.086 18.085h75.284c9.988 0 18.086-8.097 18.086-18.085v-54.278c0-9.989-8.098-18.086-18.086-18.086"/>
        <path fill="#EDEDEB" d="M394.084 316.086h-75.285c-9.988 0-18.085 8.097-18.085 18.085v54.278c0 9.989 8.097 18.086 18.085 18.086h75.285c9.988 0 18.086-8.097 18.086-18.086v-54.278c0-9.988-8.098-18.085-18.086-18.085"/>
        <path fill="#EBECE9" d="M393.79 315.792h-75.284c-9.988 0-18.086 8.098-18.086 18.086v54.278c0 9.989 8.098 18.086 18.086 18.086h75.284c9.989 0 18.086-8.097 18.086-18.086v-54.278c0-9.988-8.097-18.086-18.086-18.086"/>
        <path fill="#EAEBE8" d="M393.497 315.499h-75.284c-9.988 0-18.086 8.097-18.086 18.085v54.279c0 9.989 8.098 18.085 18.086 18.085h75.284c9.988 0 18.086-8.096 18.086-18.085v-54.279c0-9.988-8.098-18.085-18.086-18.085"/>
        <path fill="#E9EAE6" d="M393.204 315.205h-75.285c-9.988 0-18.085 8.098-18.085 18.086v54.278c0 9.989 8.097 18.086 18.085 18.086h75.285c9.988 0 18.085-8.097 18.085-18.086v-54.278c0-9.988-8.097-18.086-18.085-18.086"/>
        <path fill="#E8E9E5" d="M392.91 314.912h-75.284c-9.988 0-18.086 8.098-18.086 18.086v54.278c0 9.989 8.098 18.086 18.086 18.086h75.284c9.989 0 18.086-8.097 18.086-18.086v-54.278c0-9.988-8.097-18.086-18.086-18.086"/>
        <path fill="#E8E9E4" d="M392.617 314.619h-75.284c-9.989 0-18.086 8.097-18.086 18.085v54.279c0 9.989 8.097 18.085 18.086 18.085h75.284c9.988 0 18.086-8.096 18.086-18.085v-54.279c0-9.988-8.098-18.085-18.086-18.085"/>
        <path fill="#E7E7E3" d="M392.324 314.325h-75.285c-9.988 0-18.085 8.098-18.085 18.086v54.278c0 9.989 8.097 18.086 18.085 18.086h75.285c9.989 0 18.085-8.097 18.085-18.086v-54.278c0-9.988-8.096-18.086-18.085-18.086"/>
        <path fill="#E5E6E1" d="M392.03 314.032h-75.284c-9.988 0-18.086 8.098-18.086 18.086v54.278c0 9.989 8.098 18.085 18.086 18.085h75.284c9.99 0 18.086-8.096 18.086-18.085v-54.278c0-9.988-8.096-18.086-18.086-18.086"/>
        <path fill="#E4E5E0" d="M391.737 313.739h-75.284c-9.989 0-18.086 8.097-18.086 18.085v54.279c0 9.989 8.097 18.085 18.086 18.085h75.284c9.989 0 18.086-8.096 18.086-18.085v-54.279c0-9.988-8.097-18.085-18.086-18.085"/>
        <path fill="#E3E4DF" d="M391.444 313.445h-75.285c-9.988 0-18.085 8.098-18.085 18.086v54.279c0 9.988 8.097 18.086 18.085 18.086h75.285c9.989 0 18.085-8.098 18.085-18.086v-54.279c0-9.988-8.096-18.086-18.085-18.086"/>
        <path fill="#E1E3DD" d="M391.15 313.152h-75.284c-9.988 0-18.086 8.098-18.086 18.086v54.279c0 9.988 8.098 18.085 18.086 18.085h75.284c9.99 0 18.086-8.097 18.086-18.085v-54.279c0-9.988-8.096-18.086-18.086-18.086"/>
        <path fill="#E0E1DD" d="M390.857 312.859h-75.284c-9.989 0-18.086 8.097-18.086 18.085v54.279c0 9.989 8.097 18.086 18.086 18.086h75.284c9.989 0 18.086-8.097 18.086-18.086v-54.279c0-9.988-8.097-18.085-18.086-18.085"/>
        <path fill="#DFE0DC" d="M390.564 312.565h-75.285c-9.988 0-18.085 8.098-18.085 18.086v54.279c0 9.988 8.097 18.086 18.085 18.086h75.285c9.989 0 18.085-8.098 18.085-18.086v-54.279c0-9.988-8.096-18.086-18.085-18.086"/>
        <path fill="#DEDFDB" d="M390.271 312.272h-75.285c-9.988 0-18.086 8.098-18.086 18.086v54.279c0 9.988 8.098 18.085 18.086 18.085h75.285c9.989 0 18.085-8.097 18.085-18.085v-54.279c0-9.988-8.096-18.086-18.085-18.086"/>
        <path fill="#DDDEDA" d="M389.978 311.979h-75.285c-9.989 0-18.086 8.097-18.086 18.085v54.279c0 9.989 8.097 18.086 18.086 18.086h75.285c9.988 0 18.085-8.097 18.085-18.086v-54.279c0-9.988-8.097-18.085-18.085-18.085"/>
        <path fill="#DCDDD8" d="M389.685 311.686h-75.286c-9.988 0-18.085 8.097-18.085 18.085v54.279c0 9.988 8.097 18.086 18.085 18.086h75.286c9.988 0 18.085-8.098 18.085-18.086v-54.279c0-9.988-8.097-18.085-18.085-18.085"/>
        <path fill="#DADBD7" d="M389.391 311.393h-75.285c-9.988 0-18.085 8.097-18.085 18.086v54.278c0 9.988 8.097 18.085 18.085 18.085h75.285c9.988 0 18.086-8.097 18.086-18.085v-54.278c0-9.989-8.098-18.086-18.086-18.086"/>
        <path fill="#D9DAD6" d="M389.098 311.1h-75.285c-9.989 0-18.085 8.096-18.085 18.085v54.278c0 9.989 8.096 18.086 18.085 18.086h75.285c9.988 0 18.086-8.097 18.086-18.086v-54.278c0-9.989-8.098-18.085-18.086-18.085"/>
        <path fill="#D8D9D5" d="M388.805 310.806H313.52c-9.989 0-18.086 8.097-18.086 18.086v54.278c0 9.988 8.097 18.086 18.086 18.086h75.285c9.988 0 18.085-8.098 18.085-18.086v-54.278c0-9.989-8.097-18.086-18.085-18.086"/>
        <path fill="#D7D8D3" d="M388.511 310.513h-75.284c-9.989 0-18.086 8.096-18.086 18.086v54.278c0 9.988 8.097 18.085 18.086 18.085h75.284c9.988 0 18.086-8.097 18.086-18.085v-54.278c0-9.99-8.098-18.086-18.086-18.086"/>
        <path fill="#D6D6D2" d="M388.218 310.22h-75.285c-9.989 0-18.085 8.096-18.085 18.085v54.278c0 9.988 8.096 18.086 18.085 18.086h75.285c9.988 0 18.086-8.098 18.086-18.086v-54.278c0-9.989-8.098-18.085-18.086-18.085"/>
        <path fill="#D5D7D1" d="M387.925 309.926H312.64c-9.989 0-18.086 8.097-18.086 18.086v54.278c0 9.988 8.097 18.086 18.086 18.086h75.285c9.988 0 18.085-8.098 18.085-18.086v-54.278c0-9.989-8.097-18.086-18.085-18.086"/>
        <path fill="#D4D5D0" d="M387.631 309.633h-75.284c-9.989 0-18.086 8.096-18.086 18.086v54.278c0 9.988 8.097 18.085 18.086 18.085h75.284c9.988 0 18.086-8.097 18.086-18.085v-54.278c0-9.99-8.098-18.086-18.086-18.086"/>
        <path fill="#D2D4CF" d="M387.338 309.34h-75.285c-9.989 0-18.085 8.097-18.085 18.085v54.278c0 9.988 8.096 18.086 18.085 18.086h75.285c9.988 0 18.086-8.098 18.086-18.086v-54.278c0-9.988-8.098-18.085-18.086-18.085"/>
        <path fill="#D1D3CF" d="M387.044 309.046H311.76c-9.989 0-18.086 8.098-18.086 18.086v54.278c0 9.988 8.097 18.086 18.086 18.086h75.284c9.989 0 18.086-8.098 18.086-18.086v-54.278c0-9.988-8.097-18.086-18.086-18.086"/>
        <path fill="#D0D2CD" d="M386.751 308.753h-75.284c-9.988 0-18.086 8.097-18.086 18.086v54.278c0 9.988 8.098 18.085 18.086 18.085h75.284c9.988 0 18.086-8.097 18.086-18.085v-54.278c0-9.989-8.098-18.086-18.086-18.086"/>
        <path fill="#CFD1CC" d="M386.458 308.46h-75.285c-9.988 0-18.085 8.097-18.085 18.085v54.278c0 9.989 8.097 18.086 18.085 18.086h75.285c9.988 0 18.086-8.097 18.086-18.086v-54.278c0-9.988-8.098-18.085-18.086-18.085"/>
        <path fill="#CECFCB" d="M386.164 308.166H310.88c-9.988 0-18.086 8.098-18.086 18.086v54.278c0 9.989 8.098 18.086 18.086 18.086h75.284c9.989 0 18.086-8.097 18.086-18.086v-54.278c0-9.988-8.097-18.086-18.086-18.086"/>
        <path fill="#CDCECA" d="M385.871 307.873h-75.284c-9.988 0-18.086 8.097-18.086 18.086v54.278c0 9.989 8.098 18.085 18.086 18.085h75.284c9.988 0 18.086-8.096 18.086-18.085v-54.278c0-9.989-8.098-18.086-18.086-18.086"/>
        <path fill="#FFFFFE" d="M305.213 257.343H123.926c-13.647 0-25.742-6.641-33.231-16.868 7.507 10.02 19.478 16.506 32.963 16.506h181.287c22.732 0 41.16-18.427 41.16-41.159a40.972 40.972 0 0 0-7.926-24.287 40.982 40.982 0 0 1 8.193 24.649c0 22.731-18.428 41.159-41.159 41.159"/>
        <path fill="#FFFFFE" d="M304.945 256.981H123.658c-13.485 0-25.456-6.486-32.963-16.506l-.249-.336c7.508 10.006 19.471 16.481 32.944 16.481h181.287c22.732 0 41.16-18.428 41.16-41.159a40.977 40.977 0 0 0-7.932-24.295l.274.369a40.972 40.972 0 0 1 7.926 24.287c0 22.732-18.428 41.159-41.16 41.159"/>
        <path fill="#FFFFFE" d="M304.677 256.62H123.39c-13.473 0-25.436-6.475-32.944-16.481l-.266-.359c7.508 10.006 19.469 16.479 32.942 16.479h181.287c22.732 0 41.159-18.428 41.159-41.159a40.969 40.969 0 0 0-7.966-24.343 40.977 40.977 0 0 1 8.235 24.704c0 22.731-18.428 41.159-41.16 41.159"/>
        <path fill="#FFFEFD" d="M304.409 256.259H123.122c-13.473 0-25.434-6.473-32.942-16.479l-.289-.389c7.508 10.02 19.479 16.506 32.963 16.506h181.288c22.731 0 41.159-18.427 41.159-41.159a40.974 40.974 0 0 0-7.922-24.281c.074.099.15.2.223.3a40.969 40.969 0 0 1 7.966 24.343c0 22.731-18.427 41.159-41.159 41.159"/>
        <path fill="#FEFDFC" d="M304.142 255.897H122.854c-13.484 0-25.455-6.486-32.963-16.506l-.249-.336c7.509 10.006 19.471 16.481 32.944 16.481h181.287c22.732 0 41.16-18.428 41.16-41.159a40.984 40.984 0 0 0-7.924-24.286 40.974 40.974 0 0 1 8.192 24.647c0 22.732-18.428 41.159-41.159 41.159"/>
        <path fill="#FDFCFB" d="M303.873 255.536H122.586c-13.473 0-25.435-6.475-32.944-16.481l-.266-.359c7.509 10.007 19.469 16.479 32.942 16.479h181.287c22.732 0 41.16-18.428 41.16-41.159v-.001a40.977 40.977 0 0 0-7.96-24.333l.304.409a40.984 40.984 0 0 1 7.924 24.286c0 22.731-18.428 41.159-41.16 41.159"/>
        <path fill="#FBFBFA" d="M303.605 255.175H122.318c-13.473 0-25.433-6.472-32.942-16.479a35.456 35.456 0 0 1-.288-.389c7.507 10.021 19.478 16.506 32.962 16.506h181.288c22.731 0 41.159-18.427 41.159-41.159v-.001a40.974 40.974 0 0 0-7.927-24.288c.079.106.157.21.235.317a40.977 40.977 0 0 1 7.96 24.333v.001c0 22.731-18.428 41.159-41.16 41.159"/>
        <path fill="#FAFAF9" d="M303.338 254.813H122.05c-13.484 0-25.455-6.485-32.962-16.506a39.469 39.469 0 0 1-.26-.35c7.508 10.015 19.474 16.495 32.955 16.495h181.286c22.733 0 41.16-18.428 41.16-41.16a40.973 40.973 0 0 0-7.931-24.294 40.974 40.974 0 0 1 8.199 24.655v.001c0 22.732-18.428 41.159-41.159 41.159"/>
        <path fill="#FAFAF8" d="M303.069 254.452H121.783c-13.481 0-25.447-6.48-32.955-16.495a37.259 37.259 0 0 1-.252-.341c7.508 10.003 19.468 16.475 32.939 16.475h181.287c22.731 0 41.16-18.428 41.16-41.16a40.973 40.973 0 0 0-7.939-24.304 40.973 40.973 0 0 1 8.206 24.665c0 22.732-18.427 41.16-41.16 41.16"/>
        <path fill="#F9F9F7" d="M302.802 254.091H121.515c-13.471 0-25.431-6.472-32.939-16.475a36.291 36.291 0 0 1-.292-.393c7.508 10.021 19.478 16.506 32.963 16.506h181.287c22.732 0 41.159-18.427 41.159-41.16a40.975 40.975 0 0 0-7.948-24.317 40.973 40.973 0 0 1 8.217 24.679c0 22.732-18.429 41.16-41.16 41.16"/>
        <path fill="#F8F8F6" d="M302.534 253.729H121.247c-13.485 0-25.455-6.485-32.963-16.506l-.265-.358c7.508 10.019 19.477 16.502 32.96 16.502h181.287c22.732 0 41.16-18.427 41.16-41.159 0-9.084-2.943-17.48-7.926-24.287l.245.331a40.975 40.975 0 0 1 7.948 24.317c0 22.733-18.427 41.16-41.159 41.16"/>
        <path fill="#F6F7F5" d="M302.266 253.367H120.979c-13.483 0-25.452-6.483-32.96-16.502-.088-.117-.174-.234-.261-.352 7.508 10.014 19.474 16.493 32.953 16.493h181.287c22.732 0 41.16-18.428 41.16-41.159a40.979 40.979 0 0 0-7.939-24.305l.281.379a40.975 40.975 0 0 1 7.926 24.287c0 22.732-18.428 41.159-41.16 41.159"/>
        <path fill="#F5F6F4" d="M301.998 253.006H120.711c-13.479 0-25.445-6.479-32.953-16.493-.093-.125-.187-.251-.279-.377 7.507 10.022 19.478 16.509 32.964 16.509H301.73c22.732 0 41.16-18.428 41.16-41.16 0-9.1-2.953-17.51-7.954-24.324a40.979 40.979 0 0 1 8.222 24.686c0 22.731-18.428 41.159-41.16 41.159"/>
        <path fill="#F4F5F2" d="M301.73 252.645H120.443c-13.486 0-25.457-6.487-32.964-16.509l-.25-.337c7.508 10.008 19.471 16.484 32.946 16.484h181.287c22.732 0 41.16-18.428 41.16-41.159a40.972 40.972 0 0 0-7.933-24.297c.082.11.166.222.247.334a40.967 40.967 0 0 1 7.954 24.324c0 22.732-18.428 41.16-41.16 41.16"/>
        <path fill="#F4F4F1" d="M301.462 252.283H120.175c-13.475 0-25.438-6.476-32.946-16.484l-.261-.352c7.509 10.003 19.468 16.475 32.939 16.475h181.287c22.732 0 41.16-18.428 41.16-41.159a40.979 40.979 0 0 0-7.939-24.305l.274.369a40.972 40.972 0 0 1 7.933 24.297c0 22.731-18.428 41.159-41.16 41.159"/>
        <path fill="#F3F3F0" d="M301.194 251.922H119.907c-13.471 0-25.43-6.472-32.939-16.475a57.634 57.634 0 0 1-.293-.395c7.507 10.022 19.479 16.509 32.965 16.509h181.287c22.731 0 41.159-18.428 41.159-41.16a40.978 40.978 0 0 0-7.947-24.316 40.979 40.979 0 0 1 8.215 24.678c0 22.731-18.428 41.159-41.16 41.159"/>
        <path fill="#F1F2EE" d="M300.927 251.561H119.64c-13.486 0-25.458-6.487-32.965-16.509l-.251-.338c7.509 10.01 19.471 16.485 32.948 16.485h181.286c22.733 0 41.16-18.428 41.16-41.159a40.977 40.977 0 0 0-7.927-24.289 40.978 40.978 0 0 1 8.195 24.65c0 22.732-18.428 41.16-41.159 41.16"/>
        <path fill="#F0F0ED" d="M300.658 251.199H119.372c-13.477 0-25.439-6.475-32.948-16.485l-.265-.358c7.509 10.007 19.471 16.482 32.945 16.482h181.287c22.732 0 41.16-18.428 41.16-41.159v-.001c0-9.081-2.94-17.474-7.921-24.28a40.977 40.977 0 0 1 8.188 24.642c0 22.731-18.427 41.159-41.16 41.159"/>
        <path fill="#EEEFEC" d="M300.391 250.838H119.104c-13.474 0-25.436-6.475-32.945-16.482a39.167 39.167 0 0 1-.288-.389c7.507 10.023 19.479 16.51 32.965 16.51h181.287c22.731 0 41.159-18.428 41.159-41.161 0-9.105-2.957-17.52-7.963-24.337a40.968 40.968 0 0 1 8.232 24.699v.001c0 22.731-18.428 41.159-41.16 41.159"/>
        <path fill="#EDEDEB" d="M300.123 250.477H118.836c-13.486 0-25.458-6.487-32.965-16.51a41.677 41.677 0 0 1-.249-.336c7.508 10.009 19.471 16.484 32.946 16.484h181.287c22.732 0 41.16-18.428 41.16-41.16a40.963 40.963 0 0 0-7.935-24.298 40.975 40.975 0 0 1 8.202 24.659c0 22.733-18.428 41.161-41.159 41.161"/>
        <path fill="#EBECE9" d="M299.855 250.115H118.568c-13.475 0-25.438-6.475-32.946-16.484a53.667 53.667 0 0 1-.283-.381c7.508 10.021 19.476 16.504 32.961 16.504h181.287c22.732 0 41.16-18.428 41.16-41.16a40.97 40.97 0 0 0-7.926-24.287 40.963 40.963 0 0 1 8.194 24.648c0 22.732-18.428 41.16-41.16 41.16"/>
        <path fill="#EAEBE8" d="M299.587 249.754H118.3c-13.485 0-25.453-6.483-32.961-16.504l-.252-.34c7.509 10.008 19.47 16.483 32.945 16.483h181.287c22.732 0 41.16-18.428 41.16-41.161a40.977 40.977 0 0 0-7.952-24.322 40.97 40.97 0 0 1 8.22 24.684c0 22.732-18.428 41.16-41.16 41.16"/>
        <path fill="#E9EAE6" d="M299.319 249.393H118.032c-13.475 0-25.436-6.475-32.945-16.483a57.833 57.833 0 0 1-.293-.396c7.507 10.026 19.481 16.516 32.97 16.516h181.287c22.732 0 41.16-18.428 41.16-41.159a40.978 40.978 0 0 0-7.934-24.298l.25.337a40.977 40.977 0 0 1 7.952 24.322c0 22.733-18.428 41.161-41.16 41.161"/>
        <path fill="#E8E9E5" d="M299.051 249.03H117.764c-13.489 0-25.463-6.49-32.97-16.516a44.15 44.15 0 0 1-.256-.346c7.507 10.019 19.475 16.501 32.958 16.501h181.287c22.733 0 41.16-18.428 41.16-41.159a40.977 40.977 0 0 0-7.927-24.289l.261.352a40.978 40.978 0 0 1 7.934 24.298c0 22.731-18.428 41.159-41.16 41.159"/>
        <path fill="#E8E9E4" d="M298.783 248.669H117.496c-13.483 0-25.451-6.482-32.958-16.501-.086-.114-.171-.23-.256-.345 7.508 10.008 19.472 16.485 32.946 16.485h181.288c22.731 0 41.159-18.428 41.159-41.16a40.975 40.975 0 0 0-7.965-24.34 40.977 40.977 0 0 1 8.233 24.702c0 22.731-18.427 41.159-41.16 41.159"/>
        <path fill="#E7E7E3" d="M298.516 248.308H117.228c-13.474 0-25.438-6.477-32.946-16.485-.09-.12-.177-.237-.265-.358 7.508 10.007 19.47 16.481 32.943 16.481h181.287c22.732 0 41.16-18.427 41.16-41.159a40.977 40.977 0 0 0-7.932-24.295l.235.316a40.975 40.975 0 0 1 7.965 24.34c0 22.732-18.428 41.16-41.159 41.16"/>
        <path fill="#E5E6E1" d="M298.247 247.946H116.96c-13.473 0-25.435-6.474-32.943-16.481a27.5 27.5 0 0 1-.286-.386c7.507 10.021 19.477 16.506 32.961 16.506h181.287c22.733 0 41.161-18.428 41.161-41.159a40.98 40.98 0 0 0-7.923-24.283 40.977 40.977 0 0 1 8.19 24.644c0 22.732-18.428 41.159-41.16 41.159"/>
        <path fill="#E4E5E0" d="M297.979 247.585H116.692c-13.484 0-25.454-6.485-32.961-16.506a42.23 42.23 0 0 1-.251-.338c7.508 10.008 19.47 16.483 32.945 16.483h181.287c22.731 0 41.159-18.428 41.159-41.16a40.969 40.969 0 0 0-7.958-24.331 40.98 40.98 0 0 1 8.227 24.693c0 22.731-18.428 41.159-41.161 41.159"/>
        <path fill="#E3E4DF" d="M297.712 247.224H116.425c-13.475 0-25.437-6.475-32.945-16.483a30.026 30.026 0 0 1-.265-.358c7.508 10.007 19.468 16.479 32.942 16.479h181.286c22.733 0 41.16-18.427 41.16-41.159v-.001a40.978 40.978 0 0 0-7.924-24.285 40.969 40.969 0 0 1 8.192 24.647c0 22.732-18.428 41.16-41.159 41.16"/>
        <path fill="#E1E3DD" d="M297.443 246.862H116.157c-13.474 0-25.434-6.472-32.942-16.479a27.976 27.976 0 0 1-.289-.389c7.507 10.021 19.478 16.507 32.963 16.507h181.287c22.732 0 41.16-18.428 41.16-41.159v-.001a40.984 40.984 0 0 0-7.925-24.286c.09.121.179.24.268.362a40.978 40.978 0 0 1 7.924 24.285v.001c0 22.732-18.427 41.159-41.16 41.159"/>
        <path fill="#E0E1DD" d="M297.176 246.501H115.889c-13.485 0-25.456-6.486-32.963-16.507a43.976 43.976 0 0 1-.256-.345c7.508 10.012 19.473 16.491 32.951 16.491h181.287c22.732 0 41.159-18.428 41.159-41.161a40.976 40.976 0 0 0-7.968-24.344l.312.42a40.984 40.984 0 0 1 7.925 24.286v.001c0 22.731-18.428 41.159-41.16 41.159"/>
        <path fill="#DFE0DC" d="M296.908 246.14H115.621c-13.478 0-25.443-6.479-32.951-16.491-.087-.117-.173-.232-.259-.35 7.509 10.006 19.47 16.479 32.942 16.479H296.64c22.732 0 41.16-18.427 41.16-41.16a40.976 40.976 0 0 0-7.93-24.293l.229.31a40.976 40.976 0 0 1 7.968 24.344c0 22.733-18.427 41.161-41.159 41.161"/>
        <path fill="#DEDFDB" d="M296.64 245.778H115.353c-13.472 0-25.433-6.473-32.942-16.479a27.658 27.658 0 0 1-.287-.387c7.507 10.021 19.477 16.505 32.961 16.505h181.287c22.733 0 41.16-18.428 41.16-41.16a40.985 40.985 0 0 0-7.92-24.28l.258.348a40.976 40.976 0 0 1 7.93 24.293c0 22.733-18.428 41.16-41.16 41.16"/>
        <path fill="#DDDEDA" d="M296.372 245.417H115.085c-13.484 0-25.454-6.484-32.961-16.505-.088-.118-.177-.237-.263-.355 7.507 10.017 19.475 16.498 32.956 16.498h181.287c22.732 0 41.16-18.427 41.16-41.159 0-9.105-2.957-17.52-7.961-24.336l.309.417a40.985 40.985 0 0 1 7.92 24.28c0 22.732-18.427 41.16-41.16 41.16"/>
        <path fill="#DCDDD8" d="M296.104 245.055H114.817c-13.481 0-25.449-6.481-32.956-16.498-.09-.12-.18-.241-.268-.362 7.508 10.018 19.475 16.498 32.956 16.498h181.288c22.731 0 41.159-18.427 41.159-41.159a40.974 40.974 0 0 0-7.928-24.29l.235.316a40.982 40.982 0 0 1 7.961 24.336c0 22.732-18.428 41.159-41.16 41.159"/>
        <path fill="#DADBD7" d="M295.837 244.693H114.549c-13.481 0-25.448-6.48-32.956-16.498a25.258 25.258 0 0 1-.274-.37c7.507 10.021 19.478 16.507 32.962 16.507h181.287c22.733 0 41.161-18.428 41.161-41.159a40.978 40.978 0 0 0-7.929-24.291l.268.362a40.974 40.974 0 0 1 7.928 24.29c0 22.732-18.428 41.159-41.159 41.159"/>
        <path fill="#D9DAD6" d="M295.568 244.332H114.281c-13.484 0-25.455-6.486-32.962-16.507a41.677 41.677 0 0 1-.249-.336c7.508 10.007 19.47 16.482 32.944 16.482h181.287c22.731 0 41.159-18.428 41.159-41.159 0-9.11-2.959-17.529-7.969-24.347l.309.417a40.978 40.978 0 0 1 7.929 24.291c0 22.731-18.428 41.159-41.161 41.159"/>
        <path fill="#D8D9D5" d="M295.301 243.971H114.014c-13.474 0-25.436-6.475-32.944-16.482a33.43 33.43 0 0 1-.267-.359c7.509 10.007 19.469 16.479 32.943 16.479h181.287c22.732 0 41.159-18.427 41.159-41.159a40.974 40.974 0 0 0-7.923-24.284l.222.299a40.974 40.974 0 0 1 7.969 24.347c0 22.731-18.428 41.159-41.159 41.159"/>
        <path fill="#D7D8D3" d="M295.033 243.609H113.746c-13.474 0-25.434-6.472-32.943-16.479a40.043 40.043 0 0 1-.292-.393c7.507 10.024 19.479 16.511 32.967 16.511h181.287c22.732 0 41.16-18.428 41.16-41.16a40.98 40.98 0 0 0-7.923-24.282c.09.119.178.239.267.36a40.974 40.974 0 0 1 7.923 24.284c0 22.732-18.427 41.159-41.159 41.159"/>
        <path fill="#D6D6D2" d="M294.765 243.248H113.478c-13.488 0-25.46-6.487-32.967-16.511-.082-.111-.165-.222-.246-.334 7.508 10.009 19.47 16.484 32.945 16.484h181.287c22.731 0 41.159-18.428 41.159-41.16 0-9.106-2.956-17.52-7.962-24.336a40.98 40.98 0 0 1 8.231 24.697c0 22.732-18.428 41.16-41.16 41.16"/>
        <path fill="#D5D7D1" d="M294.497 242.887H113.21c-13.475 0-25.437-6.475-32.945-16.484a36.272 36.272 0 0 1-.278-.374c7.508 10.016 19.474 16.496 32.955 16.496H294.23c22.731 0 41.159-18.427 41.159-41.159a40.98 40.98 0 0 0-7.928-24.29l.233.315a40.967 40.967 0 0 1 7.962 24.336c0 22.732-18.428 41.16-41.159 41.16"/>
        <path fill="#D4D5D0" d="M294.23 242.525H112.942c-13.481 0-25.447-6.48-32.955-16.496a32.43 32.43 0 0 1-.262-.354c7.508 10.012 19.472 16.489 32.949 16.489h181.287c22.732 0 41.16-18.428 41.16-41.16 0-9.083-2.943-17.48-7.927-24.288.091.12.178.239.267.36a40.98 40.98 0 0 1 7.928 24.29c0 22.732-18.428 41.159-41.159 41.159"/>
        <path fill="#D2D4CF" d="M293.961 242.164H112.674c-13.477 0-25.441-6.477-32.949-16.489a29.734 29.734 0 0 1-.264-.356c7.508 10.008 19.47 16.484 32.945 16.484h181.287c22.732 0 41.16-18.428 41.16-41.16a40.97 40.97 0 0 0-7.972-24.349 40.976 40.976 0 0 1 8.24 24.71c0 22.732-18.428 41.16-41.16 41.16"/>
        <path fill="#D1D3CF" d="M293.693 241.803H112.406c-13.475 0-25.437-6.476-32.945-16.484a50.938 50.938 0 0 1-.276-.371c7.508 10.014 19.474 16.493 32.953 16.493h181.288c22.731 0 41.159-18.427 41.159-41.159v-.001a40.97 40.97 0 0 0-7.924-24.284c.074.098.148.199.22.297a40.97 40.97 0 0 1 7.972 24.349c0 22.732-18.428 41.16-41.16 41.16"/>
        <path fill="#D0D2CD" d="M293.426 241.441H112.138c-13.479 0-25.445-6.479-32.953-16.493l-.267-.361c7.507 10.013 19.474 16.493 32.953 16.493h181.286c22.733 0 41.16-18.428 41.16-41.16a40.969 40.969 0 0 0-7.914-24.271 40.97 40.97 0 0 1 8.182 24.632v.001c0 22.732-18.428 41.159-41.159 41.159"/>
        <path fill="#CFD1CC" d="M293.157 241.08H111.871c-13.479 0-25.446-6.48-32.953-16.493a35.042 35.042 0 0 1-.286-.387c7.506 10.028 19.48 16.518 32.971 16.518H292.89c22.731 0 41.159-18.428 41.159-41.159 0-9.112-2.96-17.53-7.971-24.349a40.969 40.969 0 0 1 8.239 24.71c0 22.732-18.427 41.16-41.16 41.16"/>
        <path fill="#CECFCB" d="M292.89 240.718H111.603c-13.491 0-25.465-6.49-32.971-16.518-.087-.115-.173-.232-.259-.348 7.508 10.021 19.477 16.504 32.961 16.504h181.288c22.732 0 41.159-18.427 41.159-41.159a40.972 40.972 0 0 0-7.926-24.287c.075.099.149.2.223.3a40.973 40.973 0 0 1 7.971 24.349c0 22.731-18.428 41.159-41.159 41.159"/>
        <path fill="#CDCECA" d="M292.622 240.356H111.334c-13.484 0-25.453-6.483-32.961-16.504a40.982 40.982 0 0 1-8.198-24.655c0-22.732 18.428-41.159 41.159-41.159h181.288c13.648 0 25.745 6.643 33.233 16.872a40.972 40.972 0 0 1 7.926 24.287c0 22.732-18.427 41.159-41.159 41.159"/>
        <path fill="#5BC6F3" d="M292.447 158H111.159C88.428 158 70 176.427 70 199.159s18.428 41.159 41.159 41.159h181.288c22.731 0 41.159-18.427 41.159-41.159S315.178 158 292.447 158"/>
        <path fill="#BDE8FA" d="M295.823 256.268h-48.722v-3.296h48.722c29.652 0 53.775-24.123 53.775-53.775 0-29.651-24.123-53.774-53.775-53.774h-48.722v-3.297h48.722c31.469 0 57.071 25.602 57.071 57.071 0 31.469-25.602 57.071-57.071 57.071M156.899 256.268h-48.723c-31.468 0-57.07-25.602-57.07-57.071 0-31.468 25.602-57.071 57.07-57.071h48.723v3.297h-48.723c-29.65 0-53.774 24.123-53.774 53.774 0 29.652 24.124 53.775 53.774 53.775h48.723v3.296"/>
        <path fill="#BDE8FA" stroke="#D2E3F4" d="M348.229 296.36a.55.55 0 0 1-.549-.549c0-8.379-6.817-15.196-15.196-15.196h-91.398c-8.045 0-14.589-6.545-14.589-14.589V254.62a.549.549 0 1 1 1.099 0v11.406c0 7.439 6.051 13.491 13.49 13.491h91.398c8.985 0 16.295 7.309 16.295 16.294a.55.55 0 0 1-.55.549M55.771 296.36a.55.55 0 0 1-.55-.549c0-8.985 7.31-16.294 16.295-16.294h91.398c7.439 0 13.49-6.052 13.49-13.491V254.62a.55.55 0 1 1 1.099 0v11.406c0 8.044-6.545 14.589-14.589 14.589H71.516c-8.379 0-15.196 6.817-15.196 15.196a.55.55 0 0 1-.549.549"/>
        <path fill="#939163" d="M386.37 308h-75.284c-9.988 0-18.086 8.097-18.086 18.086v54.278c0 9.989 8.098 18.085 18.086 18.085h75.284c9.988 0 18.086-8.096 18.086-18.085v-54.278c0-9.989-8.098-18.086-18.086-18.086"/>
        <path fill="#677EA3" d="M93.37 308H18.086C8.097 308 0 316.097 0 326.086v54.278c0 9.989 8.097 18.085 18.086 18.085H93.37c9.989 0 18.086-8.096 18.086-18.085v-54.278c0-9.989-8.097-18.086-18.086-18.086"/>
        <g fill="#FFF" fill-rule="nonzero" stroke="#FFF" stroke-width=".3">
            <path d="M61.7 330.445h-8.078a.375.375 0 0 1 0-.75H61.7a.375.375 0 0 1 0 .75zM61.7 332.513h-8.078a.375.375 0 0 1 0-.75H61.7a.375.375 0 0 1 0 .75zM61.7 335.736h-8.078a.375.375 0 0 1 0-.75H61.7a.375.375 0 0 1 0 .75zM61.7 337.805h-8.078a.375.375 0 0 1 0-.75H61.7a.375.375 0 0 1 0 .75zM61.7 341.028h-8.078a.375.375 0 0 1 0-.75H61.7a.375.375 0 0 1 0 .75zM61.7 343.096h-8.078a.375.375 0 0 1 0-.75H61.7a.375.375 0 0 1 0 .75zM59.306 326.364h-8.112a.921.921 0 0 1-.92-.92v-.958c0-.507.412-.92.92-.92h2.034a.17.17 0 0 0 .17-.17v-.545c0-1.02.831-1.851 1.852-1.851 1.02 0 1.851.83 1.851 1.851v.544c0 .094.077.17.17.17h2.035c.508 0 .92.414.92.921v.958c0 .507-.412.92-.92.92zm-8.112-2.048a.17.17 0 0 0-.17.17v.958c0 .094.076.17.17.17h8.112a.17.17 0 0 0 .17-.17v-.958a.17.17 0 0 0-.17-.17h-2.035a.921.921 0 0 1-.92-.92v-.545a1.102 1.102 0 0 0-2.202 0v.544c0 .508-.413.92-.92.92h-2.035z"/>
            <path d="M63.05 346.6h-15.6a1.423 1.423 0 0 1-1.42-1.422v-19.206c0-.784.637-1.422 1.42-1.422h1.443a.375.375 0 0 1 0 .75H47.45a.672.672 0 0 0-.672.672v19.206c0 .37.301.672.672.672h15.598c.37 0 .672-.301.672-.672v-19.206a.672.672 0 0 0-.672-.672h-1.444a.375.375 0 0 1 0-.75h1.444c.784 0 1.422.638 1.422 1.422v19.206c0 .784-.638 1.422-1.422 1.422z"/>
            <path d="M50.23 332.648a.667.667 0 0 1-.284-.064c-.453-.212-1.509-.817-1.52-1.832a1.178 1.178 0 0 1 1.171-1.192c.28.001.489.088.637.194a1.08 1.08 0 0 1 .636-.194 1.18 1.18 0 0 1 1.164 1.232c-.039.992-1.075 1.584-1.519 1.792a.671.671 0 0 1-.285.064zm-.631-2.338a.428.428 0 0 0-.424.433c.007.59.816 1.029 1.055 1.146.504-.244 1.036-.663 1.055-1.127a.43.43 0 0 0-.421-.452.304.304 0 0 0-.266.124.459.459 0 0 1-.737-.007c-.057-.079-.14-.116-.262-.117zM49.946 337.876c-.453-.213-1.509-.817-1.52-1.832a1.177 1.177 0 0 1 1.171-1.192c.282-.002.489.088.637.193.18-.128.397-.194.636-.193a1.18 1.18 0 0 1 1.164 1.231c-.039.992-1.075 1.584-1.519 1.793a.668.668 0 0 1-.569 0zm-.347-2.274a.428.428 0 0 0-.424.433c.006.472.542.897 1.055 1.145.504-.244 1.036-.662 1.055-1.126a.43.43 0 0 0-.421-.452.301.301 0 0 0-.266.124.458.458 0 0 1-.737-.007c-.057-.08-.14-.119-.262-.117zM49.946 343.168c-.453-.213-1.509-.818-1.52-1.833a1.178 1.178 0 0 1 1.171-1.192c.28 0 .489.088.637.194.18-.128.399-.193.635-.194a1.18 1.18 0 0 1 1.165 1.232c-.039.992-1.075 1.584-1.519 1.792a.668.668 0 0 1-.569 0zm-.347-2.275a.428.428 0 0 0-.424.433c.007.59.816 1.029 1.055 1.146.504-.244 1.036-.663 1.055-1.127a.43.43 0 0 0-.421-.452h-.004c-.113 0-.2.041-.262.124a.458.458 0 0 1-.737-.007c-.057-.078-.142-.117-.261-.117h-.001z"/>
        </g>
        <path fill="#2D3338" d="M352.042 295.811a3.813 3.813 0 1 1-7.626 0 3.813 3.813 0 0 1 7.626 0"/>
        <path fill="#677EA3" d="M59.584 295.811a3.813 3.813 0 1 1-7.626 0 3.813 3.813 0 0 1 7.626 0"/>
        <path fill="#2D3338" d="M230.859 254.62a3.813 3.813 0 1 1-7.626 0 3.813 3.813 0 0 1 7.626 0"/>
        <path fill="#677EA3" d="M180.768 254.62a3.814 3.814 0 1 1-7.627-.001 3.814 3.814 0 0 1 7.627.001"/>
        <path fill="#BDE8FA" stroke="#D2E3F4" d="M227.046 144.324a.548.548 0 0 1-.549-.549v-11.407c0-8.044 6.544-14.589 14.589-14.589h91.398c8.379 0 15.196-6.816 15.196-15.195a.549.549 0 1 1 1.099 0c0 8.985-7.31 16.294-16.295 16.294h-91.398c-7.439 0-13.49 6.052-13.49 13.49v11.407a.549.549 0 0 1-.55.549M176.954 144.324a.549.549 0 0 1-.55-.549v-11.407c0-7.438-6.051-13.49-13.49-13.49H71.516c-8.985 0-16.295-7.309-16.295-16.294a.549.549 0 1 1 1.099 0c0 8.379 6.817 15.195 15.196 15.195h91.398c8.044 0 14.589 6.545 14.589 14.589v11.407a.549.549 0 0 1-.549.549"/>
        <path fill="#24927C" d="M386.37 0h-75.284C301.098 0 293 8.097 293 18.086v54.278c0 9.988 8.098 18.085 18.086 18.085h75.284c9.988 0 18.086-8.097 18.086-18.085V18.086C404.456 8.097 396.358 0 386.37 0"/>
        <g fill="#FFF" fill-rule="nonzero" stroke="#FFF" stroke-width=".2">
            <path d="M350.573 337.015a.442.442 0 0 0-.624 0 2.432 2.432 0 0 0 0 3.436.442.442 0 0 0 .624-.625 1.548 1.548 0 0 1 0-2.186.442.442 0 0 0 0-.625zM352.76 337.015a.442.442 0 0 0 0 .625 1.548 1.548 0 0 1 0 2.186.442.442 0 0 0 .613.636l.011-.011a2.432 2.432 0 0 0 0-3.436.442.442 0 0 0-.624 0z"/>
            <path d="M355.57 340.763a4.202 4.202 0 0 0-.782-4.843c-.031-.03-.065-.057-.097-.088v-12.624a.442.442 0 0 0-.441-.441h-4.417v-1.325a.442.442 0 0 0-.442-.442h-7.066a.442.442 0 0 0-.442.442v1.325h-4.416a.442.442 0 0 0-.442.441v21.2c0 .244.198.442.442.442h16.783a.442.442 0 0 0 .441-.442v-.777l2.597 2.597a1.325 1.325 0 0 0 1.874-1.874l-3.592-3.59zm-12.803-18.88h6.183v2.65h-6.183v-2.65zm11.041 22.083h-15.9V323.65h3.975v1.325c0 .244.198.442.442.442h7.066a.442.442 0 0 0 .442-.442v-1.325h3.975v11.543a4.196 4.196 0 1 0-.111 7.444l.111.111v1.218zm.353-2.738a3.312 3.312 0 1 1-4.683-4.685 3.312 3.312 0 0 1 4.683 4.685zm4.373 4.372a.441.441 0 0 1-.625 0l-3.454-3.453c.23-.185.44-.395.625-.625l3.454 3.454c.174.17.177.45.006.625l-.003.003-.003-.004z"/>
            <path d="M348.511 331.52c.283.107.594.107.877 0l2.366 2.028a.442.442 0 1 0 .575-.671l-2.246-1.925c.124-.204.19-.438.192-.677a1.325 1.325 0 0 0-2.65 0c.001.239.067.473.192.677l-1.413 1.21a1.294 1.294 0 0 0-1.093 0l-1.413-1.21c.125-.204.192-.438.194-.677a1.325 1.325 0 0 0-2.65 0c0 .239.067.473.192.677l-2.246 1.925a.441.441 0 1 0 .574.67l2.366-2.027c.283.107.595.107.877 0l1.47 1.26a1.311 1.311 0 0 0-.142.586 1.325 1.325 0 1 0 2.65 0 1.312 1.312 0 0 0-.143-.586l1.471-1.26zm.439-1.687a.442.442 0 1 1 0 .883.442.442 0 0 1 0-.883zm-6.183.884a.442.442 0 1 1 0-.884.442.442 0 0 1 0 .884zm3.091 3.091a.442.442 0 1 1 0-.883.442.442 0 0 1 0 .883zM343.65 336.458h-3.533a.442.442 0 0 0 0 .883h3.533a.442.442 0 1 0 0-.883zM343.65 338.225h-3.533a.442.442 0 1 0 0 .883h3.533a.442.442 0 1 0 0-.883zM343.65 339.991h-3.533a.442.442 0 1 0 0 .884h3.533a.442.442 0 0 0 0-.884z"/>
        </g>
        <g fill="#FFF" fill-rule="nonzero" stroke="#FFF" stroke-width=".4">
            <path d="M341.928 35.242a.501.501 0 0 0-.853.354.504.504 0 0 0 .5.5.504.504 0 0 0 .5-.5.503.503 0 0 0-.147-.353zM337.483 29.355a.5.5 0 0 0-.706-.027l-.004.004a.5.5 0 1 0 .68.734l.003-.004a.5.5 0 0 0 .027-.707zM358.87 28.545a2.123 2.123 0 0 0-2.75-.759l-5.063 2.538a.5.5 0 1 0 .448.894l5.064-2.538a1.125 1.125 0 0 1 1.457.403c.17.266.22.581.14.887a1.117 1.117 0 0 1-.551.709l-6.808 3.716c-.84.458-1.79.7-2.748.7h-4.436a.5.5 0 0 0 0 1h4.436c1.124 0 2.24-.284 3.227-.823l6.808-3.715a2.136 2.136 0 0 0 1.041-1.338 2.136 2.136 0 0 0-.266-1.674z"/>
            <path d="M349.118 30.386l-2.09-1.656a6.178 6.178 0 0 0-3.82-1.33h-3.583a.5.5 0 0 0-.5-.5H335.5a.5.5 0 0 0 0 1h3.125v7.7H335.5a.5.5 0 0 0 0 1h3.625a.5.5 0 0 0 .5-.5v-7.7h3.582c1.157 0 2.293.396 3.2 1.114l2.09 1.655a.865.865 0 0 1 .322.808.873.873 0 0 1-1.348.604l-2.67-1.773a.5.5 0 1 0-.553.833l2.67 1.773a1.872 1.872 0 0 0 1.744.174 1.855 1.855 0 0 0 1.147-1.47 1.856 1.856 0 0 0-.691-1.733zM360.1 19.7h-3.125V12h3.125a.5.5 0 0 0 0-1h-3.625a.5.5 0 0 0-.5.5v7.7h-3.582a5.174 5.174 0 0 1-3.2-1.114l-2.09-1.655a.865.865 0 0 1-.322-.808.873.873 0 0 1 1.348-.604l2.67 1.773a.5.5 0 1 0 .553-.833l-2.67-1.773a1.872 1.872 0 0 0-1.744-.174 1.855 1.855 0 0 0-1.147 1.47 1.856 1.856 0 0 0 .691 1.732l2.09 1.656a6.178 6.178 0 0 0 3.82 1.33h3.583a.5.5 0 0 0 .5.5h3.625a.5.5 0 0 0 0-1z"/>
            <path d="M354.553 11.65a.504.504 0 0 0-.707 0 .504.504 0 0 0 0 .708.503.503 0 0 0 .707 0 .504.504 0 0 0 0-.707zM352.05 11.504h-4.509c-1.124 0-2.24.285-3.227.824l-6.808 3.715a2.136 2.136 0 0 0-1.041 1.338 2.136 2.136 0 0 0 .266 1.673 2.123 2.123 0 0 0 2.748.76l5.064-2.538a.5.5 0 1 0-.448-.894l-5.064 2.538a1.125 1.125 0 0 1-1.457-.403 1.117 1.117 0 0 1-.14-.887c.078-.306.274-.558.551-.709l6.808-3.716a5.753 5.753 0 0 1 2.748-.7h4.509a.5.5 0 0 0 0-1zM359.074 17.345a.5.5 0 0 0-.707-.031l-.004.004a.5.5 0 0 0 .675.737l.005-.004a.5.5 0 0 0 .03-.706zM349.185 20.898c-.498 0-.982.16-1.385.448a2.383 2.383 0 0 0-1.384-.448c-1.327 0-2.406 1.101-2.406 2.455 0 .79.595 1.687 1.818 2.743.841.726 1.67 1.252 1.705 1.274a.5.5 0 0 0 .534 0 16.08 16.08 0 0 0 1.705-1.274c1.224-1.056 1.818-1.953 1.818-2.743 0-1.354-1.079-2.455-2.405-2.455zm-1.385 5.453c-1.239-.834-2.79-2.203-2.79-2.998 0-.802.63-1.455 1.406-1.455.387 0 .749.16 1.017.45a.5.5 0 0 0 .735 0c.268-.29.629-.45 1.017-.45.775 0 1.405.653 1.405 1.455 0 .793-1.551 2.163-2.79 2.998z"/>
        </g>
        <path fill="#1F96A4" d="M93.37 0H18.086C8.097 0 0 8.097 0 18.086v54.278c0 9.988 8.097 18.085 18.086 18.085H93.37c9.989 0 18.086-8.097 18.086-18.085V18.086C111.456 8.097 103.359 0 93.37 0"/>
        <path fill="#247B92" d="M352.042 102.584a3.813 3.813 0 1 0-7.626 0 3.813 3.813 0 0 0 7.626 0"/>
        <path fill="#1FA3A4" d="M59.584 102.584a3.813 3.813 0 1 0-7.626 0 3.813 3.813 0 0 0 7.626 0"/>
        <path fill="#247B92" d="M230.859 143.775a3.813 3.813 0 1 0-7.626-.002 3.813 3.813 0 0 0 7.626.002"/>
        <path fill="#1FA3A4" d="M180.768 143.775a3.814 3.814 0 1 0-7.628 0 3.814 3.814 0 0 0 7.628 0"/>
        <text fill="#FFFFFE" font-family="IRANSans-Bold, IRANSans" font-size="23.798" font-weight="bold">
            <tspan x="138" y="208"> </tspan>
        </text>
        <g fill="#FFF" fill-rule="nonzero" stroke="#FFF" stroke-width=".2">
            <path d="M64.434 33.107a1.814 1.814 0 0 0-.802-1.167 1.814 1.814 0 0 0-1.395-.243l-3.956.906c-.629.144-1.276.13-1.893-.04.212-.185.386-.421.504-.7l.013-.032c.196-.463.2-.975.009-1.44a1.86 1.86 0 0 0-1.018-1.021l-4.029-1.668a.5.5 0 0 0-.191-.038h-3.258v-.982a.5.5 0 0 0-.5-.5h-3.39a.5.5 0 0 0-.5.5v8.447a.5.5 0 0 0 .5.5h3.39a.5.5 0 0 0 .5-.5v-1.221h.964l6.004 2.355a4.87 4.87 0 0 0 2.989.186l4.72-1.2a1.824 1.824 0 0 0 1.339-2.142zm-17.016 1.522h-2.39v-7.447h2.39v7.446zm15.43-.348l-4.72 1.2a3.866 3.866 0 0 1-2.377-.15l-6.092-2.389a.5.5 0 0 0-.182-.034h-1.059v-4.244h3.159l3.937 1.63c.217.09.385.258.474.475a.868.868 0 0 1-.004.672l-.013.032a.912.912 0 0 1-1.122.52l-2.655-1.021-.037-.014a.5.5 0 1 0-.36.933l.017.006a2823.775 2823.775 0 0 1 2.697 1.037l1.148.441c.91.35 1.895.42 2.845.203l3.956-.906a.821.821 0 0 1 .632.11.826.826 0 0 1-.243 1.498zM53.687 26.087a.593.593 0 0 1-.593-.592.5.5 0 0 0-1 0c0 .878.715 1.592 1.593 1.592s1.593-.714 1.593-1.592v-1.536a.5.5 0 0 0-1 0v1.536a.593.593 0 0 1-.593.592zM54.318 22.273c.078.19.272.315.478.308a.506.506 0 0 0 .462-.354.504.504 0 0 0-.187-.552.506.506 0 0 0-.562-.014.504.504 0 0 0-.191.612zM46.24 20.496a.5.5 0 0 0 .5-.5l.003-.1a1.992 1.992 0 0 1 1.987-1.888c.532 0 1.031.207 1.407.583.31.31.504.704.563 1.131.008.194-.003.421.124.582a.5.5 0 0 0 .895-.306c0-1.518 1.11-2.78 2.56-3.02v3.277a.5.5 0 0 0 1 0v-3.277a3.135 3.135 0 0 1 1.698.86c.595.58.922 1.347.922 2.159 0 .257.205.48.462.499a.504.504 0 0 0 .536-.448 5.92 5.92 0 0 0 .02-.31c.06-.428.263-.826.59-1.142.391-.379.903-.588 1.44-.588h.001a1.992 1.992 0 0 1 1.989 1.99.5.5 0 0 0 1 0v-.001l-.003-.132c-.018-.517-.153-2.42-1.132-4.343-1.044-2.051-3.27-4.495-7.945-4.521a.47.47 0 0 0-.024 0L54.78 11h-.006a.07.07 0 0 0-.005 0c-2.662.002-4.806.798-6.371 2.365-2.449 2.45-2.641 5.943-2.656 6.547l-.001.077v.008a.5.5 0 0 0 .5.5zm8.54-4.559c-1.128 0-2.15.463-2.887 1.208.015-.078.03-.156.048-.236.444-2.076 1.409-3.692 2.868-4.81 1.46 1.118 2.424 2.734 2.869 4.81.02.091.037.18.053.27l-.055-.057a4.124 4.124 0 0 0-2.896-1.185zm7.115.008a9.1 9.1 0 0 1 .603 1.495 2.97 2.97 0 0 0-1.55-.432c-.784 0-1.529.298-2.104.84-.04-.348-.099-.723-.182-1.115-.391-1.856-1.197-3.431-2.357-4.634 2.58.353 4.457 1.642 5.59 3.846zm-12.79-1.874c1.08-1.081 2.493-1.743 4.212-1.976-1.162 1.203-1.969 2.78-2.361 4.637-.081.383-.138.749-.178 1.089a2.968 2.968 0 0 0-2.047-.813h-.001c-.572 0-1.106.161-1.56.44.328-1.091.91-2.35 1.935-3.377z"/>
        </g>
        <text fill="#FFF" font-family="IRANSans-Bold, IRANSans" font-size="7" font-weight="bold">
            <tspan x="312.344" y="56">    </tspan> <tspan x="339.655" y="69"></tspan>
        </text>
        <text fill="#FFF" stroke="#979797" font-family="IRANSans-Bold, IRANSans" font-size="7" font-weight="bold">
            <tspan x="310.467" y="364">    </tspan> <tspan x="304" y="377">   </tspan>
        </text>
        <text fill="#FFF" font-family="IRANSans-Bold, IRANSans" font-size="7" font-weight="bold">
            <tspan x="17.499" y="56">   </tspan> <tspan x="38.174" y="69"></tspan>
        </text>
        <text fill="#FFF" font-family="IRANSans-Bold, IRANSans" font-size="7" font-weight="bold">
            <tspan x="7.278" y="364">    </tspan> <tspan x="2" y="377">   </tspan>
        </text>
    </g>
</svg>
