<svg xmlns="http://www.w3.org/2000/svg" width="418" height="422" viewBox="0 0 418 422">
    <g fill="none" fill-rule="evenodd">
        <path fill="#BDE8FA" d="M199.813 307.553a.549.549 0 0 1-.549-.549v-41.191a.549.549 0 1 1 1.098 0v41.191a.549.549 0 0 1-.549.549"/>
        <path fill="#485265" d="M203.626 307.004a3.813 3.813 0 1 1-7.626 0 3.813 3.813 0 0 1 7.626 0M203.626 265.813a3.813 3.813 0 1 1-7.626 0 3.813 3.813 0 0 1 7.626 0"/>
        <path fill="#FFFFFE" d="M107.17 13.857H31.886c-9.989 0-18.086 8.098-18.086 18.086v54.278c0 9.989 8.097 18.086 18.086 18.086h75.284c9.989 0 18.086-8.097 18.086-18.086V31.943c0-9.988-8.097-18.086-18.086-18.086"/>
        <path fill="#FFFFFE" d="M106.877 13.564H31.593c-9.989 0-18.086 8.097-18.086 18.086v54.278c0 9.989 8.097 18.086 18.086 18.086h75.284c9.989 0 18.086-8.097 18.086-18.086V31.65c0-9.989-8.097-18.086-18.086-18.086"/>
        <path fill="#FFFFFE" d="M106.584 13.271H31.299c-9.988 0-18.085 8.097-18.085 18.085v54.279c0 9.988 8.097 18.085 18.085 18.085h75.285c9.988 0 18.085-8.097 18.085-18.085V31.356c0-9.988-8.097-18.085-18.085-18.085"/>
        <path fill="#FFFEFD" d="M106.291 12.977H31.006c-9.988 0-18.086 8.098-18.086 18.086v54.278c0 9.989 8.098 18.086 18.086 18.086h75.285c9.988 0 18.085-8.097 18.085-18.086V31.063c0-9.988-8.097-18.086-18.085-18.086"/>
        <path fill="#FEFDFC" d="M105.997 12.684H30.713c-9.989 0-18.086 8.097-18.086 18.085v54.279c0 9.989 8.097 18.086 18.086 18.086h75.284c9.989 0 18.086-8.097 18.086-18.086V30.769c0-9.988-8.097-18.085-18.086-18.085"/>
        <path fill="#FDFCFB" d="M105.704 12.391H30.419c-9.988 0-18.085 8.097-18.085 18.086v54.278c0 9.988 8.097 18.085 18.085 18.085h75.285c9.988 0 18.086-8.097 18.086-18.085V30.477c0-9.989-8.098-18.086-18.086-18.086"/>
        <path fill="#FBFBFA" d="M105.411 12.098H30.126c-9.988 0-18.086 8.097-18.086 18.085v54.278c0 9.989 8.098 18.086 18.086 18.086h75.285c9.988 0 18.086-8.097 18.086-18.086V30.183c0-9.988-8.098-18.085-18.086-18.085"/>
        <path fill="#FAFAF9" d="M105.117 11.804H29.833c-9.989 0-18.086 8.097-18.086 18.086v54.278c0 9.989 8.097 18.086 18.086 18.086h75.284c9.989 0 18.086-8.097 18.086-18.086V29.89c0-9.989-8.097-18.086-18.086-18.086"/>
        <path fill="#FAFAF8" d="M104.824 11.511H29.54c-9.989 0-18.086 8.097-18.086 18.086v54.278c0 9.988 8.097 18.085 18.086 18.085h75.284c9.989 0 18.086-8.097 18.086-18.085V29.597c0-9.989-8.097-18.086-18.086-18.086"/>
        <path fill="#F9F9F7" d="M104.531 11.218H29.246c-9.988 0-18.085 8.097-18.085 18.085v54.279c0 9.988 8.097 18.085 18.085 18.085h75.285c9.988 0 18.086-8.097 18.086-18.085V29.303c0-9.988-8.098-18.085-18.086-18.085"/>
        <path fill="#F8F8F6" d="M104.237 10.924H28.953c-9.989 0-18.086 8.097-18.086 18.086v54.278c0 9.989 8.097 18.086 18.086 18.086h75.284c9.989 0 18.086-8.097 18.086-18.086V29.01c0-9.989-8.097-18.086-18.086-18.086"/>
        <path fill="#F6F7F5" d="M103.944 10.631H28.66c-9.989 0-18.086 8.097-18.086 18.086v54.278c0 9.988 8.097 18.086 18.086 18.086h75.284c9.989 0 18.086-8.098 18.086-18.086V28.717c0-9.989-8.097-18.086-18.086-18.086"/>
        <path fill="#F5F6F4" d="M103.651 10.338H28.366c-9.988 0-18.085 8.097-18.085 18.085v54.279c0 9.988 8.097 18.085 18.085 18.085h75.285c9.988 0 18.085-8.097 18.085-18.085V28.423c0-9.988-8.097-18.085-18.085-18.085"/>
        <path fill="#F4F5F2" d="M103.357 10.044H28.073c-9.989 0-18.086 8.098-18.086 18.086v54.278c0 9.989 8.097 18.086 18.086 18.086h75.284c9.989 0 18.086-8.097 18.086-18.086V28.13c0-9.988-8.097-18.086-18.086-18.086"/>
        <path fill="#F4F4F1" d="M103.064 9.751H27.78c-9.989 0-18.086 8.097-18.086 18.086v54.278c0 9.989 8.097 18.086 18.086 18.086h75.284c9.989 0 18.086-8.097 18.086-18.086V27.837c0-9.989-8.097-18.086-18.086-18.086"/>
        <path fill="#F3F3F0" d="M102.771 9.458H27.486c-9.988 0-18.085 8.097-18.085 18.086v54.278c0 9.988 8.097 18.085 18.085 18.085h75.285c9.988 0 18.085-8.097 18.085-18.085V27.544c0-9.989-8.097-18.086-18.085-18.086"/>
        <path fill="#F1F2EE" d="M102.478 9.165H27.193c-9.988 0-18.086 8.097-18.086 18.085v54.278c0 9.989 8.098 18.086 18.086 18.086h75.285c9.988 0 18.085-8.097 18.085-18.086V27.25c0-9.988-8.097-18.085-18.085-18.085"/>
        <path fill="#F0F0ED" d="M102.185 8.871H26.9c-9.989 0-18.086 8.097-18.086 18.085v54.279c0 9.989 8.097 18.086 18.086 18.086h75.285c9.988 0 18.085-8.097 18.085-18.086V26.956c0-9.988-8.097-18.085-18.085-18.085"/>
        <path fill="#EEEFEC" d="M101.891 8.578H26.606c-9.988 0-18.085 8.097-18.085 18.086v54.278c0 9.988 8.097 18.085 18.085 18.085h75.285c9.988 0 18.086-8.097 18.086-18.085V26.664c0-9.989-8.098-18.086-18.086-18.086"/>
        <path fill="#EDEDEB" d="M101.598 8.285H26.313c-9.988 0-18.086 8.097-18.086 18.085v54.278c0 9.989 8.098 18.086 18.086 18.086h75.285c9.988 0 18.086-8.097 18.086-18.086V26.37c0-9.988-8.098-18.085-18.086-18.085"/>
        <path fill="#EBECE9" d="M101.304 7.991H26.02c-9.989 0-18.086 8.097-18.086 18.086v54.278c0 9.989 8.097 18.086 18.086 18.086h75.284c9.989 0 18.086-8.097 18.086-18.086V26.077c0-9.989-8.097-18.086-18.086-18.086"/>
        <path fill="#EAEBE8" d="M101.011 7.698H25.727c-9.989 0-18.086 8.097-18.086 18.086v54.278c0 9.988 8.097 18.085 18.086 18.085h75.284c9.989 0 18.086-8.097 18.086-18.085V25.784c0-9.989-8.097-18.086-18.086-18.086"/>
        <path fill="#E9EAE6" d="M100.718 7.405H25.433c-9.988 0-18.085 8.097-18.085 18.085v54.279c0 9.988 8.097 18.085 18.085 18.085h75.285c9.988 0 18.086-8.097 18.086-18.085V25.49c0-9.988-8.098-18.085-18.086-18.085"/>
        <path fill="#E8E9E5" d="M100.424 7.111H25.14c-9.989 0-18.086 8.097-18.086 18.086v54.279c0 9.988 8.097 18.085 18.086 18.085h75.284c9.989 0 18.086-8.097 18.086-18.085V25.197c0-9.989-8.097-18.086-18.086-18.086"/>
        <path fill="#E8E9E4" d="M100.131 6.818H24.847c-9.989 0-18.086 8.097-18.086 18.086v54.278c0 9.988 8.097 18.086 18.086 18.086h75.284c9.989 0 18.086-8.098 18.086-18.086V24.904c0-9.989-8.097-18.086-18.086-18.086"/>
        <path fill="#E7E7E3" d="M99.838 6.525H24.553c-9.988 0-18.085 8.097-18.085 18.085v54.279c0 9.988 8.097 18.085 18.085 18.085h75.285c9.988 0 18.085-8.097 18.085-18.085V24.61c0-9.988-8.097-18.085-18.085-18.085"/>
        <path fill="#E5E6E1" d="M99.544 6.231H24.26c-9.989 0-18.086 8.098-18.086 18.086v54.278c0 9.989 8.097 18.086 18.086 18.086h75.284c9.989 0 18.086-8.097 18.086-18.086V24.317c0-9.988-8.097-18.086-18.086-18.086"/>
        <path fill="#E4E5E0" d="M99.251 5.938H23.967c-9.989 0-18.086 8.097-18.086 18.086v54.278c0 9.989 8.097 18.086 18.086 18.086h75.284c9.989 0 18.086-8.097 18.086-18.086V24.024c0-9.989-8.097-18.086-18.086-18.086"/>
        <path fill="#E3E4DF" d="M98.958 5.645H23.673c-9.988 0-18.085 8.097-18.085 18.085v54.279c0 9.988 8.097 18.085 18.085 18.085h75.285c9.988 0 18.085-8.097 18.085-18.085V23.73c0-9.988-8.097-18.085-18.085-18.085"/>
        <path fill="#E1E3DD" d="M98.665 5.352H23.38c-9.988 0-18.086 8.097-18.086 18.085v54.278c0 9.989 8.098 18.086 18.086 18.086h75.285c9.988 0 18.085-8.097 18.085-18.086V23.437c0-9.988-8.097-18.085-18.085-18.085"/>
        <path fill="#E0E1DD" d="M98.372 5.058H23.087c-9.989 0-18.086 8.097-18.086 18.086v54.278c0 9.989 8.097 18.086 18.086 18.086h75.285c9.988 0 18.085-8.097 18.085-18.086V23.144c0-9.989-8.097-18.086-18.085-18.086"/>
        <path fill="#DFE0DC" d="M98.078 4.765H22.793c-9.988 0-18.085 8.097-18.085 18.086v54.278c0 9.988 8.097 18.085 18.085 18.085h75.285c9.988 0 18.086-8.097 18.086-18.085V22.851c0-9.989-8.098-18.086-18.086-18.086"/>
        <path fill="#DEDFDB" d="M97.785 4.472H22.5c-9.988 0-18.085 8.097-18.085 18.085v54.278c0 9.989 8.097 18.086 18.085 18.086h75.285c9.988 0 18.086-8.097 18.086-18.086V22.557c0-9.988-8.098-18.085-18.086-18.085"/>
        <path fill="#DDDEDA" d="M97.491 4.178H22.207c-9.989 0-18.086 8.097-18.086 18.086v54.278c0 9.989 8.097 18.086 18.086 18.086h75.284c9.989 0 18.086-8.097 18.086-18.086V22.264c0-9.989-8.097-18.086-18.086-18.086"/>
        <path fill="#DCDDD8" d="M97.198 3.885H21.914c-9.989 0-18.086 8.097-18.086 18.086v54.278c0 9.988 8.097 18.085 18.086 18.085h75.284c9.989 0 18.086-8.097 18.086-18.085V21.971c0-9.989-8.097-18.086-18.086-18.086"/>
        <path fill="#DADBD7" d="M96.905 3.592H21.62c-9.988 0-18.085 8.097-18.085 18.085v54.279c0 9.988 8.097 18.086 18.085 18.086h75.285c9.989 0 18.086-8.098 18.086-18.086V21.677c0-9.988-8.097-18.085-18.086-18.085"/>
        <path fill="#D9DAD6" d="M96.611 3.298H21.327c-9.989 0-18.086 8.098-18.086 18.086v54.279c0 9.988 8.097 18.085 18.086 18.085h75.284c9.989 0 18.086-8.097 18.086-18.085V21.384c0-9.988-8.097-18.086-18.086-18.086"/>
        <path fill="#D8D9D5" d="M96.318 3.005H21.034c-9.989 0-18.086 8.097-18.086 18.086v54.278c0 9.988 8.097 18.086 18.086 18.086h75.284c9.989 0 18.086-8.098 18.086-18.086V21.091c0-9.989-8.097-18.086-18.086-18.086"/>
        <path fill="#D7D8D3" d="M96.025 2.712H20.74c-9.988 0-18.085 8.097-18.085 18.085v54.279c0 9.988 8.097 18.085 18.085 18.085h75.285c9.988 0 18.086-8.097 18.086-18.085V20.797c0-9.988-8.098-18.085-18.086-18.085"/>
        <path fill="#D6D6D2" d="M95.731 2.419H20.447c-9.989 0-18.086 8.097-18.086 18.085v54.278c0 9.989 8.097 18.086 18.086 18.086h75.284c9.989 0 18.086-8.097 18.086-18.086V20.504c0-9.988-8.097-18.085-18.086-18.085"/>
        <path fill="#D5D7D1" d="M95.438 2.125H20.154c-9.989 0-18.086 8.097-18.086 18.086v54.278c0 9.989 8.097 18.086 18.086 18.086h75.284c9.989 0 18.086-8.097 18.086-18.086V20.211c0-9.989-8.097-18.086-18.086-18.086"/>
        <path fill="#D4D5D0" d="M95.145 1.832H19.86c-9.988 0-18.085 8.097-18.085 18.086v54.278c0 9.988 8.097 18.085 18.085 18.085h75.285c9.988 0 18.085-8.097 18.085-18.085V19.918c0-9.989-8.097-18.086-18.085-18.086"/>
        <path fill="#D2D4CF" d="M94.852 1.539H19.567c-9.988 0-18.086 8.097-18.086 18.085v54.278c0 9.989 8.098 18.086 18.086 18.086h75.285c9.988 0 18.086-8.097 18.086-18.086V19.624c0-9.988-8.098-18.085-18.086-18.085"/>
        <path fill="#D1D3CF" d="M94.559 1.245H19.274c-9.989 0-18.086 8.097-18.086 18.086v54.278c0 9.989 8.097 18.086 18.086 18.086h75.285c9.988 0 18.085-8.097 18.085-18.086V19.331c0-9.989-8.097-18.086-18.085-18.086"/>
        <path fill="#D0D2CD" d="M94.265.952H18.98C8.992.952.895 9.049.895 19.038v54.278c0 9.988 8.097 18.085 18.085 18.085h75.285c9.988 0 18.086-8.097 18.086-18.085V19.038c0-9.989-8.098-18.086-18.086-18.086"/>
        <path fill="#CFD1CC" d="M93.972.659H18.687C8.699.659.602 8.756.602 18.744v54.278c0 9.989 8.097 18.086 18.085 18.086h75.285c9.988 0 18.086-8.097 18.086-18.086V18.744c0-9.988-8.098-18.085-18.086-18.085"/>
        <path fill="#CECFCB" d="M93.678.365H18.394C8.405.365.308 8.462.308 18.451v54.278c0 9.989 8.097 18.086 18.086 18.086h75.284c9.989 0 18.086-8.097 18.086-18.086V18.451c0-9.989-8.097-18.086-18.086-18.086"/>
        <path fill="#CDCECA" d="M93.385.072H18.101C8.112.072.015 8.169.015 18.158v54.278c0 9.988 8.097 18.085 18.086 18.085h75.284c9.989 0 18.086-8.097 18.086-18.085V18.158c0-9.989-8.097-18.086-18.086-18.086"/>
        <path fill="#FFFFFE" d="M399.656 13.857h-75.284c-9.988 0-18.086 8.098-18.086 18.086v54.278c0 9.989 8.098 18.086 18.086 18.086h75.284c9.99 0 18.086-8.097 18.086-18.086V31.943c0-9.988-8.096-18.086-18.086-18.086"/>
        <path fill="#FFFFFE" d="M399.363 13.564h-75.284c-9.989 0-18.086 8.097-18.086 18.086v54.278c0 9.989 8.097 18.086 18.086 18.086h75.284c9.989 0 18.086-8.097 18.086-18.086V31.65c0-9.989-8.097-18.086-18.086-18.086"/>
        <path fill="#FFFFFE" d="M399.07 13.271h-75.285c-9.988 0-18.085 8.097-18.085 18.085v54.279c0 9.988 8.097 18.085 18.085 18.085h75.285c9.989 0 18.085-8.097 18.085-18.085V31.356c0-9.988-8.096-18.085-18.085-18.085"/>
        <path fill="#FFFEFD" d="M398.776 12.977h-75.284c-9.988 0-18.086 8.098-18.086 18.086v54.278c0 9.989 8.098 18.086 18.086 18.086h75.284c9.99 0 18.086-8.097 18.086-18.086V31.063c0-9.988-8.096-18.086-18.086-18.086"/>
        <path fill="#FEFDFC" d="M398.483 12.684h-75.284c-9.989 0-18.086 8.097-18.086 18.085v54.279c0 9.989 8.097 18.086 18.086 18.086h75.284c9.989 0 18.086-8.097 18.086-18.086V30.769c0-9.988-8.097-18.085-18.086-18.085"/>
        <path fill="#FDFCFB" d="M398.19 12.391h-75.285c-9.988 0-18.085 8.097-18.085 18.086v54.278c0 9.988 8.097 18.085 18.085 18.085h75.285c9.989 0 18.085-8.097 18.085-18.085V30.477c0-9.989-8.096-18.086-18.085-18.086"/>
        <path fill="#FBFBFA" d="M397.896 12.098h-75.284c-9.988 0-18.086 8.097-18.086 18.085v54.278c0 9.989 8.098 18.086 18.086 18.086h75.284c9.989 0 18.086-8.097 18.086-18.086V30.183c0-9.988-8.097-18.085-18.086-18.085"/>
        <path fill="#FAFAF9" d="M397.604 11.804h-75.286c-9.988 0-18.085 8.097-18.085 18.086v54.278c0 9.989 8.097 18.086 18.085 18.086h75.286c9.988 0 18.085-8.097 18.085-18.086V29.89c0-9.989-8.097-18.086-18.085-18.086"/>
        <path fill="#FAFAF8" d="M397.311 11.511h-75.286c-9.988 0-18.086 8.097-18.086 18.086v54.278c0 9.988 8.098 18.085 18.086 18.085h75.286c9.988 0 18.085-8.097 18.085-18.085V29.597c0-9.989-8.097-18.086-18.085-18.086"/>
        <path fill="#F9F9F7" d="M397.017 11.218h-75.285c-9.988 0-18.086 8.097-18.086 18.085v54.279c0 9.988 8.098 18.085 18.086 18.085h75.285c9.988 0 18.086-8.097 18.086-18.085V29.303c0-9.988-8.098-18.085-18.086-18.085"/>
        <path fill="#F8F8F6" d="M396.724 10.924h-75.286c-9.988 0-18.084 8.097-18.084 18.086v54.278c0 9.989 8.096 18.086 18.084 18.086h75.286c9.988 0 18.086-8.097 18.086-18.086V29.01c0-9.989-8.098-18.086-18.086-18.086"/>
        <path fill="#F6F7F5" d="M396.431 10.631h-75.285c-9.989 0-18.086 8.097-18.086 18.086v54.278c0 9.988 8.097 18.086 18.086 18.086h75.285c9.988 0 18.085-8.098 18.085-18.086V28.717c0-9.989-8.097-18.086-18.085-18.086"/>
        <path fill="#F5F6F4" d="M396.137 10.338h-75.284c-9.989 0-18.086 8.097-18.086 18.085v54.279c0 9.988 8.097 18.085 18.086 18.085h75.284c9.988 0 18.086-8.097 18.086-18.085V28.423c0-9.988-8.098-18.085-18.086-18.085"/>
        <path fill="#F4F5F2" d="M395.844 10.044h-75.285c-9.989 0-18.085 8.098-18.085 18.086v54.278c0 9.989 8.096 18.086 18.085 18.086h75.285c9.988 0 18.086-8.097 18.086-18.086V28.13c0-9.988-8.098-18.086-18.086-18.086"/>
        <path fill="#F4F4F1" d="M395.551 9.751h-75.285c-9.989 0-18.086 8.097-18.086 18.086v54.278c0 9.989 8.097 18.086 18.086 18.086h75.285c9.988 0 18.085-8.097 18.085-18.086V27.837c0-9.989-8.097-18.086-18.085-18.086"/>
        <path fill="#F3F3F0" d="M395.257 9.458h-75.284c-9.989 0-18.086 8.097-18.086 18.086v54.278c0 9.988 8.097 18.085 18.086 18.085h75.284c9.988 0 18.086-8.097 18.086-18.085V27.544c0-9.989-8.098-18.086-18.086-18.086"/>
        <path fill="#F1F2EE" d="M394.964 9.165h-75.285c-9.989 0-18.085 8.097-18.085 18.085v54.278c0 9.989 8.096 18.086 18.085 18.086h75.285c9.988 0 18.086-8.097 18.086-18.086V27.25c0-9.988-8.098-18.085-18.086-18.085"/>
        <path fill="#F0F0ED" d="M394.67 8.871h-75.284c-9.989 0-18.086 8.097-18.086 18.085v54.279c0 9.989 8.097 18.086 18.086 18.086h75.284c9.989 0 18.086-8.097 18.086-18.086V26.956c0-9.988-8.097-18.085-18.086-18.085"/>
        <path fill="#EEEFEC" d="M394.377 8.578h-75.284c-9.989 0-18.086 8.097-18.086 18.086v54.278c0 9.988 8.097 18.085 18.086 18.085h75.284c9.988 0 18.086-8.097 18.086-18.085V26.664c0-9.989-8.098-18.086-18.086-18.086"/>
        <path fill="#EDEDEB" d="M394.084 8.285h-75.285c-9.988 0-18.085 8.097-18.085 18.085v54.278c0 9.989 8.097 18.086 18.085 18.086h75.285c9.988 0 18.086-8.097 18.086-18.086V26.37c0-9.988-8.098-18.085-18.086-18.085"/>
        <path fill="#EBECE9" d="M393.79 7.991h-75.284c-9.988 0-18.086 8.097-18.086 18.086v54.278c0 9.989 8.098 18.086 18.086 18.086h75.284c9.989 0 18.086-8.097 18.086-18.086V26.077c0-9.989-8.097-18.086-18.086-18.086"/>
        <path fill="#EAEBE8" d="M393.497 7.698h-75.284c-9.988 0-18.086 8.097-18.086 18.086v54.278c0 9.988 8.098 18.085 18.086 18.085h75.284c9.988 0 18.086-8.097 18.086-18.085V25.784c0-9.989-8.098-18.086-18.086-18.086"/>
        <path fill="#E9EAE6" d="M393.204 7.405h-75.285c-9.988 0-18.085 8.097-18.085 18.085v54.279c0 9.988 8.097 18.085 18.085 18.085h75.285c9.988 0 18.085-8.097 18.085-18.085V25.49c0-9.988-8.097-18.085-18.085-18.085"/>
        <path fill="#E8E9E5" d="M392.91 7.111h-75.284c-9.988 0-18.086 8.097-18.086 18.086v54.279c0 9.988 8.098 18.085 18.086 18.085h75.284c9.989 0 18.086-8.097 18.086-18.085V25.197c0-9.989-8.097-18.086-18.086-18.086"/>
        <path fill="#E8E9E4" d="M392.617 6.818h-75.284c-9.989 0-18.086 8.097-18.086 18.086v54.278c0 9.988 8.097 18.086 18.086 18.086h75.284c9.988 0 18.086-8.098 18.086-18.086V24.904c0-9.989-8.098-18.086-18.086-18.086"/>
        <path fill="#E7E7E3" d="M392.324 6.525h-75.285c-9.988 0-18.085 8.097-18.085 18.085v54.279c0 9.988 8.097 18.085 18.085 18.085h75.285c9.989 0 18.085-8.097 18.085-18.085V24.61c0-9.988-8.096-18.085-18.085-18.085"/>
        <path fill="#E5E6E1" d="M392.03 6.231h-75.284c-9.988 0-18.086 8.098-18.086 18.086v54.278c0 9.989 8.098 18.086 18.086 18.086h75.284c9.99 0 18.086-8.097 18.086-18.086V24.317c0-9.988-8.096-18.086-18.086-18.086"/>
        <path fill="#E4E5E0" d="M391.737 5.938h-75.284c-9.989 0-18.086 8.097-18.086 18.086v54.278c0 9.989 8.097 18.086 18.086 18.086h75.284c9.989 0 18.086-8.097 18.086-18.086V24.024c0-9.989-8.097-18.086-18.086-18.086"/>
        <path fill="#E3E4DF" d="M391.444 5.645h-75.285c-9.988 0-18.085 8.097-18.085 18.085v54.279c0 9.988 8.097 18.085 18.085 18.085h75.285c9.989 0 18.085-8.097 18.085-18.085V23.73c0-9.988-8.096-18.085-18.085-18.085"/>
        <path fill="#E1E3DD" d="M391.15 5.352h-75.284c-9.988 0-18.086 8.097-18.086 18.085v54.278c0 9.989 8.098 18.086 18.086 18.086h75.284c9.99 0 18.086-8.097 18.086-18.086V23.437c0-9.988-8.096-18.085-18.086-18.085"/>
        <path fill="#E0E1DD" d="M390.857 5.058h-75.284c-9.989 0-18.086 8.097-18.086 18.086v54.278c0 9.989 8.097 18.086 18.086 18.086h75.284c9.989 0 18.086-8.097 18.086-18.086V23.144c0-9.989-8.097-18.086-18.086-18.086"/>
        <path fill="#DFE0DC" d="M390.564 4.765h-75.285c-9.988 0-18.085 8.097-18.085 18.086v54.278c0 9.988 8.097 18.085 18.085 18.085h75.285c9.989 0 18.085-8.097 18.085-18.085V22.851c0-9.989-8.096-18.086-18.085-18.086"/>
        <path fill="#DEDFDB" d="M390.271 4.472h-75.285c-9.988 0-18.086 8.097-18.086 18.085v54.278c0 9.989 8.098 18.086 18.086 18.086h75.285c9.989 0 18.085-8.097 18.085-18.086V22.557c0-9.988-8.096-18.085-18.085-18.085"/>
        <path fill="#DDDEDA" d="M389.978 4.178h-75.285c-9.989 0-18.086 8.097-18.086 18.086v54.278c0 9.989 8.097 18.086 18.086 18.086h75.285c9.988 0 18.085-8.097 18.085-18.086V22.264c0-9.989-8.097-18.086-18.085-18.086"/>
        <path fill="#DCDDD8" d="M389.685 3.885h-75.286c-9.988 0-18.085 8.097-18.085 18.086v54.278c0 9.988 8.097 18.085 18.085 18.085h75.286c9.988 0 18.085-8.097 18.085-18.085V21.971c0-9.989-8.097-18.086-18.085-18.086"/>
        <path fill="#DADBD7" d="M389.391 3.592h-75.285c-9.988 0-18.085 8.097-18.085 18.085v54.279c0 9.988 8.097 18.086 18.085 18.086h75.285c9.988 0 18.086-8.098 18.086-18.086V21.677c0-9.988-8.098-18.085-18.086-18.085"/>
        <path fill="#D9DAD6" d="M389.098 3.298h-75.285c-9.989 0-18.085 8.098-18.085 18.086v54.279c0 9.988 8.096 18.085 18.085 18.085h75.285c9.988 0 18.086-8.097 18.086-18.085V21.384c0-9.988-8.098-18.086-18.086-18.086"/>
        <path fill="#D8D9D5" d="M388.805 3.005H313.52c-9.989 0-18.086 8.097-18.086 18.086v54.278c0 9.988 8.097 18.086 18.086 18.086h75.285c9.988 0 18.085-8.098 18.085-18.086V21.091c0-9.989-8.097-18.086-18.085-18.086"/>
        <path fill="#D7D8D3" d="M388.511 2.712h-75.284c-9.989 0-18.086 8.097-18.086 18.085v54.279c0 9.988 8.097 18.085 18.086 18.085h75.284c9.988 0 18.086-8.097 18.086-18.085V20.797c0-9.988-8.098-18.085-18.086-18.085"/>
        <path fill="#D6D6D2" d="M388.218 2.419h-75.285c-9.989 0-18.085 8.097-18.085 18.085v54.278c0 9.989 8.096 18.086 18.085 18.086h75.285c9.988 0 18.086-8.097 18.086-18.086V20.504c0-9.988-8.098-18.085-18.086-18.085"/>
        <path fill="#D5D7D1" d="M387.925 2.125H312.64c-9.989 0-18.086 8.097-18.086 18.086v54.278c0 9.989 8.097 18.086 18.086 18.086h75.285c9.988 0 18.085-8.097 18.085-18.086V20.211c0-9.989-8.097-18.086-18.085-18.086"/>
        <path fill="#D4D5D0" d="M387.631 1.832h-75.284c-9.989 0-18.086 8.097-18.086 18.086v54.278c0 9.988 8.097 18.085 18.086 18.085h75.284c9.988 0 18.086-8.097 18.086-18.085V19.918c0-9.989-8.098-18.086-18.086-18.086"/>
        <path fill="#D2D4CF" d="M387.338 1.539h-75.285c-9.989 0-18.085 8.097-18.085 18.085v54.278c0 9.989 8.096 18.086 18.085 18.086h75.285c9.988 0 18.086-8.097 18.086-18.086V19.624c0-9.988-8.098-18.085-18.086-18.085"/>
        <path fill="#D1D3CF" d="M387.044 1.245H311.76c-9.989 0-18.086 8.097-18.086 18.086v54.278c0 9.989 8.097 18.086 18.086 18.086h75.284c9.989 0 18.086-8.097 18.086-18.086V19.331c0-9.989-8.097-18.086-18.086-18.086"/>
        <path fill="#D0D2CD" d="M386.751.952h-75.284c-9.988 0-18.086 8.097-18.086 18.086v54.278c0 9.988 8.098 18.085 18.086 18.085h75.284c9.988 0 18.086-8.097 18.086-18.085V19.038c0-9.989-8.098-18.086-18.086-18.086"/>
        <path fill="#CFD1CC" d="M386.458.659h-75.285c-9.988 0-18.085 8.097-18.085 18.085v54.278c0 9.989 8.097 18.086 18.085 18.086h75.285c9.988 0 18.086-8.097 18.086-18.086V18.744c0-9.988-8.098-18.085-18.086-18.085"/>
        <path fill="#CECFCB" d="M386.164.365H310.88c-9.988 0-18.086 8.097-18.086 18.086v54.278c0 9.989 8.098 18.086 18.086 18.086h75.284c9.989 0 18.086-8.097 18.086-18.086V18.451c0-9.989-8.097-18.086-18.086-18.086"/>
        <path fill="#CDCECA" d="M385.871.072h-75.284c-9.988 0-18.086 8.097-18.086 18.086v54.278c0 9.988 8.098 18.085 18.086 18.085h75.284c9.988 0 18.086-8.097 18.086-18.085V18.158c0-9.989-8.098-18.086-18.086-18.086"/>
        <path fill="#FFFFFE" d="M246.17 330.785h-75.284c-9.989 0-18.086 8.098-18.086 18.086v54.278c0 9.989 8.097 18.085 18.086 18.085h75.284c9.989 0 18.086-8.096 18.086-18.085v-54.278c0-9.988-8.097-18.086-18.086-18.086"/>
        <path fill="#FFFFFE" d="M245.877 330.492h-75.284c-9.989 0-18.086 8.097-18.086 18.085v54.279c0 9.989 8.097 18.085 18.086 18.085h75.284c9.989 0 18.086-8.096 18.086-18.085v-54.279c0-9.988-8.097-18.085-18.086-18.085"/>
        <path fill="#FFFFFE" d="M245.584 330.198h-75.285c-9.988 0-18.085 8.098-18.085 18.086v54.279c0 9.988 8.097 18.085 18.085 18.085h75.285c9.988 0 18.085-8.097 18.085-18.085v-54.279c0-9.988-8.097-18.086-18.085-18.086"/>
        <path fill="#FFFEFD" d="M245.291 329.905h-75.285c-9.988 0-18.086 8.098-18.086 18.086v54.279c0 9.988 8.098 18.085 18.086 18.085h75.285c9.988 0 18.085-8.097 18.085-18.085v-54.279c0-9.988-8.097-18.086-18.085-18.086"/>
        <path fill="#FEFDFC" d="M244.997 329.612h-75.284c-9.989 0-18.086 8.097-18.086 18.085v54.279c0 9.989 8.097 18.086 18.086 18.086h75.284c9.989 0 18.086-8.097 18.086-18.086v-54.279c0-9.988-8.097-18.085-18.086-18.085"/>
        <path fill="#FDFCFB" d="M244.704 329.318h-75.285c-9.988 0-18.085 8.098-18.085 18.086v54.279c0 9.988 8.097 18.086 18.085 18.086h75.285c9.988 0 18.086-8.098 18.086-18.086v-54.279c0-9.988-8.098-18.086-18.086-18.086"/>
        <path fill="#FBFBFA" d="M244.411 329.025h-75.285c-9.988 0-18.086 8.098-18.086 18.086v54.279c0 9.988 8.098 18.085 18.086 18.085h75.285c9.988 0 18.086-8.097 18.086-18.085v-54.279c0-9.988-8.098-18.086-18.086-18.086"/>
        <path fill="#FAFAF9" d="M244.117 328.732h-75.284c-9.989 0-18.086 8.097-18.086 18.085v54.279c0 9.989 8.097 18.086 18.086 18.086h75.284c9.989 0 18.086-8.097 18.086-18.086v-54.279c0-9.988-8.097-18.085-18.086-18.085"/>
        <path fill="#FAFAF8" d="M243.824 328.439H168.54c-9.989 0-18.086 8.097-18.086 18.085v54.279c0 9.988 8.097 18.086 18.086 18.086h75.284c9.989 0 18.086-8.098 18.086-18.086v-54.279c0-9.988-8.097-18.085-18.086-18.085"/>
        <path fill="#F9F9F7" d="M243.531 328.146h-75.285c-9.988 0-18.085 8.097-18.085 18.085v54.279c0 9.988 8.097 18.085 18.085 18.085h75.285c9.988 0 18.086-8.097 18.086-18.085v-54.279c0-9.988-8.098-18.085-18.086-18.085"/>
        <path fill="#F8F8F6" d="M243.237 327.853h-75.284c-9.989 0-18.086 8.096-18.086 18.085v54.278c0 9.988 8.097 18.086 18.086 18.086h75.284c9.989 0 18.086-8.098 18.086-18.086v-54.278c0-9.989-8.097-18.085-18.086-18.085"/>
        <path fill="#F6F7F5" d="M242.944 327.559H167.66c-9.989 0-18.086 8.097-18.086 18.086v54.278c0 9.988 8.097 18.086 18.086 18.086h75.284c9.989 0 18.086-8.098 18.086-18.086v-54.278c0-9.989-8.097-18.086-18.086-18.086"/>
        <path fill="#F5F6F4" d="M242.651 327.266h-75.285c-9.988 0-18.085 8.096-18.085 18.086v54.278c0 9.988 8.097 18.085 18.085 18.085h75.285c9.988 0 18.085-8.097 18.085-18.085v-54.278c0-9.99-8.097-18.086-18.085-18.086"/>
        <path fill="#F4F5F2" d="M242.357 326.973h-75.284c-9.989 0-18.086 8.096-18.086 18.085v54.278c0 9.988 8.097 18.086 18.086 18.086h75.284c9.989 0 18.086-8.098 18.086-18.086v-54.278c0-9.989-8.097-18.085-18.086-18.085"/>
        <path fill="#F4F4F1" d="M242.064 326.679H166.78c-9.989 0-18.086 8.097-18.086 18.086v54.278c0 9.988 8.097 18.086 18.086 18.086h75.284c9.989 0 18.086-8.098 18.086-18.086v-54.278c0-9.989-8.097-18.086-18.086-18.086"/>
        <path fill="#F3F3F0" d="M241.771 326.386h-75.285c-9.988 0-18.085 8.096-18.085 18.086v54.278c0 9.988 8.097 18.085 18.085 18.085h75.285c9.988 0 18.085-8.097 18.085-18.085v-54.278c0-9.99-8.097-18.086-18.085-18.086"/>
        <path fill="#F1F2EE" d="M241.478 326.093h-75.285c-9.988 0-18.086 8.097-18.086 18.085v54.278c0 9.988 8.098 18.086 18.086 18.086h75.285c9.988 0 18.085-8.098 18.085-18.086v-54.278c0-9.988-8.097-18.085-18.085-18.085"/>
        <path fill="#F0F0ED" d="M241.185 325.799H165.9c-9.989 0-18.086 8.098-18.086 18.086v54.278c0 9.988 8.097 18.086 18.086 18.086h75.285c9.988 0 18.085-8.098 18.085-18.086v-54.278c0-9.988-8.097-18.086-18.085-18.086"/>
        <path fill="#EEEFEC" d="M240.891 325.506h-75.285c-9.988 0-18.085 8.097-18.085 18.086v54.278c0 9.988 8.097 18.085 18.085 18.085h75.285c9.988 0 18.086-8.097 18.086-18.085v-54.278c0-9.989-8.098-18.086-18.086-18.086"/>
        <path fill="#EDEDEB" d="M240.598 325.213h-75.285c-9.988 0-18.086 8.097-18.086 18.085v54.278c0 9.989 8.098 18.086 18.086 18.086h75.285c9.988 0 18.086-8.097 18.086-18.086v-54.278c0-9.988-8.098-18.085-18.086-18.085"/>
        <path fill="#EBECE9" d="M240.304 324.919H165.02c-9.989 0-18.086 8.098-18.086 18.086v54.278c0 9.989 8.097 18.086 18.086 18.086h75.284c9.989 0 18.086-8.097 18.086-18.086v-54.278c0-9.988-8.097-18.086-18.086-18.086"/>
        <path fill="#EAEBE8" d="M240.011 324.626h-75.284c-9.989 0-18.086 8.097-18.086 18.085v54.279c0 9.989 8.097 18.085 18.086 18.085h75.284c9.989 0 18.086-8.096 18.086-18.085v-54.279c0-9.988-8.097-18.085-18.086-18.085"/>
        <path fill="#E9EAE6" d="M239.718 324.332h-75.285c-9.988 0-18.085 8.098-18.085 18.086v54.278c0 9.989 8.097 18.086 18.085 18.086h75.285c9.988 0 18.086-8.097 18.086-18.086v-54.278c0-9.988-8.098-18.086-18.086-18.086"/>
        <path fill="#E8E9E5" d="M239.424 324.039H164.14c-9.989 0-18.086 8.098-18.086 18.086v54.278c0 9.989 8.097 18.086 18.086 18.086h75.284c9.989 0 18.086-8.097 18.086-18.086v-54.278c0-9.988-8.097-18.086-18.086-18.086"/>
        <path fill="#E8E9E4" d="M239.131 323.746h-75.284c-9.989 0-18.086 8.097-18.086 18.085v54.279c0 9.989 8.097 18.085 18.086 18.085h75.284c9.989 0 18.086-8.096 18.086-18.085v-54.279c0-9.988-8.097-18.085-18.086-18.085"/>
        <path fill="#E7E7E3" d="M238.838 323.452h-75.285c-9.988 0-18.085 8.098-18.085 18.086v54.278c0 9.989 8.097 18.086 18.085 18.086h75.285c9.988 0 18.085-8.097 18.085-18.086v-54.278c0-9.988-8.097-18.086-18.085-18.086"/>
        <path fill="#E5E6E1" d="M238.544 323.159H163.26c-9.989 0-18.086 8.098-18.086 18.086v54.278c0 9.989 8.097 18.085 18.086 18.085h75.284c9.989 0 18.086-8.096 18.086-18.085v-54.278c0-9.988-8.097-18.086-18.086-18.086"/>
        <path fill="#E4E5E0" d="M238.251 322.866h-75.284c-9.989 0-18.086 8.097-18.086 18.085v54.279c0 9.989 8.097 18.085 18.086 18.085h75.284c9.989 0 18.086-8.096 18.086-18.085v-54.279c0-9.988-8.097-18.085-18.086-18.085"/>
        <path fill="#E3E4DF" d="M237.958 322.572h-75.285c-9.988 0-18.085 8.098-18.085 18.086v54.279c0 9.988 8.097 18.086 18.085 18.086h75.285c9.988 0 18.085-8.098 18.085-18.086v-54.279c0-9.988-8.097-18.086-18.085-18.086"/>
        <path fill="#E1E3DD" d="M237.665 322.279H162.38c-9.988 0-18.086 8.098-18.086 18.086v54.279c0 9.988 8.098 18.085 18.086 18.085h75.285c9.988 0 18.085-8.097 18.085-18.085v-54.279c0-9.988-8.097-18.086-18.085-18.086"/>
        <path fill="#E0E1DD" d="M237.372 321.986h-75.285c-9.989 0-18.086 8.097-18.086 18.085v54.279c0 9.989 8.097 18.086 18.086 18.086h75.285c9.988 0 18.085-8.097 18.085-18.086v-54.279c0-9.988-8.097-18.085-18.085-18.085"/>
        <path fill="#DFE0DC" d="M237.078 321.692h-75.285c-9.988 0-18.085 8.098-18.085 18.086v54.279c0 9.988 8.097 18.086 18.085 18.086h75.285c9.988 0 18.086-8.098 18.086-18.086v-54.279c0-9.988-8.098-18.086-18.086-18.086"/>
        <path fill="#DEDFDB" d="M236.785 321.399H161.5c-9.988 0-18.085 8.098-18.085 18.086v54.279c0 9.988 8.097 18.085 18.085 18.085h75.285c9.988 0 18.086-8.097 18.086-18.085v-54.279c0-9.988-8.098-18.086-18.086-18.086"/>
        <path fill="#DDDEDA" d="M236.491 321.106h-75.284c-9.989 0-18.086 8.097-18.086 18.085v54.279c0 9.989 8.097 18.086 18.086 18.086h75.284c9.989 0 18.086-8.097 18.086-18.086v-54.279c0-9.988-8.097-18.085-18.086-18.085"/>
        <path fill="#DCDDD8" d="M236.198 320.813h-75.284c-9.989 0-18.086 8.097-18.086 18.085v54.279c0 9.988 8.097 18.086 18.086 18.086h75.284c9.989 0 18.086-8.098 18.086-18.086v-54.279c0-9.988-8.097-18.085-18.086-18.085"/>
        <path fill="#DADBD7" d="M235.905 320.52H160.62c-9.988 0-18.085 8.097-18.085 18.086v54.278c0 9.988 8.097 18.085 18.085 18.085h75.285c9.989 0 18.086-8.097 18.086-18.085v-54.278c0-9.989-8.097-18.086-18.086-18.086"/>
        <path fill="#D9DAD6" d="M235.611 320.227h-75.284c-9.989 0-18.086 8.096-18.086 18.085v54.278c0 9.989 8.097 18.086 18.086 18.086h75.284c9.989 0 18.086-8.097 18.086-18.086v-54.278c0-9.989-8.097-18.085-18.086-18.085"/>
        <path fill="#D8D9D5" d="M235.318 319.933h-75.284c-9.989 0-18.086 8.097-18.086 18.086v54.278c0 9.988 8.097 18.086 18.086 18.086h75.284c9.989 0 18.086-8.098 18.086-18.086v-54.278c0-9.989-8.097-18.086-18.086-18.086"/>
        <path fill="#D7D8D3" d="M235.025 319.64H159.74c-9.988 0-18.085 8.096-18.085 18.086v54.278c0 9.988 8.097 18.085 18.085 18.085h75.285c9.988 0 18.086-8.097 18.086-18.085v-54.278c0-9.99-8.098-18.086-18.086-18.086"/>
        <path fill="#D6D6D2" d="M234.731 319.347h-75.284c-9.989 0-18.086 8.096-18.086 18.085v54.278c0 9.988 8.097 18.086 18.086 18.086h75.284c9.989 0 18.086-8.098 18.086-18.086v-54.278c0-9.989-8.097-18.085-18.086-18.085"/>
        <path fill="#D5D7D1" d="M234.438 319.053h-75.284c-9.989 0-18.086 8.097-18.086 18.086v54.278c0 9.988 8.097 18.086 18.086 18.086h75.284c9.989 0 18.086-8.098 18.086-18.086v-54.278c0-9.989-8.097-18.086-18.086-18.086"/>
        <path fill="#D4D5D0" d="M234.145 318.76H158.86c-9.988 0-18.085 8.096-18.085 18.086v54.278c0 9.988 8.097 18.085 18.085 18.085h75.285c9.988 0 18.085-8.097 18.085-18.085v-54.278c0-9.99-8.097-18.086-18.085-18.086"/>
        <path fill="#D2D4CF" d="M233.852 318.467h-75.285c-9.988 0-18.086 8.097-18.086 18.085v54.278c0 9.988 8.098 18.086 18.086 18.086h75.285c9.988 0 18.086-8.098 18.086-18.086v-54.278c0-9.988-8.098-18.085-18.086-18.085"/>
        <path fill="#D1D3CF" d="M233.559 318.173h-75.285c-9.989 0-18.086 8.098-18.086 18.086v54.278c0 9.988 8.097 18.086 18.086 18.086h75.285c9.988 0 18.085-8.098 18.085-18.086v-54.278c0-9.988-8.097-18.086-18.085-18.086"/>
        <path fill="#D0D2CD" d="M233.265 317.88H157.98c-9.988 0-18.085 8.097-18.085 18.086v54.278c0 9.988 8.097 18.085 18.085 18.085h75.285c9.988 0 18.086-8.097 18.086-18.085v-54.278c0-9.989-8.098-18.086-18.086-18.086"/>
        <path fill="#CFD1CC" d="M232.972 317.587h-75.285c-9.988 0-18.085 8.097-18.085 18.085v54.278c0 9.989 8.097 18.086 18.085 18.086h75.285c9.988 0 18.086-8.097 18.086-18.086v-54.278c0-9.988-8.098-18.085-18.086-18.085"/>
        <path fill="#CECFCB" d="M232.678 317.293h-75.284c-9.989 0-18.086 8.098-18.086 18.086v54.278c0 9.989 8.097 18.086 18.086 18.086h75.284c9.989 0 18.086-8.097 18.086-18.086v-54.278c0-9.988-8.097-18.086-18.086-18.086"/>
        <path fill="#CDCECA" d="M232.385 317h-75.284c-9.989 0-18.086 8.097-18.086 18.086v54.278c0 9.989 8.097 18.085 18.086 18.085h75.284c9.989 0 18.086-8.096 18.086-18.085v-54.278c0-9.989-8.097-18.086-18.086-18.086"/>
        <path fill="#FDFCFB" d="M303.873 255.536H122.586c-13.473 0-25.435-6.475-32.944-16.481l-.266-.359c7.509 10.007 19.469 16.479 32.942 16.479h181.287c22.732 0 41.16-18.428 41.16-41.159v-.001a40.977 40.977 0 0 0-7.96-24.333l.304.409a40.984 40.984 0 0 1 7.924 24.286c0 22.731-18.428 41.159-41.16 41.159"/>
        <path fill="#FBFBFA" d="M303.605 255.175H122.318c-13.473 0-25.433-6.472-32.942-16.479a35.456 35.456 0 0 1-.288-.389c7.507 10.021 19.478 16.506 32.962 16.506h181.288c22.731 0 41.159-18.427 41.159-41.159v-.001a40.974 40.974 0 0 0-7.927-24.288c.079.106.157.21.235.317a40.977 40.977 0 0 1 7.96 24.333v.001c0 22.731-18.428 41.159-41.16 41.159"/>
        <path fill="#FAFAF9" d="M303.338 254.813H122.05c-13.484 0-25.455-6.485-32.962-16.506a39.469 39.469 0 0 1-.26-.35c7.508 10.015 19.474 16.495 32.955 16.495h181.286c22.733 0 41.16-18.428 41.16-41.16a40.973 40.973 0 0 0-7.931-24.294 40.974 40.974 0 0 1 8.199 24.655v.001c0 22.732-18.428 41.159-41.159 41.159"/>
        <path fill="#FAFAF8" d="M303.069 254.452H121.783c-13.481 0-25.447-6.48-32.955-16.495a37.259 37.259 0 0 1-.252-.341c7.508 10.003 19.468 16.475 32.939 16.475h181.287c22.731 0 41.16-18.428 41.16-41.16a40.973 40.973 0 0 0-7.939-24.304 40.973 40.973 0 0 1 8.206 24.665c0 22.732-18.427 41.16-41.16 41.16"/>
        <path fill="#F9F9F7" d="M302.802 254.091H121.515c-13.471 0-25.431-6.472-32.939-16.475a36.291 36.291 0 0 1-.292-.393c7.508 10.021 19.478 16.506 32.963 16.506h181.287c22.732 0 41.159-18.427 41.159-41.16a40.975 40.975 0 0 0-7.948-24.317 40.973 40.973 0 0 1 8.217 24.679c0 22.732-18.429 41.16-41.16 41.16"/>
        <path fill="#F8F8F6" d="M302.534 253.729H121.247c-13.485 0-25.455-6.485-32.963-16.506l-.265-.358c7.508 10.019 19.477 16.502 32.96 16.502h181.287c22.732 0 41.16-18.427 41.16-41.159 0-9.084-2.943-17.48-7.926-24.287l.245.331a40.975 40.975 0 0 1 7.948 24.317c0 22.733-18.427 41.16-41.159 41.16"/>
        <path fill="#F6F7F5" d="M302.266 253.367H120.979c-13.483 0-25.452-6.483-32.96-16.502-.088-.117-.174-.234-.261-.352 7.508 10.014 19.474 16.493 32.953 16.493h181.287c22.732 0 41.16-18.428 41.16-41.159a40.979 40.979 0 0 0-7.939-24.305l.281.379a40.975 40.975 0 0 1 7.926 24.287c0 22.732-18.428 41.159-41.16 41.159"/>
        <path fill="#F5F6F4" d="M301.998 253.006H120.711c-13.479 0-25.445-6.479-32.953-16.493-.093-.125-.187-.251-.279-.377 7.507 10.022 19.478 16.509 32.964 16.509H301.73c22.732 0 41.16-18.428 41.16-41.16 0-9.1-2.953-17.51-7.954-24.324a40.979 40.979 0 0 1 8.222 24.686c0 22.731-18.428 41.159-41.16 41.159"/>
        <path fill="#F4F5F2" d="M301.73 252.645H120.443c-13.486 0-25.457-6.487-32.964-16.509l-.25-.337c7.508 10.008 19.471 16.484 32.946 16.484h181.287c22.732 0 41.16-18.428 41.16-41.159a40.972 40.972 0 0 0-7.933-24.297c.082.11.166.222.247.334a40.967 40.967 0 0 1 7.954 24.324c0 22.732-18.428 41.16-41.16 41.16"/>
        <path fill="#F4F4F1" d="M301.462 252.283H120.175c-13.475 0-25.438-6.476-32.946-16.484l-.261-.352c7.509 10.003 19.468 16.475 32.939 16.475h181.287c22.732 0 41.16-18.428 41.16-41.159a40.979 40.979 0 0 0-7.939-24.305l.274.369a40.972 40.972 0 0 1 7.933 24.297c0 22.731-18.428 41.159-41.16 41.159"/>
        <path fill="#F3F3F0" d="M301.194 251.922H119.907c-13.471 0-25.43-6.472-32.939-16.475a57.634 57.634 0 0 1-.293-.395c7.507 10.022 19.479 16.509 32.965 16.509h181.287c22.731 0 41.159-18.428 41.159-41.16a40.978 40.978 0 0 0-7.947-24.316 40.979 40.979 0 0 1 8.215 24.678c0 22.731-18.428 41.159-41.16 41.159"/>
        <path fill="#F1F2EE" d="M300.927 251.561H119.64c-13.486 0-25.458-6.487-32.965-16.509l-.251-.338c7.509 10.01 19.471 16.485 32.948 16.485h181.286c22.733 0 41.16-18.428 41.16-41.159a40.977 40.977 0 0 0-7.927-24.289 40.978 40.978 0 0 1 8.195 24.65c0 22.732-18.428 41.16-41.159 41.16"/>
        <path fill="#F0F0ED" d="M300.658 251.199H119.372c-13.477 0-25.439-6.475-32.948-16.485l-.265-.358c7.509 10.007 19.471 16.482 32.945 16.482h181.287c22.732 0 41.16-18.428 41.16-41.159v-.001c0-9.081-2.94-17.474-7.921-24.28a40.977 40.977 0 0 1 8.188 24.642c0 22.731-18.427 41.159-41.16 41.159"/>
        <path fill="#EEEFEC" d="M300.391 250.838H119.104c-13.474 0-25.436-6.475-32.945-16.482a39.167 39.167 0 0 1-.288-.389c7.507 10.023 19.479 16.51 32.965 16.51h181.287c22.731 0 41.159-18.428 41.159-41.161 0-9.105-2.957-17.52-7.963-24.337a40.968 40.968 0 0 1 8.232 24.699v.001c0 22.731-18.428 41.159-41.16 41.159"/>
        <path fill="#EDEDEB" d="M300.123 250.477H118.836c-13.486 0-25.458-6.487-32.965-16.51a41.677 41.677 0 0 1-.249-.336c7.508 10.009 19.471 16.484 32.946 16.484h181.287c22.732 0 41.16-18.428 41.16-41.16a40.963 40.963 0 0 0-7.935-24.298 40.975 40.975 0 0 1 8.202 24.659c0 22.733-18.428 41.161-41.159 41.161"/>
        <path fill="#EBECE9" d="M299.855 250.115H118.568c-13.475 0-25.438-6.475-32.946-16.484a53.667 53.667 0 0 1-.283-.381c7.508 10.021 19.476 16.504 32.961 16.504h181.287c22.732 0 41.16-18.428 41.16-41.16a40.97 40.97 0 0 0-7.926-24.287 40.963 40.963 0 0 1 8.194 24.648c0 22.732-18.428 41.16-41.16 41.16"/>
        <path fill="#EAEBE8" d="M299.587 249.754H118.3c-13.485 0-25.453-6.483-32.961-16.504l-.252-.34c7.509 10.008 19.47 16.483 32.945 16.483h181.287c22.732 0 41.16-18.428 41.16-41.161a40.977 40.977 0 0 0-7.952-24.322 40.97 40.97 0 0 1 8.22 24.684c0 22.732-18.428 41.16-41.16 41.16"/>
        <path fill="#E9EAE6" d="M299.319 249.393H118.032c-13.475 0-25.436-6.475-32.945-16.483a57.833 57.833 0 0 1-.293-.396c7.507 10.026 19.481 16.516 32.97 16.516h181.287c22.732 0 41.16-18.428 41.16-41.159a40.978 40.978 0 0 0-7.934-24.298l.25.337a40.977 40.977 0 0 1 7.952 24.322c0 22.733-18.428 41.161-41.16 41.161"/>
        <path fill="#E8E9E5" d="M299.051 249.03H117.764c-13.489 0-25.463-6.49-32.97-16.516a44.15 44.15 0 0 1-.256-.346c7.507 10.019 19.475 16.501 32.958 16.501h181.287c22.733 0 41.16-18.428 41.16-41.159a40.977 40.977 0 0 0-7.927-24.289l.261.352a40.978 40.978 0 0 1 7.934 24.298c0 22.731-18.428 41.159-41.16 41.159"/>
        <path fill="#E8E9E4" d="M298.783 248.669H117.496c-13.483 0-25.451-6.482-32.958-16.501-.086-.114-.171-.23-.256-.345 7.508 10.008 19.472 16.485 32.946 16.485h181.288c22.731 0 41.159-18.428 41.159-41.16a40.975 40.975 0 0 0-7.965-24.34 40.977 40.977 0 0 1 8.233 24.702c0 22.731-18.427 41.159-41.16 41.159"/>
        <path fill="#E7E7E3" d="M298.516 248.308H117.228c-13.474 0-25.438-6.477-32.946-16.485-.09-.12-.177-.237-.265-.358 7.508 10.007 19.47 16.481 32.943 16.481h181.287c22.732 0 41.16-18.427 41.16-41.159a40.977 40.977 0 0 0-7.932-24.295l.235.316a40.975 40.975 0 0 1 7.965 24.34c0 22.732-18.428 41.16-41.159 41.16"/>
        <path fill="#E5E6E1" d="M298.247 247.946H116.96c-13.473 0-25.435-6.474-32.943-16.481a27.5 27.5 0 0 1-.286-.386c7.507 10.021 19.477 16.506 32.961 16.506h181.287c22.733 0 41.161-18.428 41.161-41.159a40.98 40.98 0 0 0-7.923-24.283 40.977 40.977 0 0 1 8.19 24.644c0 22.732-18.428 41.159-41.16 41.159"/>
        <path fill="#E4E5E0" d="M297.979 247.585H116.692c-13.484 0-25.454-6.485-32.961-16.506a42.23 42.23 0 0 1-.251-.338c7.508 10.008 19.47 16.483 32.945 16.483h181.287c22.731 0 41.159-18.428 41.159-41.16a40.969 40.969 0 0 0-7.958-24.331 40.98 40.98 0 0 1 8.227 24.693c0 22.731-18.428 41.159-41.161 41.159"/>
        <path fill="#E3E4DF" d="M297.712 247.224H116.425c-13.475 0-25.437-6.475-32.945-16.483a30.026 30.026 0 0 1-.265-.358c7.508 10.007 19.468 16.479 32.942 16.479h181.286c22.733 0 41.16-18.427 41.16-41.159v-.001a40.978 40.978 0 0 0-7.924-24.285 40.969 40.969 0 0 1 8.192 24.647c0 22.732-18.428 41.16-41.159 41.16"/>
        <path fill="#E1E3DD" d="M297.443 246.862H116.157c-13.474 0-25.434-6.472-32.942-16.479a27.976 27.976 0 0 1-.289-.389c7.507 10.021 19.478 16.507 32.963 16.507h181.287c22.732 0 41.16-18.428 41.16-41.159v-.001a40.984 40.984 0 0 0-7.925-24.286c.09.121.179.24.268.362a40.978 40.978 0 0 1 7.924 24.285v.001c0 22.732-18.427 41.159-41.16 41.159"/>
        <path fill="#E0E1DD" d="M297.176 246.501H115.889c-13.485 0-25.456-6.486-32.963-16.507a43.976 43.976 0 0 1-.256-.345c7.508 10.012 19.473 16.491 32.951 16.491h181.287c22.732 0 41.159-18.428 41.159-41.161a40.976 40.976 0 0 0-7.968-24.344l.312.42a40.984 40.984 0 0 1 7.925 24.286v.001c0 22.731-18.428 41.159-41.16 41.159"/>
        <path fill="#DFE0DC" d="M296.908 246.14H115.621c-13.478 0-25.443-6.479-32.951-16.491-.087-.117-.173-.232-.259-.35 7.509 10.006 19.47 16.479 32.942 16.479H296.64c22.732 0 41.16-18.427 41.16-41.16a40.976 40.976 0 0 0-7.93-24.293l.229.31a40.976 40.976 0 0 1 7.968 24.344c0 22.733-18.427 41.161-41.159 41.161"/>
        <path fill="#DEDFDB" d="M296.64 245.778H115.353c-13.472 0-25.433-6.473-32.942-16.479a27.658 27.658 0 0 1-.287-.387c7.507 10.021 19.477 16.505 32.961 16.505h181.287c22.733 0 41.16-18.428 41.16-41.16a40.985 40.985 0 0 0-7.92-24.28l.258.348a40.976 40.976 0 0 1 7.93 24.293c0 22.733-18.428 41.16-41.16 41.16"/>
        <path fill="#DDDEDA" d="M296.372 245.417H115.085c-13.484 0-25.454-6.484-32.961-16.505-.088-.118-.177-.237-.263-.355 7.507 10.017 19.475 16.498 32.956 16.498h181.287c22.732 0 41.16-18.427 41.16-41.159 0-9.105-2.957-17.52-7.961-24.336l.309.417a40.985 40.985 0 0 1 7.92 24.28c0 22.732-18.427 41.16-41.16 41.16"/>
        <path fill="#DCDDD8" d="M296.104 245.055H114.817c-13.481 0-25.449-6.481-32.956-16.498-.09-.12-.18-.241-.268-.362 7.508 10.018 19.475 16.498 32.956 16.498h181.288c22.731 0 41.159-18.427 41.159-41.159a40.974 40.974 0 0 0-7.928-24.29l.235.316a40.982 40.982 0 0 1 7.961 24.336c0 22.732-18.428 41.159-41.16 41.159"/>
        <path fill="#DADBD7" d="M295.837 244.693H114.549c-13.481 0-25.448-6.48-32.956-16.498a25.258 25.258 0 0 1-.274-.37c7.507 10.021 19.478 16.507 32.962 16.507h181.287c22.733 0 41.161-18.428 41.161-41.159a40.978 40.978 0 0 0-7.929-24.291l.268.362a40.974 40.974 0 0 1 7.928 24.29c0 22.732-18.428 41.159-41.159 41.159"/>
        <path fill="#D9DAD6" d="M295.568 244.332H114.281c-13.484 0-25.455-6.486-32.962-16.507a41.677 41.677 0 0 1-.249-.336c7.508 10.007 19.47 16.482 32.944 16.482h181.287c22.731 0 41.159-18.428 41.159-41.159 0-9.11-2.959-17.529-7.969-24.347l.309.417a40.978 40.978 0 0 1 7.929 24.291c0 22.731-18.428 41.159-41.161 41.159"/>
        <path fill="#D8D9D5" d="M295.301 243.971H114.014c-13.474 0-25.436-6.475-32.944-16.482a33.43 33.43 0 0 1-.267-.359c7.509 10.007 19.469 16.479 32.943 16.479h181.287c22.732 0 41.159-18.427 41.159-41.159a40.974 40.974 0 0 0-7.923-24.284l.222.299a40.974 40.974 0 0 1 7.969 24.347c0 22.731-18.428 41.159-41.159 41.159"/>
        <path fill="#D7D8D3" d="M295.033 243.609H113.746c-13.474 0-25.434-6.472-32.943-16.479a40.043 40.043 0 0 1-.292-.393c7.507 10.024 19.479 16.511 32.967 16.511h181.287c22.732 0 41.16-18.428 41.16-41.16a40.98 40.98 0 0 0-7.923-24.282c.09.119.178.239.267.36a40.974 40.974 0 0 1 7.923 24.284c0 22.732-18.427 41.159-41.159 41.159"/>
        <path fill="#D6D6D2" d="M294.765 243.248H113.478c-13.488 0-25.46-6.487-32.967-16.511-.082-.111-.165-.222-.246-.334 7.508 10.009 19.47 16.484 32.945 16.484h181.287c22.731 0 41.159-18.428 41.159-41.16 0-9.106-2.956-17.52-7.962-24.336a40.98 40.98 0 0 1 8.231 24.697c0 22.732-18.428 41.16-41.16 41.16"/>
        <path fill="#D5D7D1" d="M294.497 242.887H113.21c-13.475 0-25.437-6.475-32.945-16.484a36.272 36.272 0 0 1-.278-.374c7.508 10.016 19.474 16.496 32.955 16.496H294.23c22.731 0 41.159-18.427 41.159-41.159a40.98 40.98 0 0 0-7.928-24.29l.233.315a40.967 40.967 0 0 1 7.962 24.336c0 22.732-18.428 41.16-41.159 41.16"/>
        <path fill="#D4D5D0" d="M294.23 242.525H112.942c-13.481 0-25.447-6.48-32.955-16.496a32.43 32.43 0 0 1-.262-.354c7.508 10.012 19.472 16.489 32.949 16.489h181.287c22.732 0 41.16-18.428 41.16-41.16 0-9.083-2.943-17.48-7.927-24.288.091.12.178.239.267.36a40.98 40.98 0 0 1 7.928 24.29c0 22.732-18.428 41.159-41.159 41.159"/>
        <path fill="#D2D4CF" d="M293.961 242.164H112.674c-13.477 0-25.441-6.477-32.949-16.489a29.734 29.734 0 0 1-.264-.356c7.508 10.008 19.47 16.484 32.945 16.484h181.287c22.732 0 41.16-18.428 41.16-41.16a40.97 40.97 0 0 0-7.972-24.349 40.976 40.976 0 0 1 8.24 24.71c0 22.732-18.428 41.16-41.16 41.16"/>
        <path fill="#D1D3CF" d="M293.693 241.803H112.406c-13.475 0-25.437-6.476-32.945-16.484a50.938 50.938 0 0 1-.276-.371c7.508 10.014 19.474 16.493 32.953 16.493h181.288c22.731 0 41.159-18.427 41.159-41.159v-.001a40.97 40.97 0 0 0-7.924-24.284c.074.098.148.199.22.297a40.97 40.97 0 0 1 7.972 24.349c0 22.732-18.428 41.16-41.16 41.16"/>
        <path fill="#D0D2CD" d="M293.426 241.441H112.138c-13.479 0-25.445-6.479-32.953-16.493l-.267-.361c7.507 10.013 19.474 16.493 32.953 16.493h181.286c22.733 0 41.16-18.428 41.16-41.16a40.969 40.969 0 0 0-7.914-24.271 40.97 40.97 0 0 1 8.182 24.632v.001c0 22.732-18.428 41.159-41.159 41.159"/>
        <path fill="#CFD1CC" d="M293.157 241.08H111.871c-13.479 0-25.446-6.48-32.953-16.493a35.042 35.042 0 0 1-.286-.387c7.506 10.028 19.48 16.518 32.971 16.518H292.89c22.731 0 41.159-18.428 41.159-41.159 0-9.112-2.96-17.53-7.971-24.349a40.969 40.969 0 0 1 8.239 24.71c0 22.732-18.427 41.16-41.16 41.16"/>
        <path fill="#CECFCB" d="M292.89 240.718H111.603c-13.491 0-25.465-6.49-32.971-16.518-.087-.115-.173-.232-.259-.348 7.508 10.021 19.477 16.504 32.961 16.504h181.288c22.732 0 41.159-18.427 41.159-41.159a40.972 40.972 0 0 0-7.926-24.287c.075.099.149.2.223.3a40.973 40.973 0 0 1 7.971 24.349c0 22.731-18.428 41.159-41.159 41.159"/>
        <path fill="#CDCECA" d="M292.622 240.356H111.334c-13.484 0-25.453-6.483-32.961-16.504a40.982 40.982 0 0 1-8.198-24.655c0-22.732 18.428-41.159 41.159-41.159h181.288c13.648 0 25.745 6.643 33.233 16.872a40.972 40.972 0 0 1 7.926 24.287c0 22.732-18.427 41.159-41.159 41.159"/>
        <path fill="#5BC6F3" d="M292.447 158H111.159C88.428 158 70 176.427 70 199.159s18.428 41.159 41.159 41.159h181.288c22.731 0 41.159-18.427 41.159-41.159S315.178 158 292.447 158"/>
        <path fill="#BDE8FA" d="M295.823 256.268h-48.722v-3.296h48.722c29.652 0 53.775-24.123 53.775-53.775 0-29.651-24.123-53.774-53.775-53.774h-48.722v-3.297h48.722c31.469 0 57.071 25.602 57.071 57.071 0 31.469-25.602 57.071-57.071 57.071M156.899 256.268h-48.723c-31.468 0-57.07-25.602-57.07-57.071 0-31.468 25.602-57.071 57.07-57.071h48.723v3.297h-48.723c-29.65 0-53.774 24.123-53.774 53.774 0 29.652 24.124 53.775 53.774 53.775h48.723v3.296"/>
        <path fill="#A367A1" d="M232.37 317h-75.284c-9.989 0-18.086 8.097-18.086 18.086v54.278c0 9.989 8.097 18.085 18.086 18.085h75.284c9.989 0 18.086-8.096 18.086-18.085v-54.278c0-9.989-8.097-18.086-18.086-18.086"/>
        <path fill="#677EA3" d="M203.627 265.814a3.813 3.813 0 1 1-7.626 0 3.813 3.813 0 0 1 7.626 0M203.627 306.814a3.813 3.813 0 1 1-7.626 0 3.813 3.813 0 0 1 7.626 0"/>
        <path fill="#BDE8FA" d="M227.046 144.324a.548.548 0 0 1-.549-.549v-11.407c0-8.044 6.544-14.589 14.589-14.589h91.398c8.379 0 15.196-6.816 15.196-15.195a.549.549 0 1 1 1.099 0c0 8.985-7.31 16.294-16.295 16.294h-91.398c-7.439 0-13.49 6.052-13.49 13.49v11.407a.549.549 0 0 1-.55.549M176.954 144.324a.549.549 0 0 1-.55-.549v-11.407c0-7.438-6.051-13.49-13.49-13.49H71.516c-8.985 0-16.295-7.309-16.295-16.294a.549.549 0 1 1 1.099 0c0 8.379 6.817 15.195 15.196 15.195h91.398c8.044 0 14.589 6.545 14.589 14.589v11.407a.549.549 0 0 1-.549.549"/>
        <path fill="#246292" d="M386.37 0h-75.284C301.098 0 293 8.097 293 18.086v54.278c0 9.988 8.098 18.085 18.086 18.085h75.284c9.988 0 18.086-8.097 18.086-18.085V18.086C404.456 8.097 396.358 0 386.37 0"/>
        <path fill="#1F98A4" d="M93.37 0H18.086C8.097 0 0 8.097 0 18.086v54.278c0 9.988 8.097 18.085 18.086 18.085H93.37c9.989 0 18.086-8.097 18.086-18.085V18.086C111.456 8.097 103.359 0 93.37 0"/>
        <path fill="#2A495A" d="M352.042 102.584a3.813 3.813 0 1 0-7.626 0 3.813 3.813 0 0 0 7.626 0"/>
        <path fill="#1FA3A4" d="M59.584 102.584a3.813 3.813 0 1 0-7.626 0 3.813 3.813 0 0 0 7.626 0"/>
        <path fill="#2A495A" d="M230.859 143.775a3.813 3.813 0 1 0-7.626-.002 3.813 3.813 0 0 0 7.626.002"/>
        <path fill="#1FA3A4" d="M180.768 143.775a3.814 3.814 0 1 0-7.628 0 3.814 3.814 0 0 0 7.628 0"/>
        <text fill="#FFF" font-family="IRANSans-Bold, IRANSans" font-size="6" font-weight="bold">
            <tspan x="306.107" y="50">ارتقای دانش مسئولین و پرسنل </tspan> <tspan x="300" y="62">واحدهای فراهم‌آوری اعضای پیوندی </tspan> <tspan x="301.58" y="74">در همه زمینه‌های اهدای عضو</tspan>
        </text>
        <text fill="#FFF" font-family="IRANSans-Bold, IRANSans" font-size="6" font-weight="bold">
            <tspan x="15.715" y="50">ارتقای دانش کلیه رشته‌های </tspan> <tspan x="11" y="62">پزشکی و پیراپزشکی درباره مرگ </tspan> <tspan x="27.803" y="74">مغزی و اهدای عضو</tspan>
        </text>
        <text fill="#FFF" font-family="IRANSans-Bold, IRANSans" font-size="7" font-weight="bold">
            <tspan x="141.614" y="368.322">ارتقای دانش کلیه سطوح جامعه </tspan> <tspan x="144.914" y="380.322">درباره مرگ مغزی و اهدای عضو</tspan>
        </text>
        <text fill="#FFFFFE" font-family="IRANSans-Bold, IRANSans" font-size="23.798" font-weight="bold">
            <tspan x="137" y="206"> اهداف فرعی</tspan>
        </text>
        <g fill="#FFF" fill-rule="nonzero" stroke="#FFF" stroke-width=".3">
            <path d="M354.845 11.01v.82h1.47l-8.435 8.435-4.095-4.1-5.205 5.205.575.58 4.63-4.625 4.095 4.095 9.015-9.01v1.465h.82V11.01z"/>
            <path d="M360.58 34.77V16.745h-4.095V34.77h-.82V19.205h-4.095v15.57h-.82V24.94h-4.1v9.83h-.82V22.48h-4.095v12.29h-.82v-5.735h-4.095v5.735H336v.82h25.4v-.82h-.82zm-20.48 0h-2.46v-4.915h2.46v4.915zm4.915 0h-2.46V23.3h2.46v11.47zm4.915.005h-2.46V25.76h2.46v9.015zm4.915 0h-2.46v-14.75h2.46v14.75zm4.92-.005h-2.46V17.565h2.46V34.77z"/>
        </g>
        <g fill="#FFF" fill-rule="nonzero" stroke="#FFF" stroke-width=".2">
            <path d="M64.773 23.704h-2.56V20.29a3.417 3.417 0 0 0-3.413-3.413h-1.707c-.01 0-.02.005-.03.006a.4.4 0 0 0-.083.017.295.295 0 0 0-.14.07.4.4 0 0 0-.067.058c-.006.008-.015.012-.021.02l-.939 1.251-.939-1.251c-.006-.009-.015-.012-.021-.02a.41.41 0 0 0-.066-.058.402.402 0 0 0-.065-.043.426.426 0 0 0-.075-.026.408.408 0 0 0-.085-.017c-.011 0-.02-.006-.03-.006h-1.706a3.417 3.417 0 0 0-3.413 3.413v3.413H47.28a1.277 1.277 0 0 0-.427 2.482v8.184c0 .707.573 1.28 1.28 1.28h15.36a1.28 1.28 0 0 0 1.28-1.28v-8.106a1.28 1.28 0 0 0 0-2.56zM50.266 20.29a2.562 2.562 0 0 1 2.56-2.56h1.494l1.152 1.536a.427.427 0 0 0 .682 0l1.152-1.536H58.8a2.563 2.563 0 0 1 2.56 2.56v3.414h-1.707V20.29a.427.427 0 0 0-.853 0v3.414h-5.974V20.29a.427.427 0 0 0-.853 0v3.414h-1.707V20.29zM63.92 34.37a.427.427 0 0 1-.427.427h-15.36a.427.427 0 0 1-.427-.427v-8.106H63.92v8.106zm.853-8.96H47.28a.427.427 0 0 1 0-.853h17.493a.427.427 0 0 1 0 .853zM70.198 10.05h-7.863a1.376 1.376 0 0 0-1.402 1.345v4.591a1.376 1.376 0 0 0 1.402 1.344h1.402v1.22a.865.865 0 0 0 .49.827c.091.04.19.06.29.06a.863.863 0 0 0 .588-.252l1.972-1.855h3.122a1.376 1.376 0 0 0 1.4-1.344v-4.59a1.376 1.376 0 0 0-1.401-1.346zm.548 5.936a.523.523 0 0 1-.548.491h-3.292a.426.426 0 0 0-.292.116l-2.024 1.9v-1.59a.427.427 0 0 0-.427-.426h-1.828a.523.523 0 0 1-.549-.49v-4.592a.53.53 0 0 1 .549-.491h7.863a.53.53 0 0 1 .548.491v4.591z"/>
            <path d="M68.738 11.882L66.1 14.521l-.985-1.313a.426.426 0 1 0-.682.512l1.28 1.706c.074.1.187.162.31.17h.03a.426.426 0 0 0 .303-.124l2.986-2.987a.426.426 0 1 0-.603-.603zM53.253 31.81h1.28v1.28c0 .472.382.854.853.854h.854a.853.853 0 0 0 .853-.854v-1.28h1.28a.853.853 0 0 0 .853-.853v-.853a.853.853 0 0 0-.853-.854h-1.28v-1.28a.853.853 0 0 0-.853-.853h-.854a.853.853 0 0 0-.853.853v1.28h-1.28a.853.853 0 0 0-.853.854v.853c0 .471.382.853.853.853zm0-1.706h1.28a.853.853 0 0 0 .853-.854v-1.28h.854v1.28c0 .471.382.854.853.854h1.28v.853h-1.28a.853.853 0 0 0-.853.853v1.28h-.854v-1.28a.853.853 0 0 0-.853-.853h-1.28v-.853zM48.986 30.53a.427.427 0 0 0 .427-.426v-2.56a.427.427 0 0 0-.853 0v2.56c0 .235.19.426.426.426zM49.413 31.81a.427.427 0 1 1-.853 0 .427.427 0 0 1 .853 0zM63.493 12.184a.427.427 0 1 1-.854 0 .427.427 0 0 1 .854 0zM63.066 13.464a.427.427 0 0 0-.426.426v.854a.427.427 0 1 0 .853 0v-.854a.427.427 0 0 0-.427-.426zM55.813 12.184a.427.427 0 1 1-.854 0 .427.427 0 0 1 .854 0z"/>
            <path d="M58.8 13.037a2.987 2.987 0 1 0-5.974 0 2.987 2.987 0 0 0 5.974 0zm-5.12 0a2.133 2.133 0 1 1 4.267 0 2.133 2.133 0 0 1-4.267 0zM55.813 21.57h.427v.427a.427.427 0 1 0 .853 0v-.427h.427a.427.427 0 0 0 0-.853h-.427v-.427a.427.427 0 0 0-.853 0v.427h-.427a.427.427 0 1 0 0 .853z"/>
        </g>
        <g fill="#FFF" fill-rule="nonzero">
            <path d="M206.85 337h-3a.75.75 0 0 0 0 1.5h1.19l-3.655 3.655a5.268 5.268 0 0 0-2.701-3.556A3.742 3.742 0 0 0 200 335.75a3.754 3.754 0 0 0-3.75-3.75 3.754 3.754 0 0 0-3.75 3.75c0 1.14.511 2.161 1.316 2.85a5.274 5.274 0 0 0-2.612 3.2 5.317 5.317 0 0 0-1.518-1.202A3.742 3.742 0 0 0 191 337.75a3.754 3.754 0 0 0-3.75-3.75 3.754 3.754 0 0 0-3.75 3.75c0 1.14.511 2.161 1.316 2.85a5.255 5.255 0 0 0-2.816 4.65v5.5c0 .414.336.75.75.75h6.1a.75.75 0 0 0 .53-.22l5.47-5.47 1.97 1.97a.75.75 0 0 0 1.06 0l8.22-8.22v1.19a.75.75 0 0 0 1.5 0v-3a.75.75 0 0 0-.75-.75zM194 335.75c0-1.24 1.01-2.25 2.25-2.25s2.25 1.01 2.25 2.25-1.01 2.25-2.25 2.25-2.25-1.01-2.25-2.25zm-9 2c0-1.24 1.01-2.25 2.25-2.25s2.25 1.01 2.25 2.25-1.01 2.25-2.25 2.25-2.25-1.01-2.25-2.25zm3.54 12.25h-5.04v-4.75a3.754 3.754 0 0 1 3.75-3.75c.981 0 1.909.377 2.611 1.062a3.734 3.734 0 0 1 1.133 2.576c0 .027.003.053.006.078v2.323L188.54 350zm8.81-3.81l-1.97-1.97a.75.75 0 0 0-1.06 0l-1.82 1.82v-2.79a3.754 3.754 0 0 1 3.75-3.75 3.754 3.754 0 0 1 3.75 3.75v.29l-2.65 2.65z"/>
        </g>
    </g>
</svg>
