<svg xmlns="http://www.w3.org/2000/svg" width="769" height="500" viewBox="0 0 769 500">
    <defs>
        <filter id="a" width="103.1%" height="104.9%" x="-1.6%" y="-2.4%" filterUnits="objectBoundingBox">
            <feOffset dy="2" in="SourceAlpha" result="shadowOffsetOuter1"/>
            <feGaussianBlur in="shadowOffsetOuter1" result="shadowBlurOuter1" stdDeviation="2"/>
            <feColorMatrix in="shadowBlurOuter1" result="shadowMatrixOuter1" values="0 0 0 0 0.82180048 0 0 0 0 0.889522157 0 0 0 0 0.957243835 0 0 0 0.104212194 0"/>
            <feMerge>
                <feMergeNode in="shadowMatrixOuter1"/>
                <feMergeNode in="SourceGraphic"/>
            </feMerge>
        </filter>
    </defs>
    <g fill="none" fill-rule="evenodd" filter="url(#a)" transform="translate(3 2)" opacity=".6">
        <path fill="#FFF" fill-rule="nonzero" d="M372.34 365.73v5.09A85.9 85.9 0 0 0 338 352.45c-16.84-4.68-33.69-9.4-49.87-16.14-11.77-4.9-23-10.77-32.47-19.45a43.74 43.74 0 0 1-6.12-6.71 12.3 12.3 0 0 1-1.92-3.87c-.34-1.18-.5-2.33.46-3.29s2.13-.73 3.29-.35c1.92.63 3.46 1.95 5.3 3 .29-1-.47-1.55-.86-2.16-3.87-6-6.58-12.41-6.75-19.67 0-1.56-.39-3.6 1.27-4.27 1.66-.67 2.94 1.11 4 2.31a77.05 77.05 0 0 1 7.07 10.28v-8.4c0-5.48.16-10.9 2.62-16a16.82 16.82 0 0 1 1.62-2.87c1.12-1.5 2.09-1.4 2.91.3a20.15 20.15 0 0 1 1.63 7.42 41 41 0 0 0 9.82 24.7c4 4.67 7.7 9.52 12.33 13.6 9.34 8.25 19.74 15 30.41 21.35 11.44 6.81 23.3 12.83 35 19.13a102.2 102.2 0 0 1 14.57 9.79v2.23c-.89.4-1.43-.28-2-.7-9.6-7.1-20.24-12.32-31.08-17.16-14.11-6.3-28.45-12-42.64-18.12a27.8 27.8 0 0 0-7.2-2.37 60.8 60.8 0 0 0 7.55 5.28c11.7 7.45 24.5 12.26 37.81 15.87a101.2 101.2 0 0 1 35.59 17.51 5.51 5.51 0 0 1 2 2.04z"/>
        <path fill="#FFF" fill-rule="nonzero" d="M372.34 365.73a128.56 128.56 0 0 0-18.62-11.84c-8.66-4.4-18-6.94-27.2-9.64a126.36 126.36 0 0 1-35.37-17.1 7.77 7.77 0 0 1-3-3c5.55 1.11 10.09 3.44 14.77 5.37 4.68 1.93 9.51 4 14.27 6s9.54 4 14.27 6 9.46 4.16 14.14 6.33 9.29 4.53 13.79 7.07 8.7 5.54 13 8.46c-.06.78-.05 1.56-.05 2.35zM383.69 366.83v-12.49a3.45 3.45 0 0 1 .38-2.37v7.64c1.23 0 1.81-.89 2.54-1.44 6.6-4.95 14-8.59 21.22-12.41 13.74-7.22 27.39-14.59 40.19-23.4 8.48-5.83 16.64-12.06 23.32-20 6-7.1 11.54-14.38 13.25-23.9.63-3.53.25-7.17 1.38-10.62.48-1.47.45-3.62 2.26-3.8 1.81-.18 2.14 1.86 2.82 3.18a26.37 26.37 0 0 1 2.83 12c.05 4.13 0 8.27 0 12.82 1.91-2.79 3.61-5.31 5.35-7.8a17.17 17.17 0 0 1 3.08-3.61c.77-.64 1.6-1.55 2.71-1.06 1.11.49 1.17 1.67 1.23 2.68A29 29 0 0 1 505 292a46.75 46.75 0 0 1-7.07 13.83c1.8-.5 2.79-1.62 4-2.23 1.66-.81 3.42-2.11 5.14-.58 1.72 1.53.67 3.53-.18 5.13-2.85 5.38-7.45 9.17-12.14 12.8-10.59 8.18-22.63 13.62-35.08 18.26-15.5 5.77-31.51 9.91-47.34 14.66a78.6 78.6 0 0 0-26.72 14.52c-.48.39-1 .69-1.54 1-.51-.79.11-1.76-.38-2.56z"/>
        <path fill="#FFF" fill-rule="nonzero" d="M469.34 321.84a7.78 7.78 0 0 1-2.93 2.5 194.16 194.16 0 0 1-50.18 24c-9.71 3-19.08 6.83-27.46 12.73-1.46 1-2.91 2.08-4.36 3.12h-.21c-.67-1.54.6-2.09 1.49-2.75a142.09 142.09 0 0 1 23.14-13.61c18.51-8.9 37.66-16.33 56.41-24.71a12.55 12.55 0 0 1 4.1-1.28zM340.47 247a37 37 0 0 1-20.47-5.45c-1.22-.75-3-1.3-3-2.86 0-1.56 1.9-1.82 3.11-2.3A45 45 0 0 0 334 227.5a.86.86 0 0 1 .94-.18c2.18.92 4.57 1.14 6.75 2.06.38 1.42-.87 1.69-1.65 2.17-2.64 1.62-5.42 3-8.2 4.37a4.31 4.31 0 0 0-2.14 1.51c10.531 3.756 22.2-1.025 27.07-11.09a2.08 2.08 0 0 1 .34-.48 34.81 34.81 0 0 0 7.86-1.24c1.78 7.48-1.89 12.64-7.29 17a18.85 18.85 0 0 1-4 2.45c-2.65 1.12-5.22 2.47-8.2 2.5a2.32 2.32 0 0 0-1.58 0c-1.18.37-2.21 1.33-3.43.43z"/>
        <path fill="#FFF" fill-rule="nonzero" d="M345.39 246.61c2.6-1.13 5.44-1.59 7.95-3 .55.84 0 1.6-.19 2.36a85.28 85.28 0 0 0-2.42 9.4c-.15.87-.52 1.94.33 2.51.85.57 1.8-.29 2.54-.83a26.31 26.31 0 0 0 8.59-11.41 53.77 53.77 0 0 0 3.48-12.3c.18-1.06.09-2.23 1-3.08 2.14 4.29 4.1 8.69 6.93 12.6.31 2.39-.89 4.36-1.82 6.4-.33.753-.7 1.487-1.11 2.2-1.95 3.53-5 6.2-7.6 9.17-1.06.6-1.83 1.69-3.14 1.85-5 3.31-10.37 5.64-16.52 5.51a21.72 21.72 0 0 1-3.68-.42c-1.2-.23-1.65-1-.93-2.09a25.68 25.68 0 0 1 2.12-3 17.66 17.66 0 0 0 4.08-11.35c.05-1.51.26-3.01.39-4.52zM409.58 247.83c-.23 5.85 1.13 11.11 5.1 15.66 2.53 2.9 2.08 3.78-1.8 4.12-6.85.59-12.85-1.74-18.32-5.69-.95-.68-1.85-1.42-2.77-2.13-.35-.17-.77-.06-1.09-.31a37.39 37.39 0 0 1-7.15-9.25 36 36 0 0 1-2.07-4.45 2.78 2.78 0 0 1-.07-2.19c2.53-2.63 4-5.9 5.37-9.19 1.15.52 1.08 1.69 1.34 2.64a40 40 0 0 0 6.59 14.16 20.75 20.75 0 0 0 5 4.54c.52.35 1.1.69 1.73.32.63-.37.59-1.07.51-1.68a49.39 49.39 0 0 0-1.88-8c-.32-1-.92-2-.4-3.19.19-.09.41-.21.59-.14 3 1.23 6.11 2 9.08 3.25a1.92 1.92 0 0 1 .24 1.53zM357.06 225.86v.39a6.6 6.6 0 0 1-3.13 1.85 37 37 0 0 1-9.18 2 3.78 3.78 0 0 1-2.94-.49 28.88 28.88 0 0 1-7.81-2.11l-.49-.47a4 4 0 0 1-2.88-2.41c-5.36-5.84-6.56-12.94-6.18-20.51.06-1.1.34-1.93 1.74-1.53 5.81 1.65 11.85 1.32 17.77 2.07l3.62.45c1.48 2 1.66 4.3 1.79 6.64-.78.6-1.59.16-2.37 0-4-.73-8.07-1.07-12.11-1.48-2.29-.23-2.82.56-1.76 2.67 2.78 5.49 6.92 9.24 13.35 9.81a9.39 9.39 0 0 1 2.62.53 23.86 23.86 0 0 0 7.96 2.59z"/>
        <path fill="#FFF" fill-rule="nonzero" d="M349.21 211.72l-1.68-6.62c0-3.58-.11-7.2 1.26-10.59 1.46-3.61 1.3-3.54 4.6-1.67a22.8 22.8 0 0 1 11.12 14.75 9.34 9.34 0 0 1-3.64 2.63c-.95-.73-.95-1.93-1.43-2.9a15.45 15.45 0 0 0-3.94-5.11c-1.32 2.46-.7 4.85-.21 7.24.17.85.74 1.66.26 2.58a22.86 22.86 0 0 1-5.89.55.86.86 0 0 1-.45-.86zM399.74 243.24c-3.06-2.09-6-4.27-8-7.53a15.29 15.29 0 0 1-2.47-7.7l.72-3.73 3.43 1.14c1.77 2 2.63 4.48 4.36 6.5a21 21 0 0 0 14.9 7.48 28.16 28.16 0 0 0 7.61-.41c.51-.1 1.25 0 1.29-.74 0-.54-.59-.7-1-.91a91.6 91.6 0 0 1-10.82-6c-.64-.43-1.83-.63-1.22-1.92 2.32-.64 4.78-.28 7.1-1 1.35-.45 2.61-1.27 4.13-1.16.225.06.429.182.59.35a42.83 42.83 0 0 0 14.12 9.11c1.1.44 2.73.73 2.75 2.15.02 1.42-1.54 2-2.64 2.64a36.78 36.78 0 0 1-22.06 5.52c-1.09 0-2.21.53-3.25-.24a87.77 87.77 0 0 1-9.54-3.55z"/>
        <path fill="#FFF" fill-rule="nonzero" d="M420.06 227.5a6.09 6.09 0 0 0-2.69.86 22.86 22.86 0 0 1-9 1.27c-.54.49-1.16.29-1.76.21a35.28 35.28 0 0 1-9.5-2.72c-.66-.29-1.49-.5-1.4-1.52a19.84 19.84 0 0 0 9.41-1.86 6.56 6.56 0 0 1 2.4-.5c6.48-.62 10.92-4.13 13.72-9.85 1-2.09.53-2.82-1.79-2.66-5.07.35-10.09 1.14-15.12 1.78l-1.62-.06a10.5 10.5 0 0 0 2.3-5.66c.09-.67.17-1.37.95-1.65 5.65-1 11.41-.79 17.07-1.62a37.13 37.13 0 0 0 4-.84c1.31-.34 1.95 0 2 1.43.37 7.59-.82 14.71-6.2 20.57-.39 1.45-1.83 1.84-2.77 2.82z"/>
        <path fill="#FFF" fill-rule="nonzero" d="M405.94 205.14c-.41 1.69-.83 3.38-1.22 5.08a2.68 2.68 0 0 1-2 2.23c-1.06.53-1.9-.6-2.92-.39-.1-1.62.74-3.05.93-4.62a8.69 8.69 0 0 0-.63-5.25 14.83 14.83 0 0 0-4.36 6.09c-.32.8-.35 1.81-1.39 2.17-1.78-1.24-3.77-2.22-5-4.14a23.28 23.28 0 0 1 11.88-14.07c1.64-.86 2.39-.39 3.07 1.18 1.62 3.77 1.7 7.73 1.64 11.72z"/>
        <path fill="#75A643" fill-rule="nonzero" d="M384.33 189.43v5.77a10.29 10.29 0 0 1 0-5.77zM410.39 212.6a3.32 3.32 0 0 1 3.12 0h-3.12z"/>
        <path fill="#FFF" fill-rule="nonzero" d="M370.27 251.51a49.23 49.23 0 0 0 4.5 16.17c0 .06 0 .14.06.19.61 1 .91 2.58 2.34 2.58 1.28 0 1.54-1.42 2-2.38a53.57 53.57 0 0 0 4.83-17.78 77.23 77.23 0 0 0 7 9.09 3.22 3.22 0 0 1-.91 3.29c-2.74 6.88-6.09 13.51-8.58 20.51a14.62 14.62 0 0 1-2.34 4.56c-1 1.27-2.13 1.39-3.24.05a25.75 25.75 0 0 1-2.76-4.35c-3.84-7.14-8-14.1-10.35-21.95a.57.57 0 0 1 0-.81c.12-.32.15-.73.37-.94a61.14 61.14 0 0 0 7.08-8.23z"/>
        <path fill="#FFF" fill-rule="nonzero" d="M728.48 138.35a12 12 0 0 1-3.63 3.25c-.09 1.16-.14 2.33-.28 3.49-1.15 9.74-2 19.62-4.4 29.15a104.8 104.8 0 0 1-10.46 25.94A114.59 114.59 0 0 1 692 223.43a137.31 137.31 0 0 1-11.86 10.77c-1.15.92-27.63 17.7-28.3 18.25-.61.34-1.21.69-1.62.88l-4.3 2c-2.88 1.32-5.76 2.62-8.66 3.86-5.77 2.46-12 5.08-18.13 6.48-.32.07-.74-.09-.72-.42a.62.62 0 0 1 .09-.26c3.49-6.94 5.36-15 6.68-22.61a127.87 127.87 0 0 0 1.82-24.11c0-1-.1-2.05-.1-3.07 0-.79-.07-1.58-.12-2.38a142.9 142.9 0 0 0-1.82-16.1c-1.21-6.86-3.58-13.73-5.83-20.32a185.54 185.54 0 0 0-12.7-28.75 216.356 216.356 0 0 0-8.11-13.68c-2.41-3.75-5.66-7.84-8-11.62-1.5-2.41.62-2.59 1.82-3.54a66.433 66.433 0 0 0 4.76-4.1 71.61 71.61 0 0 0 19.7-32.31c.54-1.91 1-3.93 2.39-5.4a13.58 13.58 0 0 1 4.38-2.7 47.65 47.65 0 0 0 13.35-8.9c4.53-4.51 7.4-10.08 10.58-15.54a19.39 19.39 0 0 0 3-8.25c-5.74 11.14-13.8 22.81-25.72 27.9a9.54 9.54 0 0 1-5.33 1 238 238 0 0 0 1.9-40c0-.92-.65-2.2-1.45-1.75a1.29 1.29 0 0 0-.51.73c-1.32 3.55-1.28 7.43-1.37 11.21a140.91 140.91 0 0 1-3.55 28.12c-2.08 9-4.74 18.09-9.43 26.06A57.49 57.49 0 0 1 596 106c-3 3-6.66 7-10.38 9a1.31 1.31 0 0 1-1.8-.09c-1.77-1.62-3.19-3.47-4.83-5.2-3-3.11-5.73-6.53-9-9.36a6.71 6.71 0 0 0-3.08 3.1c1.31 2.41 3.58 4.18 5.21 6.36C585.1 127.16 597.38 145 606 165c8.89 20.46 14.45 42.6 12.4 65a114.25 114.25 0 0 1-4.91 23.66c-6.11 19.5-20.79 33.77-35.4 47.2a150 150 0 0 1-18 14.16c-6.37 4.27-13.23 7.54-19.81 11.41-5.47 3.21-11 6.33-16.63 9.2-10 5.09-20.3 9.71-30.66 14.08-14.207 6-28.64 11.43-43.3 16.29l-2.9 1c-7.37 2.69-15 5.08-22.44 7.83a345.966 345.966 0 0 0-11.18 4.36c-7.34 3-14.78 6.36-22.17 9.48-2.41 1-4.05 2-5.06-.61-1.18-3.07-.84-7.73-1.05-11-1.27-20.1-1.38-45.07 14.24-60.16 20.25-19.59 42.2-37.38 62.41-57.05a21.88 21.88 0 0 1 12.3-6.24c4-.61 8-1.54 11.93-2.44 15.65-3.57 31-8.79 44.74-17.25a70 70 0 0 0 16.35-13.79 45 45 0 0 0 8.63-15c.19-.53.83-2.09 0-2.44a7.18 7.18 0 0 0-1.44.4c-.4.64-.81 1.27-1.19 1.92A71.15 71.15 0 0 1 522 233.7c-9.72 4.65-20.18 7.51-30.73 9.57-6 1.17-12.06 2-18.48 3.1 1.63-3.4 3.05-6.44 4.53-9.45 5.86-11.92 10.08-24.32 10.55-37.72a60.83 60.83 0 0 0-9.59-35.57c-.92-1.44-.93-2.32.21-3.68A40.08 40.08 0 0 0 485 119a47.93 47.93 0 0 0-9.09-14c-.44-.21-.65 0-.8.4.19 2 1.35 3.57 2.34 5.22a40.65 40.65 0 0 1-2.5 45.12c-1.11 1.46-1.66 1.4-2.82.07A52.62 52.62 0 0 0 457.41 144a44.92 44.92 0 0 0-14.57-4.61 63.12 63.12 0 0 0-7.65-.63c-1.8 0-5.32.78-6.73-.55a64.2 64.2 0 0 1-12.09-15c-3.55-6.26-5-12.94-6.75-19.86a4 4 0 0 0-.79 2.79c0 1.76-.39 3.38-.22 5.18.56 5.89 1.31 11.09 4.41 16.26a43.11 43.11 0 0 0 4.45 6c.58.67 4.55 5.66 5.28 5.45a60 60 0 0 0-11.47 4.19 80.38 80.38 0 0 0-24.53 20.52c-3.58 4.39-7 9-9 14.35a73.27 73.27 0 0 0-13.18-18.82c-9-9.32-18.89-17.29-32-20.08-.08 0-.12-.19-.25-.4a108 108 0 0 0 7.51-9 41.16 41.16 0 0 0 7.66-19 4.76 4.76 0 0 0-.49-3.21c.68 1-2.37 6.26-2.84 7.42-3.64 9-9.43 16.32-16.66 22.68a3.86 3.86 0 0 1-3 1.05 63.2 63.2 0 0 0-15.22 1.09c-10.66 2.16-19 8.09-26.15 16-1.11 1.23-1.67 1.29-2.7-.09a40.29 40.29 0 0 1-7.31-15.63c-1.76-8.08-1-18 2.73-25.6 1.4-2.88 3.24-5.54 4.41-8.53.18-.45.25-1.12-.21-1.28-.46-.16-.65.16-.89.42a43.52 43.52 0 0 0-11.57 25.32 34.27 34.27 0 0 0 0 7.16 39.75 39.75 0 0 0 9.46 22.46 2.29 2.29 0 0 1 .23 3.21 59.41 59.41 0 0 0-3.84 6.83c-7.07 15.17-7.49 30.8-3.2 46.77 2.56 9.5 6.88 18.26 11.09 27.07.31.64.89 1.23.64 2.08-1.35.23-2.61-.27-3.89-.44a182.48 182.48 0 0 1-32.43-7.06 86.37 86.37 0 0 1-28-14.85c-6.1-5-11-11.69-15-18.55-.7-1.18-1.37-2.38-2.09-3.54-.16-.25-.53-.57-.77-.55-.51 0-.51.56-.52 1a10.22 10.22 0 0 0 .86 3.78c-.26.49.24.64.41.93a33.93 33.93 0 0 0 4.36 8.62c7 10.18 17.22 17.66 28.12 23.18 14.44 7.29 29.82 11.73 45.67 14.5 6.66 1.16 12.26 3.73 17 8.55 3.61 3.7 7.32 7.32 11.14 10.79 15.2 13.82 30.69 27.32 45.74 41.32 6.34 5.9 11.49 12.62 14.2 21 5.32 16.4 4.65 35.92 2.65 52.88-.33 2.72-.64 2.93-3.27 2.06a36.38 36.38 0 0 1-3.47-1.32c-18.2-8.21-36.79-15.38-55.7-21.8-31.17-10.58-61.93-22.78-90.61-39.05-5.77-3.27-11.4-6.79-17.11-10.16-3.42-2-6.42-4.65-9.65-7-2.58-1.84-5.1-3.79-7.58-5.76a181.53 181.53 0 0 1-13.9-12.24c-9.52-9.32-18-19.49-23.43-31.76-17.41-39.17-4.38-83.07 16.23-118.25 8.84-15.09 20.28-28.13 32.15-40.83 8.93-9.57 19-18.58 27.65-28.43.59-.68 1.58-1.66.8-2.49-.78-.83-1.81.08-2.58.58-4.51 3-8.66 6.61-12.87 10a194.87 194.87 0 0 0-17.83 15.52c-5.52 5.65-10.75 11.59-16.08 17.42-.62.67-1.05 1.59-2.29.62a104 104 0 0 1-13.45-12.93c-6.89-7.84-10.58-16.24-13.7-26.22-1.77-5.67-2.26-11.1-3-16.92-.53-4.15-1-8.31-1.52-12.47a8.52 8.52 0 0 0-3.82 2.86c.23 7.13 1 14.24 1.67 21.51A34.22 34.22 0 0 1 118.19 60C114 55.58 110.9 50.39 108 45.09a12.28 12.28 0 0 0-3.21-4.28c1.2 5 3.6 8.89 5.57 13a19 19 0 0 1 1.32 2.1 47.32 47.32 0 0 0 23 19.42 4.75 4.75 0 0 1 3.09 3.4c4.88 16.17 12.48 30.6 26.57 40.77 1.37 1 1.4 1.62.38 3-24.48 33.65-41.64 75.58-34.71 117.76a133.42 133.42 0 0 0 6.83 25.3 136.73 136.73 0 0 1-19.16-6.77s-21.16-10.53-24-12c-31.23-18.69-56.28-48.26-60.82-85.3-.21-1.76-1.11-3.89-.43-5.2.77-1.48 3.24-1.48 5-2a76.77 76.77 0 0 0 23.2-11.47c5.59-4.16 14.2-10.53 16.9-17.11-2.38.7-3.82 2.11-5.35 3.34-5 4-9.43 8.55-14.75 12a69.46 69.46 0 0 1-22.76 9.53c-2.6.54-3 .25-3.31-2.33A157.09 157.09 0 0 1 29.93 132l-3.176-1.4c-.054 7.86.306 15.7 1.006 23.54 1.52 18.23 5.78 36.07 15.43 51.77 9 14.58 21.37 26.69 34.83 37.11 4.46 3.46 9 6.77 13.47 10.28 2.7 2.15 2.49 3-.62 4.32a50.65 50.65 0 0 0-8.33 4 14.58 14.58 0 0 1 3.71 1.78A20.72 20.72 0 0 1 97 258.85a14.75 14.75 0 0 1 2.79.15c3.31.67 6.74 2.75 9.82 4.08 9.19 4 18.34 8 27.84 11.19a12.18 12.18 0 0 1 6.17 4.63 126.58 126.58 0 0 0 10.62 12.94c13.83 14.67 30 26.41 47 37 22.94 14.17 47.35 25.26 72.64 34.47 2.74 1 5.46 2.05 8.72 3.28-4.31.3-8 .48-11.72.85-17.36 1.7-32.62 8.05-48 15.87a84.24 84.24 0 0 1-14.84 6.11c-10 2.84-20.19 4.11-30.49 4.89a3.34 3.34 0 0 0 1.89 2.88c1.21.61 4.34 0 5.71 0 2 0 4 0 5.95-.13a109.28 109.28 0 0 0 15.63-2c2.61-.54 5.2-1.18 7.75-1.95 1.51-.46 6.93-1.44 7.75-2.76a60.91 60.91 0 0 0-7.94 19.71c-1.27 6.24-2.52 15.54 1.05 21.27 1.39-2.27.65-4.72.44-7.18a44.87 44.87 0 0 1 .29-9.41c1.71-13.14 8.35-24.54 20-31.12a53.48 53.48 0 0 1 10.59-4.62c20.79-6.42 41.84-6.14 63-2.21 14.74 2.73 28.41 8.55 41.88 14.93a64.49 64.49 0 0 1 12.65 7.35 12.56 12.56 0 0 1 5.06 8.22c.31 2.05.72 4.08.89 6.13 1.61 19.29.84 38.59.62 57.9-.07 5.84-1.19 11.76 2.12 17.35 1.88 3.18 4.75 4.48 7.89 2.38a8.5 8.5 0 0 0 3.81-7.62c-.06-5.58-.24-11.16-.43-16.74-.06-2 .09-4-.14-6.05.14-3.39-.33-7.12-.32-10.31 0-4.667.067-9.317.2-13.95.187-7.333.49-14.65.91-21.95.32-5.49.76-11.88 5.58-15.49 5.28-4.18 11.39-6.88 17.51-9.53 6.79-2.92 13.47-6.2 20.46-8.64 21.28-7.41 45.3-8.64 67.45-5 8.23 1.35 16.45 3.67 23.67 7.94a39.64 39.64 0 0 1 10.44 8.77 35.7 35.7 0 0 1 3.55 5.32c4.19 7.35 6.29 17.57 5.76 26.07-.08 1.25-.48 2.64-.46 4 0 .56.11 3 .8 3.09.69.09.58-.53.69-.82 3.48-9.65.81-21.4-2.85-30.62a65.09 65.09 0 0 0-4.72-9c1.73.38 3.41 1.22 5.11 1.75A103.28 103.28 0 0 0 565 397c.78 0 8.73-.08 8.77 0-.45-1.36-.45-2.81-1.79-3.38-1.34-.57-4.18-.19-5.56-.36-1.76-.21-3.54-.33-5.31-.52a65.53 65.53 0 0 1-10.69-1.87c-6.55-1.83-12.68-4.79-18.84-7.62s-12-5.66-18.13-8.25c-13-5.5-26.82-7.92-40.88-8.33l.82-.72 11.57-4.27a416.9 416.9 0 0 0 60.33-28 278.366 278.366 0 0 0 7-4.09c17.81-10.68 34.61-23.28 49-38.36a95.63 95.63 0 0 0 8.54-9.9c2.18-3 4.58-6.22 8.4-7.16 7.34-1.81 14.27-4.95 21.06-8.22 3-1.44 5.9-3 8.86-4.5a15.94 15.94 0 0 1 4.47-1.65c2.91-.47 5.73 1.13 8.08 2.64 2.65 1.71 5.32 3.38 7.89 5.19a98.82 98.82 0 0 1 23.66 23.53 84.67 84.67 0 0 1 12.17 24.36 64.82 64.82 0 0 1 2.08 9.23c3.24 21.59-4.88 43.43-16.29 62.05-2.74 4.46-5.7 8.85-7.5 13.76 3.08-.79 5.11-3.64 6.83-6.32 7.4-11.59 14-23.8 18.13-36.92 4.13-13.12 5.73-27.21 3.12-40.7-.27-1.41-.46-3.15.53-4.08a2.47 2.47 0 0 1 .27-.21 4.4 4.4 0 0 1 2.5-.41c.86 0 2.81-.09 3.34-.76.53-.67.1-2-.75-1.84-1.56.13-4.11.25-5.67.38a2.66 2.66 0 0 1-3.22-1.72c-6-10.49-11.79-20.95-19.72-30.17-1.07-1.26-2.17-2.49-3.28-3.72a79.64 79.64 0 0 0-18.49-14.99 11 11 0 0 1-2.18-2.3 8 8 0 0 1-.82-2.31 2 2 0 0 1 0-1c.23-.65 1-.91 1.47-1.28l2.22-1.59c2.78-2 5.557-4 8.33-6 1.76-1.28 3.56-2.54 5.27-3.9 16.33-12.93 30.57-27.77 38.44-47.37a121.13 121.13 0 0 0 7.23-27.3c.68-4.53 1.25-9.13 1.63-13.67.213-2.447.367-4.9.46-7.36.07-1.31-.59-5.7.13-6.67zm-350 189.2a8.89 8.89 0 0 0-.84 2.38c-.8-1.87-1.6-3.73-2.52-5.54-4.67-9.15-11.6-16.35-19.44-22.81-14.8-12.2-29.33-24.68-42.78-38.39a181.59 181.59 0 0 1-26.32-33.91c-7.37-12.32-11.26-25.44-9.27-39.9 1.75-12.71 6.84-23.73 17.31-31.62 9.67-7.28 20.67-10.56 32.69-8.55 19.42 3.25 33.29 13.95 40.93 32.27 3.87 9.28 3.44 18-3.84 25.73a15.82 15.82 0 0 1-3.85 2.68 14.62 14.62 0 0 1-5.51 1.7 34.89 34.89 0 0 1-5.31.43c-1.92 0-3.84.1-5.76-.1-1.05-.11-2.15-.19-2.79.82-.64 1.01-.15 2 .33 2.91a20 20 0 0 0 7.45 8.07c2.46 1.66 5.29 2.2 8.15 2.63 2.47.24 4.79-.63 7.2-.93 1.4 1.36 1.1 3.4 1.95 5 2 4.44 4 8.92 7.07 12.75 3.11 3.16 4.78 3.33 8.33.83 2.77-2.61 4.13-6 5.56-9.44.44-1.61 1.64-3 1.51-4.74a4.11 4.11 0 0 0 1-1.85c.75-3 .75-3 3.7-2.17l.39.09a9.51 9.51 0 0 0 1.92.15 17.58 17.58 0 0 0 9.32-1.79c.63-.4 1.26-.81 1.9-1.2a18.22 18.22 0 0 0 6.83-8c.52-1.06 1-2.24-.64-2.89-.92-.19-1.86-.07-2.79-.17-1.94 0-3.87.07-5.8 0h-1.72c-1 0-1.9-.33-2.86-.4a20 20 0 0 1-5.18-1.57 17.1 17.1 0 0 1-5.19-4.06 21 21 0 0 1-4.82-11 16.46 16.46 0 0 1 0-5.38 29.91 29.91 0 0 1 1.8-7.42c4.21-10.16 10.13-18.89 19.81-24.73 9.86-5.94 20.21-9.78 31.95-8.49 12.39 1.36 22.77 6.64 30.28 16.65 8.62 11.48 11.34 24.66 9.43 38.76a61.19 61.19 0 0 1-7.63 22 162.44 162.44 0 0 1-23.56 32.13c-13.28 14-28 26.83-42.65 39.14-4.32 3.64-8.87 7.06-12.83 11.08a63.43 63.43 0 0 0-12.93 18.85h.02z"/>
        <path fill="#FFF" fill-rule="nonzero" d="M138.13 46.15a10.61 10.61 0 0 1-3.74 2.85c-3.58.72-5 .17-6.65-2.78a1 1 0 0 0-1.13-.62c-4.86.54-6.36-3.84-5.57-7.57.6-2.82.67-4-2.42-5.18-3.58-1.38-4.12-5.44-1.76-8.36a1.06 1.06 0 0 0 .23-1.22c-1.45-4.41.49-7.43 5.29-8.38 1.87-.37 3.65.1 5.66.56a16.38 16.38 0 0 1-1.09-6c.26-3.59 3.13-6.81 6.16-6A7.43 7.43 0 0 0 139 2.7c1.26-.67 2.55 0 3.63.87a9.11 9.11 0 0 1 3.72 9.43c-.08.46-.18.92-.32 1.58a21.93 21.93 0 0 1 6.79-2.84 7.15 7.15 0 0 1 7.49 3.26c.55 1 1.08 2.23.54 3.14-1 1.79-.29 2.93.69 4.33a3.64 3.64 0 0 1-.13 4.27 9.56 9.56 0 0 1-7.33 4.72 10.31 10.31 0 0 1 2.92 5.36 5.23 5.23 0 0 1-4.62 6.29c-.51.08-.79.13-1 .7-2 4.23-5.32 5.14-9.53 2.71a11.51 11.51 0 0 1-2.55-2.21c-.71.45-.85 1.21-1.17 1.84zM26.76 130.63l-1.92-2c-1 1.5-1.82 3-3.34 3.93-3.24 2-6.21 1.34-8.1-2a1 1 0 0 0-1.13-.61c-4.74.52-5.91-3.5-5.7-7.61.07-1.32.8-2.45 1.2-3.77-3.25-.63-5.78-2-6.61-5.45a3.55 3.55 0 0 1 .69-3.5c1-1 1-1.71.51-3-1.25-3.27 1.21-6.44 5.5-7.36a9.89 9.89 0 0 1 5.79.65c-.33-1.27-.61-2.26-.84-3.27-.85-3.77.63-7.29 3.61-8.6a3.91 3.91 0 0 1 4.12.14c.9.67 1.36.31 2.08-.18 2.42-1.68 4.06-1.48 6.31.45 3.28 2.81 3.77 6.36 2.73 10.51a21.49 21.49 0 0 1 6.84-2.87 7 7 0 0 1 7.73 3.8c.38.87.71 1.91.28 2.6-1 1.66-.4 2.79.59 4.14a3.76 3.76 0 0 1-.16 4.62 9.38 9.38 0 0 1-7.24 4.5 10.44 10.44 0 0 1 2.93 5.25c.55 3.4-1.23 6-4.6 6.5-.4.06-.85-.06-1 .51-.85 4.06-3.77 4.42-7.13 4a2.84 2.84 0 0 1-3.14-1.38zM573.72 397a10.68 10.68 0 0 1-2.78-3.31c-.5-2-.58-4 1.28-5.45.42-.33.26-.63.13-1.06-1.51-5 2-9 7.5-8.54 1.07.09 2.14.37 3.42.6a16.23 16.23 0 0 1-1.08-5.87c.25-3.51 2.94-6.7 5.92-6.11a8.73 8.73 0 0 0 6.28-.71c1.24-.65 2.52.17 3.6 1 3.6 2.78 4.45 6.43 3.22 10.93a23.74 23.74 0 0 1 6.8-2.84 7 7 0 0 1 8 4.1c.64 1.67-.72 3.16-.47 4.48.25 1.32 1.91 2.47 1.89 4.19 0 2.38-3.3 5.81-6.21 6.55-.52.14-1.11 0-1.65.54a10.3 10.3 0 0 1 2.76 5.35 5.25 5.25 0 0 1-4.6 6.15c-.47.07-.8 0-1.09.64-2.12 4.32-5.48 5.24-9.65 2.66a27.43 27.43 0 0 1-2.59-2.08 11.49 11.49 0 0 1-3.12 3.73c-3.28 2.1-6.28 1.47-8.28-1.95-.33-.55-.68-.54-1.16-.59-4.35-.38-6.28-2.91-5.7-7.43a11.94 11.94 0 0 1 1.29-3.81l-3.71-1.17zM716.35 311.71c-.28-.94-.55-1.87-.82-2.81a4.65 4.65 0 0 1 1.52-3.69c.45-.36.46-.65.28-1.21-1.54-4.91 2.06-9 7.51-8.51 1.07.09 2.13.37 3.42.6a16.05 16.05 0 0 1-1.09-5.88c.24-3.5 2.94-6.69 5.91-6.1a8.67 8.67 0 0 0 6.28-.71c1.16-.62 2.41.09 3.43.86 3.54 2.65 4.62 6.17 3.54 10.57a6.16 6.16 0 0 0 2.68-1c2.56-1.16 5.15-2 8-1 3.44 1.18 4.92 4.23 3.57 7.46-.24.399-.22.901.05 1.28 2.69 4.3.73 8.89-4.35 10.25-.52.14-1.06.21-1.84.37 1.18 1.65 2.42 3.07 2.75 5 .6 3.51-1.12 6.11-4.6 6.65a1.08 1.08 0 0 0-1 .74c-1.87 4.13-4.94 5.05-9.19 2.86a11.54 11.54 0 0 1-3-2.48c-1.3 2.29-2.84 4.23-5.51 4.87a4.86 4.86 0 0 1-5.84-2.62c-.26-.55-.43-.85-1.11-.93-4.89-.57-7.26-4.45-5.33-9.26.77-1.92.36-2.38-1.4-2.69-1.76-.31-2.59-1.73-3.86-2.62zM177.58 394.26l1.89 2.88a7.73 7.73 0 0 1 .28 4.66c-.47 1.43-1.2 3.05-2.63 3.2-2.3.24-2.92 1.77-3.88 3.37-1.35 2.25-3.67 1.84-5.78 1.49a8.86 8.86 0 0 1-5.37-3.34c-1.16 2.17-2.52 3.94-4.85 4.72-2.85 1-5.17.11-6.51-2.59a1.09 1.09 0 0 0-1.24-.74c-4.76.45-5.81-3.57-5.64-7.47a7.59 7.59 0 0 1 1.37-3.79c-1-.31-1.87-.5-2.66-.82-4.1-1.66-5.28-5.66-2.69-9.08a1 1 0 0 0 .23-1.05c-1.34-4.85.7-7.84 5.72-8.55a11.82 11.82 0 0 1 5.13.68c-.33-1.22-.67-2.28-.89-3.35-.73-3.45.62-6.91 3.23-8.27a4.49 4.49 0 0 1 4.71 0c.45.29.75.7 1.38.18 1.62-1.33 3.44-2.24 5.47-.95 2.47 1.58 4.27 3.7 4.55 6.78a11.38 11.38 0 0 1-.54 4.76 22.8 22.8 0 0 1 6.89-2.89 7.06 7.06 0 0 1 7.68 3.57c.46 1 .85 2.13.34 3-.89 1.52-.47 2.52.49 3.76a3.82 3.82 0 0 1 0 4.8 9.28 9.28 0 0 1-6.63 4.47.43.43 0 0 0-.23.29c-.02.07.11.18.18.28zM86.21 263.44c1.4 2 2.59 4 .92 6.4a.7.7 0 0 0 .14.93c1.39 1.56 2.52 3.27 1.4 5.39-1.37 2.58-3.33 4.55-6.39 5.07-.33.06-.64.16-1.15.29 1.15 1.53 2.31 2.86 2.69 4.66.79 3.72-.87 6.32-4.59 7a1 1 0 0 0-.91.59c-2.33 4.54-6.65 5.35-10.65 2a14.43 14.43 0 0 1-1.46-1.68c-1.2 2.07-2.4 3.81-4.47 4.68-2.94 1.23-5.44.37-7-2.51-.23-.41-.41-.69-.88-.67-2 .12-4-.12-5-2.14a8 8 0 0 1-.57-7c.88-1.92.41-2.31-1.39-2.89-4.42-1.45-5.6-5.38-2.92-9.18a1 1 0 0 0 .1-1.08c-1.39-4.49.5-7.47 5.24-8.4a11.68 11.68 0 0 1 5.74.62 16 16 0 0 1-1.13-6.12c.29-3.59 3.19-6.79 6.2-6a7.38 7.38 0 0 0 5.88-.71c1.19-.62 2.42 0 3.45.78a9.11 9.11 0 0 1 3.86 9.57c-.07.4-.15.8-.21 1.2 0 .05 0 .11.12.25 2.85-1.74 5.85-3.06 9.29-2.89 1.53 0 2.9.33 3.69 1.84zM724.85 141.6c-2.06.55-4.45 1-5.79-.8a7.26 7.26 0 0 0-5-2.9c-2.22-.41-3.47-3.5-3.24-6.7.11-1.46 1.43-3 1-4-.43-1-2.52-.84-3.71-1.72-3-2.18-3.44-5.25-1.17-8.3a1 1 0 0 0 .19-1.06c-1.44-5 2-9 7.4-8.59 1.08.09 2.15.38 3.44.61-.48-2-1.18-3.8-1-5.79.23-3.42 2.75-6.66 5.63-6.18a11 11 0 0 0 6.88-.77c1.25-.57 2.5.39 3.54 1.24a9.72 9.72 0 0 1 3.51 5.68c.69.91.42 2 .36 2.94 0 .64 0 1.07.78 1.08.51.53.83.85 1.62.1.79-.75 1.41-2.16 3-1.69a7 7 0 0 1 8 2.94c.44.79 1 1.72.65 2.53-.91 2.14-.31 3.87.9 5.68.8 1.2.26 2.51-.46 3.67-1.56 2.51-3.19 3.62-7.13 4.75a11 11 0 0 1 2.77 5.12c.51 3.38-1.26 6-4.63 6.46-.45 0-.851.285-1 .71-1.89 4.15-4.91 5.07-9.15 2.9a10.37 10.37 0 0 1-2.91-2.41 1.94 1.94 0 0 0-.79 1.3c-.66 1.71-1.67 3.01-3.69 3.2zM570 100.35a8.09 8.09 0 0 1-3.08 3.09c-1.44-.21-2.33.11-2.82 1.74-.61 2.06-2.22 3-4.47 2.89a9.43 9.43 0 0 1-7.26-3.53c-1 1.48-1.82 3-3.35 3.93-3.25 2-6.23 1.35-8.11-2a1 1 0 0 0-1.12-.62c-4.87.54-6.37-3.84-5.58-7.57.6-2.82.79-4.23-2.44-5.15-2.2-.63-3.13-3-3.28-5.34.14-.85.93-1 1.51-1.22 1.25-.58 1.39-1.18.28-2.07-.39-.32-.94-.67-.51-1.35-.51-5.38 3.34-8.85 8.89-8 .74.11 1.47.32 2.46.54-.27-1-.53-2-.75-2.92a8 8 0 0 1 1.42-7.21c1.72-2.14 4-2.58 6.6-1.24a1 1 0 0 0 1.23 0c4.54-2.65 9.6.33 10 5.86a13.48 13.48 0 0 1-.47 4.71 22.28 22.28 0 0 1 6.85-2.81 7 7 0 0 1 7.94 4.1c.63 1.68-.75 3.18-.47 4.48.28 1.3 1.89 2.48 1.88 4.2 0 2.37-3.3 5.79-6.21 6.54-.52.13-1.11 0-1.68.56a8.65 8.65 0 0 1 2.54 8.39zM65.67 29.56a9.29 9.29 0 0 0-3.31 3.83 13.05 13.05 0 0 1-8.82 6.91 3.08 3.08 0 0 0-2.25 1.34c-2.78 5.34-7.89 7.18-13.2 8.25-9.29 1.88-18.61 3.57-27.75 6.11-1.15.32-2.94.85-3.37-.2-.36-.89 1.5-1.45 2.47-2a108.37 108.37 0 0 1 10.42-5c2-.92 2.11-1.39.33-2.64-1.18-.83-.49-1.24.27-1.53 1.73-.67 3.52-1.19 5.25-1.88 2.32-.92 2.36-1.25.47-2.8-.75-.61-.4-1.1.14-1.49.89-.64 1.84-1.19 2.9-1.86a12.59 12.59 0 0 0-9.78-4.3 26.19 26.19 0 0 1-6.78-.45 1.73 1.73 0 0 1-1.54-2 8.6 8.6 0 0 1 2.62-5.68c.95-1 2.08-.81 3.26-.39a68.43 68.43 0 0 0 10.31 2.93 5.8 5.8 0 0 0 1 .19c1.84.05 3.9.53 5.07-1.41 1.06-1.76-.74-2.88-1.33-4.25-.59-1.37-1.38-2.55-2-3.84-.26-.54-.67-1.19-.23-1.74.44-.55 1.26-.35 1.93-.18.32.08.63.18 1.26.36a3.77 3.77 0 0 0-1.92-1.94 50.19 50.19 0 0 1-6.41-4.5c-.63-.53-1.54-1.31-1.24-2 .41-.91 1.43-.18 2.19 0a3.12 3.12 0 0 0 .8-.08A66.6 66.6 0 0 1 18.62 0a44.8 44.8 0 0 1 7 2.36C33.69 5.8 41.54 9.6 48.39 15.22a10 10 0 0 1 3.8 5.94 19.73 19.73 0 0 0 1.57 4.9c.59 1.19 1.13 1.72 2.69 1.33 3.87-.95 6.85-.13 9.22 2.17zM739.27 61.44A8.6 8.6 0 0 1 734 62.9a85.08 85.08 0 0 1-26.4-3.9 20.72 20.72 0 0 1-3.23-1.37c-2.53-1.26-3.34-2.95-2.83-5.7.55-3 .46-3.16-2.36-4.15-1.1-.39-2.18-.85-3.28-1.23-2.75-.93-5.48-1.3-8.27.45a8.08 8.08 0 0 1 4-7.4 13.93 13.93 0 0 1 4.75-2c.78-.15 1.41-.48.88-1.38-2.61-4.45-1.21-8.16 2.06-11.55a64.12 64.12 0 0 1 17.08-13.19 9.1 9.1 0 0 1 1.13-.37c-1.09 2.14-2 4-3 5.85-.25.5-.87 1.24.07 1.54 1.79.56.94 1.51.43 2.35-1.32 2.17-2.73 4.29-4.06 6.47-.61 1-1.16 2.05.88 2.13 1.57.06 1.6 1.07 1.23 2.35-1.12 3.81-.64 4.26 3.24 3.4a29.1 29.1 0 0 0 9.53-3.81 10.94 10.94 0 0 1 6.41-2c1.74.08 3.05.8 3.38 2.68.33 1.88-1.12 2.43-2.52 2.89a16.4 16.4 0 0 1-3 .83c-5.44.67-8.26 4.8-11.38 8.53-1.14 1.36-.82 2.46.74 3.33 1.56.87 3.16 1.55.45 3.13-1 .58 0 1.17.58 1.43a24.4 24.4 0 0 0 5 1.17c.956.113 1.9.31 2.82.59 1 .39 2.55.78.85 2.32-1 .91 0 1.31.62 1.65a26.27 26.27 0 0 0 6 2.06 7.7 7.7 0 0 1 3.47 1.44z"/>
        <path fill="#FFF" fill-rule="nonzero" d="M114.7 426.08a90.81 90.81 0 0 1-2.87-24.5 41.31 41.31 0 0 1 1.28-9.38 6.89 6.89 0 0 1 .67-1.73c.4-.7.82-1.6 1.78-1.5.96.1 1 1 1.21 1.74 1.67 6.1 3.3 12.21 5 18.32.16.58.34 1.15.65 2.19a14.62 14.62 0 0 0-.12-4c-.3-8.49 0-16.94 2.48-25.15a15 15 0 0 1 1.82-3.93 2.22 2.22 0 0 1 2-1.2c.9.12.91 1.07 1.08 1.8 1.57 6.9 2.43 13.94 4 20.84 3.76 16.21 9.59 31.49 20.11 44.62 5.34 6.65 12.35 11.11 20.24 14.23 9.35 3.69 19.1 5.55 29 6.72a194 194 0 0 0 30.97 1.08c9.39-.41 18.82-.86 27.83-4.11 12.72-4.57 19.88-13.56 21.74-26.87a3.18 3.18 0 0 0 0-.62c0-.2-.07-.4-.15-.87-3.14 1.68-6.34 2.83-9.9 2.4-7.73-.94-9.6-6.88-7.29-12.12.91-2.08 4.11-3.06 6.27-2.11a4.11 4.11 0 0 1 2 5.24c-.17.44-.25 1.05-.89.9-.64-.15-.33-.68-.37-1.06-.13-1.58-1-2.76-2.52-2.76s-2.26 1.42-2.45 2.87c-.62 4.67 4.27 8.5 9.12 7.11a10.88 10.88 0 0 0 7.63-7.23c2.38-6.83 6.74-9.32 13.76-7.77.296.105.578.246.84.42-5.35 4.07-6.65 9.85-6.92 16-.21 4.74.08 9.5-.09 14.24a43.7 43.7 0 0 1-2.16 13.59 19.67 19.67 0 0 1-12.91 12.72 41.29 41.29 0 0 1-17.84 1.49c1.32 2.4 3.22 4.16 4.7 6.2 1 1.4 2.13 2.71 3.14 4.11.28.39.92.91.38 1.4-.54.49-1.07-.05-1.41-.45-1.79-2.1-3.54-4.23-5.31-6.34-1.32-1.58-2.65-3.16-4-4.72a1.34 1.34 0 0 0-1.89-.4l8.14 11.37c-1.75.38-2 .31-3.23-1.34a73.63 73.63 0 0 1-4.87-7.18c-1.72-3.15-4.28-4.43-7.72-4.84-7.38-.87-14.76-1.83-22.2-1.59-6.93.23-13.87.69-20.77 1.47-2 .23-4 .34-6 .42-7.36.32-14.73.73-22.11.45-13.5-.5-26.45-3.28-38.63-9.26-18.28-9-28.85-23.71-32.48-43.6a69.45 69.45 0 0 1-1.16-14c0-.94 0-2.26.89-2.5.89-.24 1.32 1.08 1.7 1.83 2.54 5 4.28 10.29 6.47 15.42.32.76.6 1.54.9 2.3a1 1 0 0 1 .39.6 1.09 1.09 0 0 0 .07-.96z"/>
        <path fill="#D4CCE5" fill-rule="nonzero" d="M114.7 426.08c.404.32.53.879.3 1.34-.48-.18-.57-.59-.68-1l.38-.34z"/>
        <path fill="#FFF" fill-rule="nonzero" d="M640.09 427.2c2.24-5.48 4.43-11 6.73-16.43.51-1.23 1.13-3.28 2.36-3 1.23.28.9 2.33.9 3.66A66.48 66.48 0 0 1 640 447.3c-6 9.51-14.59 16-24.6 20.8a89 89 0 0 1-23.34 7.39 103.45 103.45 0 0 1-14.15 1.35 274.44 274.44 0 0 1-34.63-1.51c-13.47-1.29-26.92-1.28-40.26 1.47a3.3 3.3 0 0 0-2.24 1.57 619.284 619.284 0 0 1-6.61 9.5c-.74 1-1.52 2.22-3.44 1.66L499 478c-1.14-.58-1.69.1-2.18.68-2.38 2.86-4.71 5.75-7.09 8.61-.66.79-1.37 1.55-2.1 2.28-.33.33-.83.7-1.27.32-.44-.38 0-.92.28-1.24 2.14-2.79 4.31-5.54 6.49-8.29a6.3 6.3 0 0 0 1.37-2.13 46.31 46.31 0 0 1-15.36-.88c-9.88-2.32-14.9-9-16.58-18.4-1.14-6.4-.93-12.88-.74-19.36a31.69 31.69 0 0 0-2.12-13.14 14.44 14.44 0 0 0-4.91-6.25c6.23-2.66 12.1.21 14.41 6.93 1.68 4.86 5.85 8.07 10.22 7.86 4.08-.19 7.19-3.57 6.68-7.34-.19-1.45-.86-2.86-2.44-2.87-1.58-.01-2.4 1.17-2.53 2.75 0 .39.14.95-.37 1.06-.51.11-.71-.46-.89-.89a4.15 4.15 0 0 1 2-5.25c2.16-.94 5.36 0 6.27 2.12 2.27 5.21.5 11.06-7.11 12.09-3.55.48-6.81-.55-10.17-2.47-.09 3 .77 5.48 1.46 8 2.83 10.33 10 16.52 19.63 20.23 6.09 2.34 12.47 3.13 18.93 3.75a194.77 194.77 0 0 0 25 .7c14-.46 27.95-2.05 41.39-6.58 13.44-4.53 23.32-13.12 30.32-25.4 7.14-12.53 11.58-26 14.36-40 1-5.06 1.89-10.13 2.84-15.19.15-.79.13-1.88 1.12-2 1 .005 1.895.62 2.26 1.55 2 3.41 2.71 7.2 3.29 11a95.24 95.24 0 0 1 .85 16.28c0 1.65-.68 3.25-.26 5.26 1.5-4.15 2.47-8.16 3.54-12.12.74-2.72 1.39-5.47 2.12-8.19.19-.7.32-1.65 1.22-1.74.9-.09 1.41.79 1.78 1.51a17.08 17.08 0 0 1 1.49 5.77 75.11 75.11 0 0 1-.92 22.59c-.43 2.43-1 4.83-1.55 7.25-.17.24-.19.63-.05.73.14.1.19-.33.41-.39z"/>
        <path fill="#D4CCE5" fill-rule="nonzero" d="M640.09 427.2l-.5 1.14a1 1 0 0 1 .12-1.49l.38.35z"/>
        <path fill="#FFF" fill-rule="nonzero" d="M97 258.85c-2.38-3.53-3.53-7.33-2.6-11.59a17.71 17.71 0 0 1 7.74-11.06 7 7 0 0 1 9.26.8c.73.7 1.27 1.23-.16 1.88a3.69 3.69 0 0 0-2.13 4.6 10.32 10.32 0 0 0 1 2.69 67.52 67.52 0 0 1 4.64 11.44 23.15 23.15 0 0 0 2.48 8.8c.58 2.6 2.15 4.75 3.25 7.11.42.91.87 1.8 1.5 3.08a8.19 8.19 0 0 1-3.5-2.79c-1.53-1.67-3-3.4-4.44-5.16a12.92 12.92 0 0 0-6.56-4.08c-3.87-1.17-7.81-2.28-10.48-5.72zM667.35 243.51a16.66 16.66 0 0 0 4.79 3.72 20.42 20.42 0 0 0 11 4.05c1.44.11 2.87.2 4.29.45.42.08.94.16 1 .59.06.43-.46.85-.92 1a22.28 22.28 0 0 1-4.84.86 26.83 26.83 0 0 0-11 2.13c-2.15.9-4.59.8-6.6 2.08-.89-.72-2-.35-3-.56-3.69-.78-6.07-3.26-8.17-6.14a95.07 95.07 0 0 1-4.19-9.4c-1.05-2.56-2.33-5-5.37-5.8-1.22-.31-.5-.9-.09-1.26 2.39-2.19 5.08-3.43 8.44-2.74 4.56.92 7.78 3.88 10.87 7 1.3 1.3 2.53 2.67 3.79 4.02z"/>
        <path fill="#FFF" fill-rule="nonzero" d="M666.55 248.46a30.81 30.81 0 0 0-5.34-.5 5 5 0 0 0-4.05 1.66c-.84 1-1.15.58-1.51-.26-.73-1.68-.88-3.37.37-4.85 1.25-1.48 2.81-1.2 4.34-.52a20.39 20.39 0 0 1 6.19 4.47z"/>
        <path fill="#FFF" d="M11.12 175.72a1.43 1.43 0 0 1 .3-1.87c7.16-6.73 15.86-3.66 20.39 2.39.22.28.36.71.2.92-.16.21-.29.07-.41.06a3.81 3.81 0 0 1-.79-.25 4.68 4.68 0 0 0-.73-.21 5 5 0 0 0-1.45-.09 6 6 0 0 0-2.54.8c-.19.12-.38.24-.55.37-3.1 2.36-4.28 2-5.45 2-3.85-.48-3-3.48-7.68-3.4a1.57 1.57 0 0 1-1.29-.72zM207.4 98a1.41 1.41 0 0 1 .25 1.87c-4.93 8.51-14.15 8-20.22 3.54-.29-.21-.54-.58-.46-.82.08-.24.27-.15.38-.17a3.29 3.29 0 0 1 .83 0c.253.02.507.02.76 0a5.25 5.25 0 0 0 1.41-.32 6.11 6.11 0 0 0 2.21-1.5c.15-.17.3-.34.43-.52 2.29-3.14 3.52-3.15 4.63-3.49 3.83-.64 3.91 2.48 8.34 1.07a1.57 1.57 0 0 1 1.44.34zM169.72 150.81a1.42 1.42 0 0 1 .41 1.85c-4.22 8.88-13.44 9.18-19.87 5.19-.3-.18-.59-.53-.52-.78.07-.25.25-.17.36-.2a3.35 3.35 0 0 1 .83-.06 5.17 5.17 0 0 0 2.14-.51 6 6 0 0 0 2.46-2.22c2-3.32 3.24-3.44 4.33-3.86 3.76-1 4.1 2.14 8.39.37a1.56 1.56 0 0 1 1.47.22zM159.2 75a1.43 1.43 0 0 1 1.46 1.2c2.18 9.59-4.88 15.53-12.4 16.37-.35 0-.79 0-.89-.29-.1-.29.09-.29.16-.38.182-.212.39-.4.62-.56a6.76 6.76 0 0 0 .55-.52 5.75 5.75 0 0 0 .81-1.2 6 6 0 0 0 .59-2.62 4.87 4.87 0 0 0 0-.66c-.46-3.86.43-4.71 1-5.72 2.37-3.07 4.54-.85 6.83-4.89a1.54 1.54 0 0 1 1.27-.73zM197.82 296.53a1.43 1.43 0 0 1 1.82.49c6 7.82 2 16.16-4.47 20-.3.19-.74.28-.93.11-.19-.17 0-.31 0-.42.079-.266.19-.52.33-.76.113-.23.21-.467.29-.71a5.27 5.27 0 0 0 .23-1.42 5.79 5.79 0 0 0-.54-2.62 4.75 4.75 0 0 0-.31-.59c-2-3.31-1.57-4.46-1.45-5.62.88-3.78 3.78-2.66 4.18-7.29a1.57 1.57 0 0 1 .85-1.17zM200.34 437.27a1.44 1.44 0 0 1-1.26-1.41c-.68-9.81 7.2-14.6 14.76-14.29.35 0 .77.18.83.43.06.25-.13.28-.21.35a3.26 3.26 0 0 1-.7.46 6.82 6.82 0 0 0-.62.43 5 5 0 0 0-1 1.07 5.84 5.84 0 0 0-1 2.48 3.68 3.68 0 0 0-.06.66c-.14 3.88-1.14 4.59-1.88 5.49-2.81 2.68-4.62.15-7.5 3.8a1.57 1.57 0 0 1-1.36.53zM188.15 375.67a1.43 1.43 0 0 1 1.65-.92c9.72 1.44 12.7 10.18 10.77 17.48-.09.35-.34.72-.6.73-.26.01-.24-.19-.3-.29a3.5 3.5 0 0 1-.3-.78 4.65 4.65 0 0 0-.28-.7 5.41 5.41 0 0 0-.83-1.19 6 6 0 0 0-2.21-1.5 5.1 5.1 0 0 0-.63-.2c-3.77-1-4.24-2.1-5-3-2-3.32.85-4.54-2.09-8.14a1.57 1.57 0 0 1-.18-1.49zM226 366.68a1.44 1.44 0 0 1 1.09-1.55c9.4-2.87 15.85 3.74 17.23 11.17.07.34 0 .79-.22.91s-.3-.07-.4-.13a3.65 3.65 0 0 1-.6-.58 5.08 5.08 0 0 0-1.82-1.23 5.93 5.93 0 0 0-2.64-.4 4.62 4.62 0 0 0-.65.08c-3.82.75-4.73-.08-5.78-.59-3.24-2.14-1.18-4.47-5.38-6.45a1.56 1.56 0 0 1-.83-1.23zM272 122.53a1.42 1.42 0 0 0 1.18 1.48c9.55 2.35 15.61-4.61 16.59-12.1.05-.35 0-.79-.28-.9-.28-.11-.29.08-.39.15a4.12 4.12 0 0 0-.57.61 5.15 5.15 0 0 1-1.74 1.33 6 6 0 0 1-2.61.55c-.23 0-.45 0-.67-.05-3.85-.54-4.71.34-5.73.91-3.12 2.31-.93 4.53-5 6.74a1.57 1.57 0 0 0-.78 1.28zM218.87 205.3a1.07 1.07 0 0 1 1.23.73c2.76 6.92-1.82 12.2-7.35 13.72-.26.07-.6.05-.7-.12-.1-.17 0-.23.07-.3a2.68 2.68 0 0 1 .4-.49c.125-.147.242-.3.35-.46a3.71 3.71 0 0 0 .46-1 4.46 4.46 0 0 0 .14-2 3.86 3.86 0 0 0-.1-.49c-.81-2.84-.24-3.58.08-4.4 1.41-2.59 3.31-1.17 4.54-4.47a1.19 1.19 0 0 1 .88-.72zM122.1 165.68a1.43 1.43 0 0 0-1.21 1.45c-.39 9.82 7.64 14.37 15.18 13.82.36 0 .77-.19.83-.45.06-.26-.14-.27-.23-.35a3.45 3.45 0 0 0-.71-.43 6.29 6.29 0 0 1-.64-.41 5.53 5.53 0 0 1-1-1 5.73 5.73 0 0 1-1.06-2.45 6.57 6.57 0 0 1-.09-.66c-.25-3.87-1.28-4.55-2-5.43-2.89-2.59-4.62 0-7.61-3.56a1.6 1.6 0 0 0-1.46-.53zM212.85 248.92a1.45 1.45 0 0 0 1.31 1.37c9.73 1.44 15.12-6 15.39-13.6 0-.36-.12-.79-.36-.87-.24-.08-.29.11-.37.19a3.18 3.18 0 0 0-.51.65 5.6 5.6 0 0 1-.48.59 5.26 5.26 0 0 1-1.14.9 6 6 0 0 1-2.55.79 4.85 4.85 0 0 1-.66 0c-3.88-.17-4.67.78-5.62 1.45-2.89 2.6-.5 4.59-4.37 7.18a1.57 1.57 0 0 0-.64 1.35zM219.2 403.42a1.42 1.42 0 0 0-1 1.6c.94 9.79 9.51 13.21 16.9 11.66.35-.07.74-.3.76-.56.02-.26-.18-.25-.27-.31a3.46 3.46 0 0 0-.76-.34 5.42 5.42 0 0 1-.69-.32 4.93 4.93 0 0 1-1.14-.89 6 6 0 0 1-1.4-2.26c-.07-.21-.12-.43-.17-.65-.77-3.81-1.88-4.33-2.75-5.1-3.22-2.19-4.58.61-8-2.52a1.6 1.6 0 0 0-1.48-.31zM197.05 394.83a1.17 1.17 0 0 0-1.55-.05c-6.51 4.75-5.35 12.23-1.16 16.79.2.22.52.4.71.3.19-.1.11-.23.11-.32a3.08 3.08 0 0 0-.08-.68 3.18 3.18 0 0 1-.06-.62c-.01-.395.04-.79.15-1.17a4.88 4.88 0 0 1 1-1.93 4.68 4.68 0 0 1 .38-.39c2.37-2.14 2.28-3.14 2.45-4.08.2-3.18-2.35-3-1.58-6.7a1.29 1.29 0 0 0-.37-1.15zM180.7 203.49a1.43 1.43 0 0 0 0 1.89c6 7.8 15.06 6.16 20.51.92.26-.24.46-.64.34-.87-.12-.23-.28-.12-.39-.13-.28.01-.558.05-.83.12a4.66 4.66 0 0 1-.75.09 5.38 5.38 0 0 1-1.44-.14 5.85 5.85 0 0 1-2.38-1.21 5.23 5.23 0 0 1-.49-.45c-2.67-2.82-3.89-2.68-5.05-2.87-3.88-.14-3.55 3-8.12 2.13a1.58 1.58 0 0 0-1.4.52zM268.33 90.42a1.44 1.44 0 0 0-1.6 1c-3.34 9.25 2.94 16 10.3 17.77.34.09.79 0 .92-.18s-.05-.3-.11-.4a3.32 3.32 0 0 0-.55-.63 5.6 5.6 0 0 1-.48-.59 5.07 5.07 0 0 1-.66-1.29 5.94 5.94 0 0 1-.27-2.65c0-.22.04-.44.12-.66.93-3.77.16-4.72-.31-5.79-2-3.35-4.4-1.4-6.17-5.7a1.58 1.58 0 0 0-1.19-.88zM249.64 127.9a1.43 1.43 0 0 0-.32 1.87c4.64 8.67 13.87 8.52 20.1 4.23.29-.2.56-.56.48-.8-.08-.24-.26-.17-.37-.19a3.93 3.93 0 0 0-.84 0c-.25.02-.5.02-.75 0a5.56 5.56 0 0 1-1.4-.37 5.93 5.93 0 0 1-2.16-1.58 5.25 5.25 0 0 1-.4-.53c-2.18-3.21-3.41-3.27-4.52-3.64-3.8-.78-4 2.33-8.36.77a1.6 1.6 0 0 0-1.46.24zM188.77 78.85a1 1 0 0 0-1.2.68c-2.77 6.62 1.55 11.78 6.84 13.33.25.07.58.06.68-.1.1-.16 0-.22-.07-.29a1.92 1.92 0 0 0-.37-.48 3.72 3.72 0 0 1-.33-.45 3.76 3.76 0 0 1-.43-1 4.43 4.43 0 0 1-.1-2c0-.16.07-.32.11-.47.82-2.71.29-3.44 0-4.23-1.31-2.51-3.16-1.19-4.29-4.38a1.17 1.17 0 0 0-.84-.61zM333.86 109.54a.94.94 0 0 0-.89.89c-.84 6.48 4.2 10 9.22 10 .24 0 .52-.08.57-.25.05-.17-.07-.19-.12-.24a2.36 2.36 0 0 0-.45-.33 4.08 4.08 0 0 1-.39-.31 3.44 3.44 0 0 1-.62-.75 3.84 3.84 0 0 1-.55-1.68 3.31 3.31 0 0 1 0-.44c.07-2.59-.58-3.09-1-3.72-1.76-1.89-3.06-.28-4.82-2.81a1 1 0 0 0-.95-.36zM358.81 107.48a1 1 0 0 1 .46 1.17c-1.82 6.27-7.84 7.45-12.48 5.52-.22-.09-.44-.29-.42-.46.02-.17.14-.14.21-.17a3.27 3.27 0 0 1 .54-.13 2.7 2.7 0 0 0 .49-.12 3.33 3.33 0 0 0 .86-.44 4 4 0 0 0 1.18-1.32 2.93 2.93 0 0 0 .19-.4c1-2.39 1.77-2.6 2.43-3 2.37-1 2.92 1 5.55-.65.31-.165.68-.165.99 0zM82.66 137.21a1.07 1.07 0 0 0-.06-1.44c-4.83-5.73-11.7-4.16-15.66 0-.19.2-.33.51-.23.68.1.17.22.08.3.08.215-.01.427-.05.63-.12a3.56 3.56 0 0 1 .57-.09 3.69 3.69 0 0 1 1.1.06 4.6 4.6 0 0 1 1.86.83l.39.33c2.13 2.05 3.06 1.9 3.94 2 3 0 2.61-2.38 6.12-1.91a1.19 1.19 0 0 0 1.04-.42zM62.05 191a1.43 1.43 0 0 0-1.65-.93c-9.73 1.43-12.72 10.16-10.79 17.47.08.34.33.71.59.72.26.01.24-.19.3-.28a3.22 3.22 0 0 0 .3-.78c.08-.24.177-.474.29-.7a5 5 0 0 1 .83-1.19 6 6 0 0 1 2.21-1.5 5.1 5.1 0 0 1 .63-.2c3.77-1 4.24-2.1 5-3 2-3.32-.84-4.54 2.11-8.13a1.57 1.57 0 0 0 .18-1.48zM125.06 94.92a1.44 1.44 0 0 0-.12 1.89c5.51 8.15 14.67 7.06 20.42 2.15.28-.23.51-.61.4-.85-.11-.24-.27-.14-.39-.15a3.88 3.88 0 0 0-.83.07 6.33 6.33 0 0 1-.76 0 5.27 5.27 0 0 1-1.42-.23 6 6 0 0 1-2.77-1.83c-2.5-3-3.73-2.91-4.86-3.17-3.87-.37-3.73 2.74-8.25 1.64a1.57 1.57 0 0 0-1.42.48zM54.15 123.36a1.31 1.31 0 0 0-1.62.6c-4.73 7.6-.43 14.81 5.78 17.77.29.14.69.19.85 0 .16-.19 0-.27 0-.37a2.89 2.89 0 0 0-.36-.67 4.42 4.42 0 0 1-.32-.61 4.78 4.78 0 0 1-.34-1.27 5.15 5.15 0 0 1 .5-3c1.54-3.18 1-4.17.83-5.21-1.12-3.35-3.66-2.09-4.41-6.25a1.46 1.46 0 0 0-.91-.99zM95 55.18a1.14 1.14 0 0 0 .25 1.5c5.83 5.35 12.8 2.79 16.38-2.12.17-.23.28-.57.15-.74-.13-.17-.24-.06-.33 0a2.34 2.34 0 0 0-.63.21 4 4 0 0 1-.59.17 4.11 4.11 0 0 1-1.16.09 4.77 4.77 0 0 1-2-.63 2.66 2.66 0 0 1-.45-.29c-2.51-1.86-3.46-1.58-4.4-1.57-3.09.43-2.4 2.83-6.14 2.81a1.27 1.27 0 0 0-1.08.57zM633 15.51a1.43 1.43 0 0 0-1.65-.93c-9.73 1.43-12.72 10.16-10.8 17.47.09.34.34.71.6.72.26.01.24-.19.3-.28a3.7 3.7 0 0 0 .3-.78A4.3 4.3 0 0 1 622 31a4.85 4.85 0 0 1 .82-1.19 6.07 6.07 0 0 1 2.21-1.5c.21-.08.42-.14.64-.2 3.76-1 4.24-2.1 5-3 2-3.32-.85-4.54 2.1-8.13a1.6 1.6 0 0 0 .23-1.47zM741.32 174.83a1.42 1.42 0 0 0-1-1.61c-9.18-3.54-16.07 2.6-18 9.91-.09.35-.06.79.16.93s.31-.05.41-.1a4.1 4.1 0 0 0 .64-.53c.183-.173.38-.33.59-.47a5.45 5.45 0 0 1 1.31-.63 5.84 5.84 0 0 1 2.66-.22c.22 0 .44.08.65.13 3.75 1 4.72.26 5.8-.18 3.39-1.9 1.49-4.38 5.83-6.06.498-.2.857-.642.95-1.17zM728 351.75a1.43 1.43 0 0 0 .75-1.74c-2.43-9.53-11.43-11.59-18.5-8.92-.33.12-.68.41-.66.67.02.26.22.22.32.27.257.104.526.177.8.22.249.05.493.12.73.21a5.25 5.25 0 0 1 1.27.7 5.94 5.94 0 0 1 1.72 2c.101.197.188.4.26.61 1.35 3.65 2.53 4 3.51 4.62 3.52 1.66 4.44-1.31 8.31 1.25a1.61 1.61 0 0 0 1.49.11zM515.15 78a1.43 1.43 0 0 0-.54 1.81C518.14 89 527.32 90 534 86.52c.32-.16.63-.49.58-.74-.05-.25-.24-.2-.34-.23a3.33 3.33 0 0 0-.83-.12 6.54 6.54 0 0 1-.75-.13 5.38 5.38 0 0 1-1.34-.54 6.06 6.06 0 0 1-1.94-1.83 4.88 4.88 0 0 1-.34-.58c-1.77-3.46-3-3.67-4-4.17-3.68-1.24-4.24 1.82-8.4-.26a1.55 1.55 0 0 0-1.49.08zM558.58 183a1.42 1.42 0 0 0-1.89-.06c-8 5.74-6.62 14.87-1.55 20.47.23.27.63.49.86.37.23-.12.13-.27.14-.39a3.92 3.92 0 0 0-.1-.83 5.36 5.36 0 0 1 .12-2.19 6 6 0 0 1 1.28-2.34 4.17 4.17 0 0 1 .47-.47c2.9-2.59 2.8-3.81 3-5 .27-3.87-2.84-3.64-1.87-8.19a1.6 1.6 0 0 0-.46-1.37zM555.3 297.3a1.43 1.43 0 0 0-1.83.48c-6 7.81-2 16.16 4.44 20.05.31.19.75.28.94.11.19-.17 0-.31 0-.42a3.4 3.4 0 0 0-.32-.76 4.41 4.41 0 0 1-.29-.71 5.27 5.27 0 0 1-.23-1.42 5.92 5.92 0 0 1 .54-2.62c.09-.204.193-.4.31-.59 2-3.31 1.58-4.45 1.46-5.61-.87-3.79-3.78-2.67-4.17-7.3a1.58 1.58 0 0 0-.85-1.21zM554.48 435.17a1.43 1.43 0 0 0 1.26-1.41c.7-9.81-7.18-14.61-14.74-14.3-.35 0-.77.17-.83.42-.06.25.13.28.21.36.215.18.45.334.7.46.217.127.425.271.62.43a4.7 4.7 0 0 1 1 1.06 5.92 5.92 0 0 1 1 2.49c.039.218.062.439.07.66.12 3.88 1.13 4.59 1.87 5.49 2.8 2.69 4.62.15 7.49 3.81.337.386.84.584 1.35.53zM565.48 376.84a1.42 1.42 0 0 0-1.65-.92c-9.73 1.42-12.72 10.15-10.8 17.46.09.35.34.72.6.73.26.01.24-.19.3-.29.13-.244.23-.503.3-.77a5.09 5.09 0 0 1 1.11-1.89 6 6 0 0 1 2.22-1.5 4.21 4.21 0 0 1 .63-.2c3.77-1 4.24-2.1 5-3 2-3.32-.85-4.55 2.11-8.14a1.6 1.6 0 0 0 .18-1.48zM528.92 364.54a1.42 1.42 0 0 0-1.09-1.54c-9.4-2.89-15.85 3.71-17.25 11.14-.07.35 0 .79.22.91s.3-.07.4-.13a3.59 3.59 0 0 0 .6-.57 3.85 3.85 0 0 1 .56-.51 5.08 5.08 0 0 1 1.26-.72 5.81 5.81 0 0 1 2.64-.4c.222.01.443.04.66.09 3.81.75 4.73-.08 5.77-.59 3.25-2.13 1.19-4.47 5.39-6.45a1.58 1.58 0 0 0 .84-1.23zM485 127a1.42 1.42 0 0 1-1.18 1.48c-9.55 2.34-15.61-4.62-16.57-12.12 0-.35 0-.79.27-.9.27-.11.3.09.39.16.215.175.406.376.57.6.161.198.338.382.53.55a5.55 5.55 0 0 0 1.21.78 5.94 5.94 0 0 0 2.62.56h.66c3.85-.53 4.72.35 5.73.92 3.12 2.32.92 4.53 5 6.75.44.258.726.713.77 1.22zM534.15 208.7a1.08 1.08 0 0 0-1.06 1c-1.24 7.35 4.36 11.55 10.08 11.87.27 0 .59-.08.66-.26.07-.18-.08-.22-.14-.29a2.34 2.34 0 0 0-.49-.39 5.07 5.07 0 0 1-.44-.37 4.05 4.05 0 0 1-.66-.88 4.53 4.53 0 0 1-.56-2.45c.19-2.94-.52-3.54-1-4.28-1.92-2.23-3.48-.45-5.38-3.41a1.19 1.19 0 0 0-1.01-.54zM749.62 93.12a1.43 1.43 0 0 0-1.65-.93c-9.73 1.43-12.72 10.16-10.8 17.47.09.34.34.71.6.72.26.01.24-.19.3-.28a3.7 3.7 0 0 0 .3-.78 4.3 4.3 0 0 1 .29-.7 4.85 4.85 0 0 1 .82-1.19 6 6 0 0 1 2.22-1.5 5.8 5.8 0 0 1 .63-.2c3.76-1 4.24-2.1 5-3 2-3.32-.85-4.54 2.1-8.13a1.58 1.58 0 0 0 .19-1.48zM633.24 164.2a1.42 1.42 0 0 1 1.21 1.45c.37 9.82-7.66 14.36-15.2 13.8-.35 0-.77-.2-.82-.45-.05-.25.14-.27.22-.35a3.45 3.45 0 0 1 .71-.43 4.65 4.65 0 0 0 .64-.41 5.52 5.52 0 0 0 1-1 6 6 0 0 0 1.06-2.45 5 5 0 0 0 .09-.66c.25-3.88 1.28-4.55 2.05-5.43 2.9-2.59 4.62 0 7.61-3.56a1.57 1.57 0 0 1 1.43-.51zM543.75 243.44a1.43 1.43 0 0 1-.75 1.74c-8.62 4.73-16.28-.42-19.15-7.41-.14-.33-.17-.78 0-.94.17-.16.31 0 .41 0a3.2 3.2 0 0 1 .71.43c.208.149.43.28.66.39a5.5 5.5 0 0 0 1.37.45 5.88 5.88 0 0 0 2.67-.15l.63-.21c3.58-1.51 4.64-.89 5.77-.6 3.61 1.43 2.07 4.13 6.59 5.21.528.15.94.562 1.09 1.09zM535.66 401.29a1.43 1.43 0 0 1 1 1.6c-.95 9.79-9.52 13.21-16.92 11.64-.35-.07-.73-.3-.75-.55-.02-.25.18-.26.27-.32a4 4 0 0 1 .76-.34 3.6 3.6 0 0 0 .69-.32 5.18 5.18 0 0 0 1.14-.88 5.9 5.9 0 0 0 1.39-2.28c.07-.213.127-.43.17-.65.78-3.81 1.89-4.33 2.76-5.1 3.22-2.18 4.58.62 8-2.5a1.58 1.58 0 0 1 1.49-.3zM576.26 199.77a1.44 1.44 0 0 1 .31 1.87c-4.65 8.66-13.88 8.5-20.1 4.21-.3-.2-.56-.56-.48-.81.08-.25.26-.16.37-.19.276-.03.554-.03.83 0 .253.02.507.02.76 0a5.29 5.29 0 0 0 1.4-.38 6 6 0 0 0 2.16-1.57c.14-.17.28-.34.41-.53 2.18-3.21 3.41-3.27 4.51-3.64 3.81-.77 4 2.34 8.37.79a1.58 1.58 0 0 1 1.46.25zM471.77 84.3a1.42 1.42 0 0 1 1.89-.12c8.14 5.51 7 14.67 2.14 20.42-.23.27-.61.5-.85.39-.24-.11-.14-.27-.15-.38a3.83 3.83 0 0 1 .07-.83 6.47 6.47 0 0 0 .05-.76 5.28 5.28 0 0 0-.23-1.43 6.12 6.12 0 0 0-1.35-2.31 7 7 0 0 0-.48-.46c-3-2.49-2.91-3.72-3.16-4.86-.38-3.87 2.73-3.73 1.63-8.24a1.58 1.58 0 0 1 .44-1.42zM505.59 132.16a1.42 1.42 0 0 1 .31 1.87c-4.65 8.66-13.88 8.5-20.09 4.21-.3-.2-.56-.56-.48-.81.08-.25.26-.16.37-.19.276-.03.554-.03.83 0 .253.015.507.015.76 0a5.29 5.29 0 0 0 1.4-.38 6 6 0 0 0 2.15-1.57 4.17 4.17 0 0 0 .41-.53c2.19-3.21 3.41-3.27 4.52-3.64 3.81-.77 4 2.34 8.37.79a1.56 1.56 0 0 1 1.45.25zM421.41 105.77a.94.94 0 0 1 .88.89c.83 6.48-4.21 10-9.24 10-.23 0-.52-.09-.57-.25-.05-.16.08-.19.13-.25a2.41 2.41 0 0 1 .44-.33 2.38 2.38 0 0 0 .4-.31 3.09 3.09 0 0 0 .61-.74 3.77 3.77 0 0 0 .56-1.68c.01-.15.01-.3 0-.45-.06-2.58.58-3.08 1-3.71 1.76-1.89 3.06-.27 4.82-2.81a1.07 1.07 0 0 1 .97-.36zM400 99.91a1 1 0 0 0-.89.89c-.84 6.48 4.21 10 9.23 10 .24 0 .52-.08.57-.25.05-.17-.07-.19-.13-.24a2 2 0 0 0-.44-.33 3.9 3.9 0 0 1-.4-.31 3.71 3.71 0 0 1-.61-.75 4 4 0 0 1-.56-1.68 3.23 3.23 0 0 1 0-.44c.06-2.58-.58-3.09-1-3.72-1.76-1.89-3.06-.28-4.83-2.81a1 1 0 0 0-.94-.36zM601.12 28.88a1.43 1.43 0 0 1 1.15-1.51c9.5-2.52 15.7 4.31 16.82 11.79 0 .35 0 .79-.26.9-.26.11-.3-.08-.39-.14a3.35 3.35 0 0 1-.59-.6 3.87 3.87 0 0 0-.54-.53 5.2 5.2 0 0 0-1.23-.77 5.86 5.86 0 0 0-2.62-.49c-.221 0-.442.02-.66.06-3.84.6-4.72-.25-5.75-.81-3.16-2.25-1-4.51-5.14-6.64a1.57 1.57 0 0 1-.79-1.26zM707 152.42a1.43 1.43 0 0 1 1.37-1.31c9.78-1 14.84 6.69 14.79 14.25 0 .35-.15.78-.4.85-.25.07-.28-.12-.36-.2a3.49 3.49 0 0 1-.48-.68 4.64 4.64 0 0 0-.46-.61 5.21 5.21 0 0 0-1.09-.95 6.16 6.16 0 0 0-2.52-.9h-.66c-3.89 0-4.63-1-5.55-1.68-2.78-2.72-.31-4.62-4.06-7.36a1.59 1.59 0 0 1-.58-1.41zM672.93 297.05a1.42 1.42 0 0 1-1.56-1.07c-3-9.36 3.5-15.9 10.91-17.39.35-.08.79 0 .91.21s-.06.3-.12.39a3.36 3.36 0 0 1-.57.62 4.44 4.44 0 0 0-.5.56 5.25 5.25 0 0 0-.7 1.27 6.12 6.12 0 0 0-.37 2.65c0 .22.06.44.1.65.8 3.81 0 4.73-.51 5.78-2.09 3.28-4.45 1.25-6.37 5.48a1.57 1.57 0 0 1-1.22.85zM693.69 192.26a1.42 1.42 0 0 1 1.64-.93c9.73 1.45 12.71 10.18 10.78 17.49-.09.34-.34.72-.6.72-.26 0-.24-.19-.3-.28a3.7 3.7 0 0 1-.3-.78 5.38 5.38 0 0 0-.28-.7 5 5 0 0 0-.83-1.19 6 6 0 0 0-2.21-1.5l-.63-.21c-3.77-1-4.24-2.1-5-3-2-3.32.85-4.54-2.09-8.14a1.57 1.57 0 0 1-.18-1.48zM678.82 378a1.42 1.42 0 0 1-.15-1.89c5.36-8.24 14.54-7.3 20.38-2.5.27.22.51.61.41.85-.1.24-.27.14-.39.15a3.86 3.86 0 0 1-.83-.05 4.78 4.78 0 0 0-.76 0 5.31 5.31 0 0 0-1.42.26 6 6 0 0 0-2.28 1.38c-.16.16-.31.32-.45.49-2.45 3-3.68 3-4.81 3.25-3.86.45-3.78-2.67-8.27-1.49a1.59 1.59 0 0 1-1.43-.45zM630.22 92.93a1.43 1.43 0 0 1 .11 1.89c-5.52 8.13-14.68 7-20.42 2.12-.27-.23-.5-.62-.4-.86.1-.24.28-.13.39-.14a3.29 3.29 0 0 1 .83.07c.253.02.507.02.76 0a5 5 0 0 0 1.43-.22 6.12 6.12 0 0 0 2.31-1.35 7 7 0 0 0 .46-.48c2.5-3 3.73-2.9 4.87-3.16 3.86-.37 3.72 2.74 8.24 1.65a1.58 1.58 0 0 1 1.42.48zM658.55 52.92c.408.41.45 1.06.1 1.52-4.44 6.54-11.81 5.66-16.43 1.71-.22-.19-.4-.5-.32-.69.08-.19.22-.11.32-.12a3 3 0 0 1 .66.06c.203.015.407.015.61 0a4.07 4.07 0 0 0 1.15-.19 4.84 4.84 0 0 0 1.86-1.08c.13-.12.25-.25.37-.38 2-2.39 3-2.34 3.91-2.54 3.11-.3 3 2.2 6.63 1.32.421-.07.85.077 1.14.39z"/>
    </g>
</svg>
